<svg width="171" height="171" viewBox="0 0 171 171" fill="none" xmlns="http://www.w3.org/2000/svg">
	<circle cx="85.5" cy="85.5" r="85.5" fill="#F7B01A"/>
	<path d="M142.347 46.9609H30.3683C25.7873 46.9609 22.0737 50.6746 22.0737 55.2556V129.908C22.0737 134.489 25.7873 138.202 30.3683 138.202H142.347C146.928 138.202 150.641 134.489 150.641 129.908V55.2556C150.641 50.6746 146.928 46.9609 142.347 46.9609Z" fill="#3B2D41"/>
	<path d="M142.347 131.98H30.3683C28.1685 131.98 26.0587 131.106 24.5031 129.551C22.9476 127.995 22.0737 125.885 22.0737 123.686V129.907C22.0737 132.106 22.9476 134.216 24.5031 135.772C26.0587 137.327 28.1685 138.201 30.3683 138.201H142.347C144.546 138.201 146.656 137.327 148.212 135.772C149.767 134.216 150.641 132.106 150.641 129.907V123.686C150.641 125.885 149.767 127.995 148.212 129.551C146.656 131.106 144.546 131.98 142.347 131.98Z" fill="#3B2D41"/>
	<path d="M98.7994 140.275H30.3683C27.6185 140.275 24.9813 139.182 23.0368 137.238C21.0924 135.293 20 132.656 20 129.906V55.2541C20 52.5042 21.0924 49.867 23.0368 47.9226C24.9813 45.9781 27.6185 44.8857 30.3683 44.8857H90.5048C91.0547 44.8857 91.5822 45.1042 91.9711 45.4931C92.36 45.882 92.5784 46.4094 92.5784 46.9594C92.5784 47.5094 92.36 48.0368 91.9711 48.4257C91.5822 48.8146 91.0547 49.0331 90.5048 49.0331H30.3683C28.7184 49.0331 27.1361 49.6885 25.9694 50.8552C24.8028 52.0218 24.1473 53.6042 24.1473 55.2541V129.906C24.1473 131.556 24.8028 133.138 25.9694 134.305C27.1361 135.472 28.7184 136.127 30.3683 136.127H98.7994C99.3494 136.127 99.8769 136.346 100.266 136.735C100.655 137.123 100.873 137.651 100.873 138.201C100.873 138.751 100.655 139.278 100.266 139.667C99.8769 140.056 99.3494 140.275 98.7994 140.275ZM142.347 140.275H107.094C106.544 140.275 106.017 140.056 105.628 139.667C105.239 139.278 105.02 138.751 105.02 138.201C105.02 137.651 105.239 137.123 105.628 136.735C106.017 136.346 106.544 136.127 107.094 136.127H142.347C143.996 136.127 145.579 135.472 146.745 134.305C147.912 133.138 148.568 131.556 148.568 129.906V55.2541C148.568 53.6042 147.912 52.0218 146.745 50.8552C145.579 49.6885 143.996 49.0331 142.347 49.0331H98.7994C98.2495 49.0331 97.722 48.8146 97.3331 48.4257C96.9443 48.0368 96.7258 47.5094 96.7258 46.9594C96.7258 46.4094 96.9443 45.882 97.3331 45.4931C97.722 45.1042 98.2495 44.8857 98.7994 44.8857H142.347C145.096 44.8857 147.734 45.9781 149.678 47.9226C151.622 49.867 152.715 52.5042 152.715 55.2541V129.906C152.715 132.656 151.622 135.293 149.678 137.238C147.734 139.182 145.096 140.275 142.347 140.275Z" fill="black"/>
	<path d="M142.347 65.6242V119.54C139.597 119.54 136.959 120.632 135.015 122.576C133.071 124.521 131.978 127.158 131.978 129.908H40.7367C40.7367 127.158 39.6443 124.521 37.6999 122.576C35.7554 120.632 33.1182 119.54 30.3683 119.54V65.6242C33.1182 65.6242 35.7554 64.5318 37.6999 62.5874C39.6443 60.6429 40.7367 58.0057 40.7367 55.2559H131.978C131.978 58.0057 133.071 60.6429 135.015 62.5874C136.959 64.5318 139.597 65.6242 142.347 65.6242Z" fill="#DCDADD"/>
	<path d="M131.978 131.98H40.7367C40.1867 131.98 39.6593 131.762 39.2704 131.373C38.8815 130.984 38.663 130.456 38.663 129.906C38.663 127.707 37.7891 125.597 36.2336 124.041C34.678 122.486 32.5682 121.612 30.3683 121.612C29.8184 121.612 29.2909 121.393 28.902 121.004C28.5132 120.616 28.2947 120.088 28.2947 119.538V65.6227C28.2947 65.0727 28.5132 64.5453 28.902 64.1564C29.2909 63.7675 29.8184 63.549 30.3683 63.549C32.5682 63.549 34.678 62.6751 36.2336 61.1196C37.7891 59.564 38.663 57.4542 38.663 55.2543C38.663 54.7044 38.8815 54.1769 39.2704 53.788C39.6593 53.3991 40.1867 53.1807 40.7367 53.1807H131.978C132.528 53.1807 133.056 53.3991 133.444 53.788C133.833 54.1769 134.052 54.7044 134.052 55.2543C134.052 57.4542 134.926 59.564 136.481 61.1196C138.037 62.6751 140.147 63.549 142.347 63.549C142.896 63.549 143.424 63.7675 143.813 64.1564C144.202 64.5453 144.42 65.0727 144.42 65.6227V119.538C144.42 120.088 144.202 120.616 143.813 121.004C143.424 121.393 142.896 121.612 142.347 121.612C140.147 121.612 138.037 122.486 136.481 124.041C134.926 125.597 134.052 127.707 134.052 129.906C134.052 130.456 133.833 130.984 133.444 131.373C133.056 131.762 132.528 131.98 131.978 131.98ZM42.6367 127.833H130.078C130.513 125.287 131.727 122.939 133.553 121.113C135.379 119.287 137.727 118.073 140.273 117.638V67.5227C137.727 67.0878 135.379 65.8736 133.553 64.0475C131.727 62.2214 130.513 59.8736 130.078 57.328H42.6367C42.2018 59.8736 40.9876 62.2214 39.1615 64.0475C37.3354 65.8736 34.9876 67.0878 32.442 67.5227V117.638C34.9876 118.073 37.3354 119.287 39.1615 121.113C40.9876 122.939 42.2018 125.287 42.6367 127.833Z" fill="black"/>
	<path d="M127.831 119.538V150.643L117.462 148.569L107.094 150.643V119.538H127.831Z" fill="#DCDADD"/>
	<path d="M127.831 152.717C127.535 152.717 128.386 152.87 117.462 150.685L107.501 152.676C107.2 152.736 106.89 152.729 106.592 152.654C106.295 152.58 106.017 152.441 105.78 152.247C105.543 152.052 105.352 151.808 105.22 151.53C105.089 151.253 105.021 150.95 105.02 150.644V119.539C105.02 118.989 105.239 118.461 105.628 118.072C106.017 117.683 106.544 117.465 107.094 117.465H127.831C128.381 117.465 128.908 117.683 129.297 118.072C129.686 118.461 129.904 118.989 129.904 119.539V150.644C129.904 151.194 129.686 151.721 129.297 152.11C128.908 152.499 128.381 152.717 127.831 152.717ZM117.462 146.496C117.755 146.496 117.154 146.393 125.757 148.114V121.612H109.168V148.114C117.784 146.39 117.17 146.496 117.462 146.496Z" fill="black"/>
	<path d="M117.462 140.275C126.625 140.275 134.052 132.848 134.052 123.686C134.052 114.524 126.625 107.097 117.462 107.097C108.3 107.097 100.873 114.524 100.873 123.686C100.873 132.848 108.3 140.275 117.462 140.275Z" fill="#F7B01A"/>
	<path d="M117.462 134.054C113.603 134.054 109.864 132.708 106.89 130.247C103.915 127.787 101.892 124.367 101.169 120.575C100.71 122.974 100.786 125.445 101.393 127.812C101.999 130.178 103.121 132.381 104.677 134.263C106.234 136.146 108.187 137.662 110.397 138.702C112.607 139.742 115.02 140.282 117.462 140.282C119.905 140.282 122.318 139.742 124.528 138.702C126.738 137.662 128.691 136.146 130.248 134.263C131.804 132.381 132.926 130.178 133.532 127.812C134.139 125.445 134.215 122.974 133.756 120.575C133.033 124.367 131.009 127.787 128.035 130.247C125.061 132.708 121.322 134.054 117.462 134.054Z" fill="#F7B01A"/>
	<path d="M117.462 142.349C113.771 142.349 110.163 141.254 107.094 139.203C104.025 137.153 101.633 134.238 100.22 130.828C98.8075 127.417 98.4379 123.665 99.1581 120.045C99.8782 116.424 101.656 113.099 104.266 110.489C106.876 107.879 110.201 106.101 113.821 105.381C117.442 104.661 121.194 105.031 124.605 106.443C128.015 107.856 130.929 110.248 132.98 113.317C135.031 116.386 136.125 119.994 136.125 123.685C136.12 128.634 134.152 133.377 130.653 136.876C127.154 140.375 122.411 142.343 117.462 142.349ZM117.462 109.17C114.592 109.17 111.785 110.021 109.398 111.616C107.011 113.211 105.15 115.478 104.052 118.131C102.953 120.783 102.666 123.702 103.226 126.517C103.786 129.333 105.168 131.92 107.198 133.95C109.228 135.98 111.815 137.362 114.631 137.922C117.446 138.482 120.365 138.195 123.017 137.096C125.67 135.998 127.937 134.137 129.532 131.75C131.127 129.363 131.978 126.556 131.978 123.685C131.974 119.837 130.443 116.147 127.722 113.426C125.001 110.705 121.311 109.174 117.462 109.17Z" fill="black"/>
	<path d="M117.462 131.98C122.043 131.98 125.757 128.266 125.757 123.685C125.757 119.104 122.043 115.391 117.462 115.391C112.881 115.391 109.168 119.104 109.168 123.685C109.168 128.266 112.881 131.98 117.462 131.98Z" fill="#F7B01A"/>
	<path d="M117.462 134.054C115.412 134.054 113.407 133.446 111.702 132.307C109.997 131.167 108.668 129.548 107.883 127.654C107.099 125.759 106.893 123.674 107.293 121.663C107.693 119.652 108.681 117.804 110.131 116.354C111.581 114.904 113.428 113.917 115.44 113.517C117.451 113.117 119.536 113.322 121.43 114.107C123.325 114.891 124.944 116.22 126.083 117.925C127.223 119.63 127.831 121.635 127.831 123.686C127.831 126.436 126.738 129.073 124.794 131.017C122.85 132.962 120.212 134.054 117.462 134.054ZM117.462 117.465C116.232 117.465 115.029 117.83 114.006 118.513C112.983 119.197 112.186 120.168 111.715 121.305C111.244 122.442 111.121 123.693 111.361 124.899C111.601 126.106 112.194 127.215 113.064 128.085C113.934 128.955 115.042 129.547 116.249 129.787C117.456 130.027 118.706 129.904 119.843 129.433C120.98 128.962 121.951 128.165 122.635 127.142C123.319 126.119 123.683 124.916 123.683 123.686C123.683 122.036 123.028 120.453 121.861 119.287C120.695 118.12 119.112 117.465 117.462 117.465Z" fill="black"/>
	<path d="M90.5048 55.2548L69.7681 65.6232L49.0314 55.2548V36.5918H90.5048V55.2548Z" fill="#3B2D41"/>
	<path d="M49.0314 49.0332V55.2542L69.7681 65.6226L90.5048 55.2542V49.0332L69.7681 59.4016L49.0314 49.0332Z" fill="#1C151F" fill-opacity="0.25"/>
	<path d="M68.8401 67.4795L48.1034 57.1112C47.7589 56.9388 47.4692 56.6738 47.2668 56.346C47.0645 56.0182 46.9574 55.6405 46.9577 55.2553V36.5922C46.9577 36.0423 47.1762 35.5148 47.5651 35.1259C47.954 34.737 48.4814 34.5186 49.0314 34.5186H90.5048C91.0547 34.5186 91.5822 34.737 91.9711 35.1259C92.36 35.5148 92.5784 36.0423 92.5784 36.5922V55.2553C92.5787 55.6405 92.4717 56.0182 92.2693 56.346C92.0669 56.6738 91.7772 56.9388 91.4327 57.1112L70.696 67.4795C70.4079 67.6237 70.0902 67.6988 69.7681 67.6988C69.4459 67.6988 69.1282 67.6237 68.8401 67.4795ZM51.105 53.9748L69.7681 63.3063L88.4311 53.9748V38.6659H51.105V53.9748Z" fill="black"/>
	<path d="M98.7994 36.5928L69.7681 51.1085L40.7367 36.5928L69.7681 22.0771L98.7994 36.5928Z" fill="#3B2D41"/>
	<path d="M69.7681 44.8857L46.9577 33.4805L40.7367 36.591L69.7681 51.1067L98.7994 36.591L92.5784 33.4805L69.7681 44.8857Z" fill="#3B2D41"/>
	<path d="M68.8401 52.9625L39.8087 38.4468C39.4636 38.2748 39.1733 38.01 38.9704 37.6822C38.7675 37.3543 38.66 36.9764 38.66 36.5908C38.66 36.2053 38.7675 35.8274 38.9704 35.4995C39.1733 35.1717 39.4636 34.9069 39.8087 34.7349L68.8401 20.2192C69.1282 20.0751 69.4459 20 69.7681 20C70.0902 20 70.4079 20.0751 70.696 20.2192L99.7274 34.7349C100.072 34.9069 100.363 35.1717 100.566 35.4995C100.769 35.8274 100.876 36.2053 100.876 36.5908C100.876 36.9764 100.769 37.3543 100.566 37.6822C100.363 38.01 100.072 38.2748 99.7274 38.4468L70.696 52.9625C70.4079 53.1066 70.0902 53.1817 69.7681 53.1817C69.4459 53.1817 69.1282 53.1066 68.8401 52.9625ZM45.3739 36.5908L69.7681 48.7892L94.1622 36.5908L69.7681 24.3925L45.3739 36.5908ZM109.168 78.0642H63.547C62.9971 78.0642 62.4696 77.8458 62.0807 77.4569C61.6918 77.068 61.4734 76.5405 61.4734 75.9906C61.4734 75.4406 61.6918 74.9131 62.0807 74.5243C62.4696 74.1354 62.9971 73.9169 63.547 73.9169H109.168C109.718 73.9169 110.245 74.1354 110.634 74.5243C111.023 74.9131 111.241 75.4406 111.241 75.9906C111.241 76.5405 111.023 77.068 110.634 77.4569C110.245 77.8458 109.718 78.0642 109.168 78.0642ZM123.683 88.4326H49.0314C48.4814 88.4326 47.9539 88.2141 47.5651 87.8252C47.1762 87.4363 46.9577 86.9089 46.9577 86.3589C46.9577 85.8089 47.1762 85.2815 47.5651 84.8926C47.9539 84.5037 48.4814 84.2852 49.0314 84.2852H123.683C124.233 84.2852 124.761 84.5037 125.15 84.8926C125.539 85.2815 125.757 85.8089 125.757 86.3589C125.757 86.9089 125.539 87.4363 125.15 87.8252C124.761 88.2141 124.233 88.4326 123.683 88.4326ZM123.683 98.8009H49.0314C48.4814 98.8009 47.9539 98.5825 47.5651 98.1936C47.1762 97.8047 46.9577 97.2772 46.9577 96.7273C46.9577 96.1773 47.1762 95.6498 47.5651 95.261C47.9539 94.8721 48.4814 94.6536 49.0314 94.6536H123.683C124.233 94.6536 124.761 94.8721 125.15 95.261C125.539 95.6498 125.757 96.1773 125.757 96.7273C125.757 97.2772 125.539 97.8047 125.15 98.1936C124.761 98.5825 124.233 98.8009 123.683 98.8009ZM65.6207 121.611H49.0314C48.4814 121.611 47.9539 121.393 47.5651 121.004C47.1762 120.615 46.9577 120.088 46.9577 119.538C46.9577 118.988 47.1762 118.46 47.5651 118.071C47.9539 117.682 48.4814 117.464 49.0314 117.464H65.6207C66.1707 117.464 66.6981 117.682 67.087 118.071C67.4759 118.46 67.6944 118.988 67.6944 119.538C67.6944 120.088 67.4759 120.615 67.087 121.004C66.6981 121.393 66.1707 121.611 65.6207 121.611Z" fill="black"/>
</svg>
