<svg width="39" height="30" viewBox="0 0 39 30" fill="none" xmlns="http://www.w3.org/2000/svg">
	<g>
		<path d="M31.7629 0.197366C32.433 0.197366 33.1031 0.690788 33.4381 1.34868V6.11842C33.4381 6.44737 33.4381 7.10526 33.1031 7.59868C32.768 7.92763 32.433 8.0921 32.0979 8.25658H31.7629C31.0928 8.42105 30.5902 8.58552 30.0876 8.75C29.25 9.24342 28.5799 10.0658 28.2448 11.0526L35.951 11.0526C36.2861 11.0526 36.6211 11.0526 36.9562 11.2171C38.1289 11.546 38.799 12.5329 38.799 13.6842L38.799 26.8421C38.799 27.5 38.799 28.4868 37.9613 29.3092C37.6263 29.6382 36.9562 29.8026 36.4536 29.8026L23.5541 29.8026C21.7113 29.8026 20.8737 28.8158 20.8737 26.6776L20.8737 11.7105C20.8737 8.42105 22.2139 5.46052 24.7268 3.15789L25.0619 2.82895C26.5696 1.67763 27.9098 1.01974 29.4175 0.526314C30.0876 0.361841 30.9253 0.361839 31.4278 0.197366L31.7629 0.197366ZM31.7629 1.8421C31.0928 2.00658 30.4227 2.00658 29.9201 2.17105C28.5799 2.5 27.4072 3.15789 26.2345 4.14473L25.8995 4.47368C23.7216 6.44737 22.549 8.91447 22.549 11.875L22.549 26.8421C22.549 28.1579 22.884 28.1579 23.3866 28.1579L36.4536 28.1579C36.6211 28.1579 36.7887 28.1579 36.9562 27.8289C37.2912 27.6645 37.2912 27.5 37.2912 26.6776L37.2912 13.5197C37.2912 13.1908 36.9562 12.8618 36.6211 12.6974L27.4072 12.6974C27.0722 12.6974 26.9046 12.5329 26.7371 12.3684C26.4021 12.2039 26.4021 11.875 26.4021 11.7105L26.5696 11.0526C26.9046 9.40789 27.9098 8.25658 29.25 7.43421C29.9201 6.94079 30.7577 6.77631 31.4278 6.61184L31.7629 6.61184C31.7629 6.61184 31.9304 6.61184 31.9304 6.44736V4.80263L31.7629 1.8421Z" fill="#DCDADD"/>
		<path d="M25.3969 11.0526L34.2758 11.0526C34.7784 11.0526 35.1134 11.3816 35.1134 11.875C35.1134 12.3684 34.7784 12.6974 34.2758 12.6974L25.3969 12.6974C24.8943 12.6974 24.5593 12.3684 24.5593 11.875C24.5593 11.3816 24.8943 11.0526 25.3969 11.0526ZM11.3247 0.197368C11.9948 0.197368 12.6649 0.69079 13 1.34869V6.11842C13 6.44737 13 7.10526 12.6649 7.59868C12.3299 7.92763 11.9948 8.0921 11.6598 8.25658H11.3247C10.6546 8.42105 10.1521 8.58553 9.64948 8.75C8.81185 9.24342 8.14175 10.0658 7.8067 11.0526L15.5129 11.0526C15.8479 11.0526 16.183 11.0526 16.518 11.2171C17.6907 11.5461 18.3608 12.5329 18.3608 13.6842L18.3608 26.8421C18.3608 27.5 18.3608 28.4868 17.5232 29.3092C17.0206 29.8026 16.518 29.9671 15.8479 29.9671L2.94845 29.9671C1.10567 29.9671 0.268037 28.9803 0.268037 26.8421L0.268037 11.875C0.268037 8.58553 1.60824 5.625 4.12113 3.32237L4.62371 2.99342L4.79123 2.82895C6.13144 1.67763 7.63918 1.01974 9.14691 0.690788C9.81701 0.526314 10.4871 0.361842 11.1572 0.361842C11.1572 0.197369 11.3247 0.197368 11.3247 0.197368ZM11.3247 1.8421C10.6546 2.00658 9.98453 2.00658 9.48196 2.17105C8.14175 2.5 6.96907 3.15789 5.79639 4.14474L5.46134 4.47368C3.2835 6.44737 2.11082 8.91447 2.11082 11.875L2.11082 26.8421C2.11082 28.1579 2.44587 28.1579 3.11598 28.1579L16.0155 28.1579C16.183 28.1579 16.3505 28.1579 16.518 27.9934C16.6856 27.8289 16.8531 27.5 16.8531 26.8421L16.8531 13.6842C16.8531 13.3553 16.518 13.0263 16.183 12.8618L6.96907 12.8618C6.63402 12.8618 6.46649 12.6974 6.29897 12.5329C6.13144 12.3684 6.13144 12.0395 6.13144 11.875L6.29897 11.2171C6.63402 9.57237 7.63917 8.42105 8.97938 7.59868C9.64948 7.26974 10.3196 6.94079 11.1572 6.77631H11.4923C11.4923 6.77631 11.6598 6.77631 11.6598 6.61184V5.95395L11.3247 1.8421Z" fill="#DCDADD"/>
		<path d="M4.95877 11.0526L13.8376 11.0526C14.3402 11.0526 14.6753 11.3816 14.6753 11.875C14.6753 12.3684 14.3402 12.6974 13.8376 12.6974L4.95877 12.6974C4.45619 12.6974 4.12114 12.3684 4.12114 11.875C4.12114 11.3816 4.45619 11.0526 4.95877 11.0526Z" fill="#DCDADD"/>
	</g>
</svg>