<svg width="97" height="76" viewBox="0 0 97 76" fill="none" xmlns="http://www.w3.org/2000/svg">
	<g clip-path="url(#clip0_574_159)">
		<path d="M18 0.5C16.3333 0.5 14.6667 1.75001 13.8333 3.41667L13.8333 15.5C13.8333 16.3333 13.8333 18 14.6667 19.25C15.5 20.0833 16.3333 20.5 17.1667 20.9167H18C19.6667 21.3333 20.9167 21.75 22.1667 22.1667C24.25 23.4167 25.9167 25.5 26.75 28H7.58333C6.75 28 5.91667 28 5.08333 28.4167C2.16667 29.25 0.5 31.75 0.5 34.6667L0.5 68C0.5 69.6667 0.5 72.1667 2.58333 74.25C3.41667 75.0833 5.08333 75.5 6.33333 75.5H38.4167C43 75.5 45.0833 73 45.0833 67.5833L45.0833 29.6667C45.0833 21.3333 41.75 13.8333 35.5 8L34.6667 7.16667C30.9167 4.25001 27.5833 2.58334 23.8333 1.33334C22.1667 0.916672 20.0833 0.916672 18.8333 0.5H18ZM18 4.66667C19.6667 5.08334 21.3333 5.08334 22.5833 5.50001C25.9167 6.33334 28.8333 8 31.75 10.5L32.5833 11.3333C38 16.3333 40.9167 22.5833 40.9167 30.0833L40.9167 68C40.9167 71.3333 40.0833 71.3333 38.8333 71.3333H6.33333C5.91667 71.3333 5.5 71.3333 5.08333 70.5C4.25 70.0833 4.25 69.6667 4.25 67.5833L4.25 34.25C4.25 33.4167 5.08333 32.5833 5.91667 32.1667H28.8333C29.6667 32.1667 30.0833 31.75 30.5 31.3333C31.3333 30.9167 31.3333 30.0833 31.3333 29.6667L30.9167 28C30.0833 23.8333 27.5833 20.9167 24.25 18.8333C22.5833 17.5833 20.5 17.1667 18.8333 16.75H18C18 16.75 17.5833 16.75 17.5833 16.3333V12.1667L18 4.66667Z" fill="#F7B01A"/>
		<path d="M33.8333 28H11.75C10.5 28 9.66663 28.8333 9.66663 30.0833C9.66663 31.3333 10.5 32.1666 11.75 32.1666H33.8333C35.0833 32.1666 35.9166 31.3333 35.9166 30.0833C35.9166 28.8333 35.0833 28 33.8333 28ZM68.8333 0.499954C67.1666 0.499954 65.5 1.74995 64.6666 3.41662V15.5C64.6666 16.3333 64.6666 18 65.5 19.25C66.3333 20.0833 67.1666 20.5 68 20.9166H68.8333C70.5 21.3333 71.75 21.75 73 22.1666C75.0833 23.4166 76.75 25.5 77.5833 28H58.4166C57.5833 28 56.75 28 55.9166 28.4166C53 29.25 51.3333 31.75 51.3333 34.6666L51.3333 68C51.3333 69.6666 51.3333 72.1666 53.4166 74.25C54.6666 75.5 55.9166 75.9166 57.5833 75.9166L89.6666 75.9166C94.25 75.9166 96.3333 73.4166 96.3333 68V30.0833C96.3333 21.75 93 14.25 86.75 8.41662L85.5 7.58329L85.0833 7.16662C81.75 4.24995 78 2.58328 74.25 1.74995C72.5833 1.33328 70.9166 0.916618 69.25 0.916618C69.25 0.499954 68.8333 0.499954 68.8333 0.499954ZM68.8333 4.66662C70.5 5.08328 72.1666 5.08329 73.4166 5.49995C76.75 6.33329 79.6666 7.99995 82.5833 10.5L83.4166 11.3333C88.8333 16.3333 91.75 22.5833 91.75 30.0833V68C91.75 71.3333 90.9166 71.3333 89.25 71.3333L57.1666 71.3333C56.75 71.3333 56.3333 71.3333 55.9166 70.9166C55.5 70.5 55.0833 69.6666 55.0833 68L55.0833 34.6666C55.0833 33.8333 55.9166 33 56.75 32.5833H79.6666C80.5 32.5833 80.9166 32.1666 81.3333 31.75C81.75 31.3333 81.75 30.5 81.75 30.0833L81.3333 28.4166C80.5 24.25 78 21.3333 74.6666 19.25C73 18.4166 71.3333 17.5833 69.25 17.1666H68.4166C68.4166 17.1666 68 17.1666 68 16.75V15.0833L68.8333 4.66662Z" fill="#F7B01A"/>
		<path d="M84.6667 28L62.5833 28C61.3333 28 60.5 28.8333 60.5 30.0833C60.5 31.3333 61.3333 32.1666 62.5833 32.1666H84.6667C85.9167 32.1666 86.75 31.3333 86.75 30.0833C86.75 28.8333 85.9167 28 84.6667 28Z" fill="#F7B01A"/>
	</g>
	<defs>
		<clipPath id="clip0_574_159">
			<rect width="97" height="76" fill="white" transform="matrix(1 0 0 -1 0 76)"/>
		</clipPath>
	</defs>
</svg>