<svg width="414" height="358" viewBox="0 0 414 358" fill="none" xmlns="http://www.w3.org/2000/svg">
	<g clip-path="url(#clip0_575_235)">
		<path d="M402.329 74.9421C396.729 65.4273 387.712 57.9307 377.294 54.2648C372.806 52.6996 367.412 51.9581 363.747 54.965C360.082 57.9719 361.359 65.6744 366.094 65.5508C351.476 55.4181 333.853 49.6927 316.065 49.2396C311.618 49.116 306.553 49.6103 303.753 53.0703C300.912 56.5302 303.3 63.3678 307.665 62.5851C294.241 53.9764 276.535 56.6126 261.506 61.9673C257.141 63.5325 252.818 65.2625 248.494 66.9925C243.759 68.8872 245.159 75.9307 250.265 75.8895L402.329 74.9421ZM20.3353 25.8437C14.7353 27.2029 9.05294 22.5485 10.2471 18.6354C11.4412 14.7224 16.8765 12.045 22.3529 10.4386C34.7471 6.81388 49.4471 6.85507 61.8 10.5622C58.9177 9.07933 59.1647 5.94889 61.4294 4.09534C63.7353 2.24179 67.4 1.41799 70.9412 0.964898C87.8235 -1.17698 106.312 3.76582 116.235 13.1571C112.982 10.8505 114.753 6.7315 118.665 5.00152C122.576 3.27154 127.765 3.27154 132.418 3.8482C152.429 6.23722 169.394 13.5279 173.224 26.8734L20.3353 25.8437Z" fill="#DCDADD"/>
		<path d="M11.2353 338.064C27.3353 307.089 45.0412 276.938 64.2706 247.817C72.0118 236.077 80.7412 223.885 93.7529 218.489C105.159 213.753 118.5 215.153 129.741 220.343C140.941 225.533 150.247 234.224 157.947 243.904C164.576 252.183 171.659 262.151 182.241 263.016C193.524 263.963 202.459 254.078 209.418 245.098C232.271 215.647 255.124 186.155 277.976 156.704C285.553 146.942 294.9 136.274 307.212 136.315C318.247 136.356 327.182 145.089 334.059 153.739C374.412 204.361 390.141 269.73 404.759 332.75L11.2353 338.064Z" fill="#F7B01A"/>
		<path d="M384.459 279.368C400.741 279.368 413.941 266.164 413.941 249.876C413.941 233.588 400.741 220.384 384.459 220.384C368.176 220.384 354.976 233.588 354.976 249.876C354.976 266.164 368.176 279.368 384.459 279.368Z" fill="#DCDADD"/>
		<path d="M384.294 331.268C383.841 331.185 383.553 330.773 383.553 330.32V258.938C383.553 258.444 383.924 257.991 384.418 257.991C384.953 257.949 385.365 258.361 385.365 258.897V330.403C385.365 330.938 384.871 331.391 384.294 331.268Z" fill="#3B2D41"/>
		<path d="M384.459 264.869C384.212 264.869 384.006 264.787 383.8 264.622C383.429 264.252 383.429 263.675 383.8 263.345L391.871 255.272C392.241 254.901 392.818 254.901 393.147 255.272C393.518 255.643 393.518 256.22 393.147 256.549L385.118 264.622C384.912 264.787 384.706 264.869 384.459 264.869ZM384.459 272.366C384.212 272.366 384.006 272.284 383.8 272.119C383.429 271.748 383.429 271.172 383.8 270.842L391.871 262.769C392.241 262.398 392.818 262.398 393.147 262.769C393.518 263.139 393.518 263.716 393.147 264.046L385.118 272.119C384.912 272.284 384.706 272.366 384.459 272.366Z" fill="#3B2D41"/>
		<path d="M46.0294 282.911C71.2493 282.911 91.6941 262.459 91.6941 237.231C91.6941 212.003 71.2493 191.551 46.0294 191.551C20.8095 191.551 0.364708 212.003 0.364708 237.231C0.364708 262.459 20.8095 282.911 46.0294 282.911Z" fill="#DCDADD"/>
		<path d="M46.0294 327.478C45.4529 327.478 45 327.025 45 326.449V237.231C45 236.654 45.4529 236.201 46.0294 236.201C46.6059 236.201 47.0588 236.654 47.0588 237.231V326.407C47.1 326.984 46.6059 327.478 46.0294 327.478Z" fill="#3B2D41"/>
		<path d="M46.0294 261.904C45.7824 261.904 45.4941 261.821 45.2882 261.615L32.5235 248.846C32.1118 248.435 32.1118 247.776 32.5235 247.364C32.9353 246.952 33.5941 246.952 34.0059 247.364L46.7706 260.174C47.1824 260.586 47.1824 261.245 46.7706 261.657C46.5647 261.821 46.3176 261.904 46.0294 261.904ZM46.0294 273.808C45.7824 273.808 45.4941 273.725 45.2882 273.519L32.5235 260.75C32.1118 260.338 32.1118 259.679 32.5235 259.268C32.9353 258.856 33.5941 258.856 34.0059 259.268L46.7706 272.036C47.1824 272.448 47.1824 273.107 46.7706 273.519C46.5647 273.684 46.3176 273.808 46.0294 273.808Z" fill="#3B2D41"/>
		<path d="M18.8529 322.618H397.141C403.112 322.618 407.929 327.437 407.929 333.409V346.92C407.929 352.892 403.112 357.712 397.141 357.712H18.8529C12.8824 357.712 8.0647 352.892 8.0647 346.92V333.409C8.0647 327.478 12.8824 322.618 18.8529 322.618Z" fill="#DCDADD"/>
		<path d="M275.259 140.887C309.962 140.887 338.094 112.746 338.094 78.0315C338.094 43.3171 309.962 15.1755 275.259 15.1755C240.556 15.1755 212.424 43.3171 212.424 78.0315C212.424 112.746 240.556 140.887 275.259 140.887Z" stroke="#F7B01A" stroke-miterlimit="10"/>
		<path d="M265.459 150.691C278.429 157.034 274.641 169.185 274.641 169.185C274.641 169.185 267.394 179.647 254.382 173.304C241.412 166.961 227.618 146.201 227.618 146.201C227.618 146.201 252.488 144.347 265.459 150.691Z" fill="#2A94F4"/>
		<path d="M265.459 150.691C278.429 157.034 274.641 169.185 274.641 169.185L227.618 146.201C227.618 146.201 252.488 144.347 265.459 150.691Z" fill="#CCE9FF"/>
		<path d="M286.129 218.695C273.159 225.039 276.947 237.19 276.947 237.19C276.947 237.19 284.194 247.652 297.206 241.309C310.176 234.966 323.971 214.206 323.971 214.206C323.971 214.206 299.141 212.352 286.129 218.695Z" fill="#2A94F4"/>
		<path d="M286.129 218.695C273.159 225.039 276.947 237.19 276.947 237.19L323.971 214.206C323.971 214.206 299.141 212.352 286.129 218.695ZM316.147 326.819C299.635 347.455 274.641 338.064 274.641 338.064C274.641 338.064 259.982 315.739 276.494 295.062C293.006 274.384 339 257.538 339 257.538C339 257.538 332.659 306.142 316.147 326.819Z" fill="#CCE9FF"/>
		<path d="M316.147 326.819C299.635 347.455 274.641 338.064 274.641 338.064L339 257.538C339 257.538 332.659 306.142 316.147 326.819Z" fill="#2A94F4"/>
		<path d="M234.659 326.819C251.171 347.455 276.165 338.064 276.165 338.064C276.165 338.064 290.824 315.739 274.312 295.062C257.8 274.426 211.806 257.538 211.806 257.538C211.806 257.538 218.147 306.142 234.659 326.819Z" fill="#CCE9FF"/>
		<path d="M234.659 326.819C251.171 347.455 276.165 338.064 276.165 338.064L211.806 257.538C211.806 257.538 218.147 306.142 234.659 326.819Z" fill="#2A94F4"/>
		<path d="M193.153 164.407L181.335 168.196L179.606 167.373L176.271 164.077L176.6 158.682L183.147 158.517L193.153 164.407Z" fill="#FCD2B1"/>
		<path d="M153.788 95.2078C153.788 95.2078 149.753 141.835 183.106 158.517C181.747 160.123 176.147 162.677 176.147 162.677C176.147 162.677 143.494 142.865 144.647 120.869C145.8 98.8737 153.788 95.2078 153.788 95.2078Z" fill="#1D87D6"/>
		<path d="M90.5824 307.789C90.5824 307.789 94.9471 327.972 98.1588 337.075C98.5294 338.146 97.1706 339.011 96.3882 338.229C90.9941 332.915 83.5 322.165 81.0294 319.693C77.9412 316.604 73.2059 310.837 73.2059 310.837L84.5294 300.869L91.9824 304.618L90.5824 307.789Z" fill="#0B4870"/>
		<path d="M131.1 322.618C131.1 322.618 149.094 332.668 158.071 336.334C159.141 336.787 158.894 338.352 157.741 338.435C150.206 338.97 137.153 337.487 133.694 337.693C129.371 337.982 121.876 337.693 121.876 337.693V322.618L129.618 319.487L131.1 322.618Z" fill="#083751"/>
		<path d="M149.341 148.055C149.341 148.055 147.612 238.137 146.624 240.155C145.635 242.133 131.1 322.659 131.1 322.659H121.876C121.876 322.659 123.524 238.508 127.147 235.377C127.147 227.963 124.635 148.796 131.676 143.153C141.971 142.535 149.341 148.055 149.341 148.055Z" fill="#083751"/>
		<path d="M118.129 139.364C104.829 149.167 102.153 194.97 115.7 230.352C106.847 246.252 80.3706 309.313 80.3706 309.313L88.1941 314.009C88.1941 314.009 142.176 239.744 140.118 232.082C138.059 224.421 141.971 142.494 141.971 142.494L118.129 139.364Z" fill="#0B4870"/>
		<path d="M156.3 84.869C156.588 85.9811 156.959 87.0932 157.412 88.1642C160.294 95.0017 164.247 109.13 163.959 111.478C163.629 114.031 154.612 122.723 152.224 129.354C149.835 135.986 149.424 148.054 149.424 148.054L118.212 139.363C118.212 139.363 126.9 117.945 127.229 108.265C127.559 98.5852 130.894 78.5669 143.206 76.5486C152.594 74.9834 155.476 81.7385 156.3 84.869Z" fill="#2A94F4"/>
		<path d="M165.812 44.0086C166.388 42.5669 166.182 40.9193 165.276 39.6425C160.582 33.258 152.141 29.6745 144.318 31.0749C135.629 32.6401 128.341 40.1367 127.024 48.869C126.529 52.2466 126.818 55.7066 126.118 59.0429C125.294 62.956 123.029 66.5807 119.859 69.0109C115.906 72.059 110.8 73.2123 106.394 75.6013C101.947 78.0315 98.2824 81.6562 95.1529 85.6517C92.0235 89.6471 89.3059 94.1368 88.4412 99.162C87.5765 104.187 88.8118 109.748 92.5588 113.167C94.9471 115.35 98.0353 116.462 101.082 117.492C107.176 119.551 113.559 121.405 119.941 120.704C126.324 120.004 132.788 116.215 134.765 110.077C137.524 101.427 130.729 92.3245 131.965 83.345C132.829 77.2489 137.276 72.2237 142.218 68.5578C147.159 64.8919 152.759 62.091 157.453 58.1368C160.953 55.2123 164.288 47.7157 165.812 44.0086Z" fill="#0B4870"/>
		<path d="M157.371 69.876C155.806 73.0888 154.365 81.5328 155.724 85.1163C156.959 88.6587 156.506 89.2353 156.506 89.2353L142.794 77.9904L145.965 62.5442L157.371 69.876Z" fill="#FCD2B1"/>
		<path d="M168.529 56.9011C168.529 64.8508 166.471 72.9652 159.882 72.9652C153.294 72.9652 144.647 64.8508 144.647 56.9011C144.647 48.9515 150 42.4846 156.588 42.4846C163.176 42.4846 168.529 48.9515 168.529 56.9011Z" fill="#FFE3CA"/>
		<path d="M167.829 41.0429C170.176 40.8369 171.782 43.3495 170.629 45.3678C168.365 49.4456 164.329 53.5235 154.941 52.3701C150.659 51.8347 143.824 52.3701 143.412 55.2534L140.118 47.4273C140.118 47.4273 140.941 42.4845 141.765 42.4845H150.741L167.829 41.0429Z" fill="#0B4870"/>
		<path d="M150 51.5464C148.765 54.0178 148.106 58.4251 146.459 59.2489C144.4 58.0544 141.847 51.8347 142.012 51.8759C142.176 51.9171 144.235 50.6814 144.647 50.6814C145.059 50.6814 150 51.5464 150 51.5464Z" fill="#0B4870"/>
		<path d="M146.911 63.2015C148.073 62.6793 148.335 60.7421 147.496 58.8746C146.657 57.0071 145.035 55.9166 143.873 56.4388C142.712 56.961 142.45 58.8982 143.289 60.7656C144.128 62.6331 145.75 63.7237 146.911 63.2015Z" fill="#FFE3CA"/>
		<path d="M145.841 65.7982C147.024 65.7982 147.982 64.8392 147.982 63.6563C147.982 62.4733 147.024 61.5144 145.841 61.5144C144.659 61.5144 143.7 62.4733 143.7 63.6563C143.7 64.8392 144.659 65.7982 145.841 65.7982Z" fill="#F7B01A"/>
		<path d="M179.565 211.693L153.994 189.08C153.088 188.297 153.006 186.897 153.788 185.99L169.641 166.425C170.424 165.519 171.824 165.437 172.729 166.219L199.906 190.233C200.812 191.016 200.894 192.416 200.112 193.322L182.653 211.487C181.829 212.393 180.471 212.476 179.565 211.693Z" fill="#2A94F4"/>
		<path d="M204.724 218.984L181.335 208.151L187.388 201.148L206.659 213.959L206.947 214.165L204.724 218.984ZM195.335 167.537C198.218 170.009 199.165 174.581 197.971 180.43L195.829 191.016L171.988 170.38L182.529 166.714C187.965 164.778 192.494 165.066 195.335 167.537ZM196.694 165.972C193.4 163.13 188.212 162.512 181.829 164.737L167.953 169.597L197.188 194.846L200.029 180.801C201.388 174.004 200.029 168.856 196.694 165.972Z" fill="#2A94F4"/>
		<path d="M204.724 218.984C203.241 216.224 204.765 214.741 206.659 213.958L206.947 214.164L204.724 218.984Z" fill="#2286D1"/>
		<path d="M136.165 87.7936C135.588 106.494 143.165 154.439 157.371 173.345C159.8 172.068 162.435 170.627 162.435 170.627C162.435 170.627 144.318 128.942 150.124 93.9309C150.741 89.6059 150.124 86.5167 148.806 84.3748C145.347 78.567 136.371 81.0796 136.165 87.7936Z" fill="#49B0FC"/>
		<path d="M157.371 173.386C157.371 173.386 161.447 181.83 162.435 182.736C163.382 183.643 170.382 187.391 172.359 188.132C174.335 188.833 169.682 184.59 169.682 184.59C169.682 184.59 173.306 186.897 174.994 187.803C175.241 187.926 175.447 187.638 175.282 187.432C174.006 185.908 170.876 183.437 170.876 183.437C170.876 183.437 175.776 186.361 177.959 187.515C178.206 187.638 178.412 187.35 178.247 187.144C176.682 185.661 173.141 182.901 172.524 182.572C175.118 183.684 176.971 184.755 178.124 185.29C178.288 185.373 178.412 185.167 178.288 185.043C176.024 182.984 166.388 176.146 165.894 176.023C163.918 175.569 162.065 170.874 162.065 170.874L157.371 173.386Z" fill="#FCD2B1"/>
		<path d="M181.335 168.196L179.606 167.373L179.4 167.084C179.4 167.084 184.053 162.347 185.247 161.812C186.029 161.482 189.324 162.759 191.424 163.624C192.041 163.871 192 164.778 191.341 164.984L181.335 168.196Z" fill="#FFE4D2"/>
		<path d="M274.065 112.178H276.453V338.558H274.065V112.178Z" fill="#2A94F4"/>
		<path d="M230.706 20.8185C225.641 20.8185 221.565 24.9375 221.565 29.9627C221.565 24.8963 217.447 20.8185 212.424 20.8185C217.488 20.8185 221.565 16.6995 221.565 11.6743C221.524 16.6995 225.641 20.8185 230.706 20.8185Z" fill="#F7B01A"/>
		<path d="M235.071 20.8186C227.576 20.8186 221.524 26.8735 221.524 34.3701C221.524 26.8735 215.471 20.8186 207.976 20.8186C215.471 20.8186 221.524 14.7637 221.524 7.26709C221.524 14.7637 227.618 20.8186 235.071 20.8186Z" stroke="#F7B01A" stroke-miterlimit="10"/>
		<path d="M350.571 95.2079C347.647 95.2079 345.259 97.5969 345.259 100.48C345.259 97.5557 342.871 95.2079 339.988 95.2079C342.912 95.2079 345.259 92.8188 345.259 89.9355C345.259 92.8188 347.647 95.2079 350.571 95.2079Z" fill="#F7B01A"/>
		<path d="M353.082 95.2077C348.759 95.2077 345.259 98.7088 345.259 103.034C345.259 98.7088 341.759 95.2077 337.435 95.2077C341.759 95.2077 345.259 91.7065 345.259 87.3816C345.259 91.7065 348.759 95.2077 353.082 95.2077Z" stroke="#F7B01A" stroke-width="0.75" stroke-miterlimit="10"/>
		<path d="M210.118 216.471L267.312 243.368M206.947 221.744L244.006 292.508M218.559 228.663L267.312 292.508M229.841 233.318L268.629 262.645" stroke="#CCE9FF" stroke-miterlimit="10" stroke-dasharray="12 14"/>
		<path d="M266.035 119.839H284.277V128.942C284.277 133.968 280.2 138.045 275.177 138.045C270.153 138.045 266.077 133.968 266.077 128.942V119.839H266.035Z" fill="#0E538C"/>
		<path d="M275.259 129.19C303.503 129.19 326.4 106.285 326.4 78.0315C326.4 49.7777 303.503 26.8735 275.259 26.8735C247.014 26.8735 224.118 49.7777 224.118 78.0315C224.118 106.285 247.014 129.19 275.259 129.19Z" fill="#F7B01A"/>
		<path d="M275.259 116.421C296.454 116.421 313.635 99.2334 313.635 78.0317C313.635 56.8299 296.454 39.6426 275.259 39.6426C254.064 39.6426 236.882 56.8299 236.882 78.0317C236.882 99.2334 254.064 116.421 275.259 116.421Z" stroke="#3B2D41" stroke-miterlimit="10"/>
		<path d="M277.153 61.7615C280.612 62.4205 282.671 65.0155 282.671 69.1345V69.7935L277.894 70.2466V69.5052C277.894 67.1986 277.071 66.1276 275.259 66.1276C273.776 66.1276 272.747 67.0338 272.747 68.8874V69.5052C272.747 71.3176 273.735 72.8416 276.947 75.7661C281.353 79.8439 282.876 82.4801 282.876 86.0224V86.805C282.876 90.924 280.653 93.4366 277.153 94.0544V97.4732H273.241V94.0544C269.782 93.313 267.6 90.718 267.6 86.6814V84.8279L272.376 84.3748V86.3519C272.376 88.6586 273.323 89.7295 275.259 89.7295C276.7 89.7295 277.976 88.8233 277.976 86.9698V86.2695C277.976 84.4572 276.988 82.9331 273.776 80.0087C269.371 75.9308 267.847 73.2947 267.847 69.7523V69.0521C267.847 64.9743 269.865 62.4617 273.282 61.8027V58.8782H277.194V61.7615H277.153Z" fill="#3B2D41"/>
	</g>
	<defs>
		<clipPath id="clip0_575_235">
			<rect width="414" height="358" fill="white"/>
		</clipPath>
	</defs>
</svg>
