<svg width="416" height="365" viewBox="0 0 416 365" fill="none" xmlns="http://www.w3.org/2000/svg">
	<path d="M319.017 216.635C317.113 216.635 315.198 216.525 313.315 216.306C312.505 216.212 311.762 215.811 311.237 215.187C310.713 214.563 310.447 213.762 310.493 212.948C310.741 208.554 308.192 204.465 304.15 202.774C300.299 201.16 295.277 202.29 292.459 205.404C291.32 206.66 289.397 206.81 288.083 205.749C285.18 203.412 282.545 200.75 280.252 197.831C279.223 196.526 279.377 194.624 280.601 193.502C283.81 190.563 284.863 185.905 283.224 181.909C281.602 177.962 277.718 175.381 273.583 175.487C271.977 175.487 270.073 174.324 269.886 172.658C269.468 168.902 269.472 165.114 269.907 161.406C270.114 159.687 271.48 158.529 273.221 158.586C277.804 158.586 281.821 156.098 283.44 152.248C285.135 148.208 284.082 143.509 280.817 140.554C279.568 139.416 279.418 137.497 280.475 136.184C282.813 133.266 285.509 130.603 288.482 128.27C289.795 127.246 291.699 127.408 292.821 128.636C295.614 131.705 300.604 132.843 304.43 131.278C308.424 129.644 311.002 125.624 310.851 121.275C310.794 119.612 312.047 118.169 313.698 117.986C317.398 117.577 321.133 117.587 324.831 118.015C326.515 118.21 327.755 119.685 327.654 121.372C327.405 125.762 329.951 129.851 333.989 131.55C337.848 133.16 342.878 132.03 345.684 128.925C346.818 127.669 348.738 127.514 350.055 128.571C352.942 130.88 355.577 133.546 357.899 136.489C358.932 137.798 358.778 139.7 357.55 140.822C354.345 143.761 353.292 148.419 354.927 152.415C356.525 156.317 360.339 158.838 364.641 158.838C366.203 158.838 368.073 160 368.26 161.671C368.679 165.427 368.675 169.215 368.24 172.922C368.041 174.609 366.528 175.877 364.865 175.739L364.283 175.723C360.152 175.723 356.293 178.275 354.703 182.076C353.007 186.112 354.065 190.811 357.33 193.771C358.582 194.905 358.733 196.823 357.676 198.14C355.317 201.074 352.63 203.729 349.669 206.054C348.331 207.087 346.469 206.932 345.33 205.693C342.532 202.624 337.539 201.485 333.712 203.05C329.719 204.684 327.141 208.705 327.296 213.05C327.353 214.712 326.1 216.159 324.449 216.342C322.652 216.533 320.826 216.635 319.017 216.635ZM300.384 201.103C301.812 201.103 303.223 201.364 304.512 201.904C308.924 203.75 311.705 208.209 311.433 213.001C311.4 213.575 311.587 214.14 311.957 214.58C312.326 215.021 312.85 215.303 313.421 215.371C317.049 215.791 320.713 215.8 324.343 215.399C325.511 215.269 326.393 214.249 326.352 213.078C326.181 208.343 328.995 203.961 333.351 202.177C337.527 200.473 342.972 201.709 346.017 205.058C346.818 205.932 348.136 206.042 349.079 205.31C351.979 203.038 354.622 200.425 356.931 197.551C357.292 197.103 357.468 196.535 357.422 195.962C357.377 195.389 357.114 194.855 356.687 194.47C353.125 191.242 351.975 186.116 353.821 181.714C355.561 177.568 359.766 174.784 364.283 174.784L364.902 174.8C366.093 174.894 367.15 174.003 367.293 172.812C367.72 169.174 367.728 165.459 367.313 161.776C367.187 160.654 365.768 159.781 364.629 159.781C359.945 159.781 355.789 157.029 354.04 152.773C352.259 148.411 353.406 143.33 356.899 140.127C357.765 139.335 357.875 137.993 357.147 137.07C354.874 134.184 352.284 131.571 349.457 129.307C349.009 128.948 348.44 128.774 347.867 128.82C347.294 128.866 346.761 129.129 346.375 129.555C343.313 132.945 337.828 134.176 333.619 132.42C329.211 130.567 326.438 126.108 326.706 121.319C326.739 120.745 326.552 120.181 326.182 119.74C325.812 119.3 325.289 119.017 324.718 118.95C321.086 118.531 317.41 118.519 313.795 118.921C312.628 119.051 311.746 120.067 311.786 121.242C311.953 125.982 309.139 130.364 304.78 132.148C300.604 133.851 295.163 132.615 292.117 129.266C291.328 128.4 289.982 128.286 289.055 129.01C286.15 131.288 283.515 133.891 281.203 136.77C280.844 137.218 280.67 137.786 280.715 138.359C280.761 138.931 281.022 139.464 281.447 139.851C285.005 143.074 286.156 148.2 284.306 152.61C282.541 156.809 278.186 159.524 273.205 159.524C271.932 159.488 270.988 160.285 270.842 161.516C270.415 165.154 270.411 168.865 270.822 172.552C270.948 173.674 272.399 174.544 273.571 174.544C278.096 174.426 282.321 177.243 284.094 181.552C285.884 185.909 284.733 190.99 281.236 194.197C280.374 194.99 280.264 196.331 280.988 197.25C283.246 200.121 285.823 202.727 288.669 205.018C289.596 205.766 290.954 205.656 291.755 204.774C293.886 202.416 297.168 201.103 300.384 201.103ZM319.151 184.08C309.875 184.08 302.328 176.536 302.328 167.264C302.328 157.992 309.875 150.448 319.151 150.448C328.426 150.448 335.973 157.992 335.973 167.264C335.973 176.536 328.426 184.08 319.151 184.08ZM319.151 151.387C310.392 151.387 303.267 158.508 303.267 167.264C303.267 176.019 310.392 183.141 319.151 183.141C327.906 183.141 335.03 176.019 335.03 167.264C335.03 158.508 327.91 151.387 319.151 151.387ZM110.529 280.042C108.398 280.989 106.19 281.822 103.97 282.513C101.989 283.135 99.8627 282.099 99.1308 280.156C97.2155 275.103 92.3155 271.79 86.9398 271.908C81.8161 272.018 76.7453 275.79 75.1391 280.688C74.4885 282.664 72.4065 283.79 70.4018 283.257C65.9816 282.087 61.6956 280.412 57.6699 278.278C55.8644 277.331 55.0878 275.12 55.901 273.246C58.0318 268.348 56.8892 262.596 53.0586 258.933C49.2688 255.316 43.6246 254.356 39.0418 256.535C37.2404 257.336 34.5281 256.982 33.4871 255.206C31.1408 251.202 29.2581 246.95 27.8958 242.577C27.2696 240.548 28.2252 238.561 30.2055 237.76C35.3455 235.475 38.6108 230.683 38.505 225.557C38.3912 220.18 34.8616 215.432 29.7257 213.749C27.7576 213.099 26.6312 211.022 27.1598 209.022C28.3269 204.583 30.0185 200.254 32.1899 196.152C33.1537 194.352 35.3699 193.579 37.2363 194.396C41.9005 196.445 48.0651 195.234 51.5744 191.571C55.2382 187.746 56.1247 181.95 53.7824 177.149C52.8919 175.312 53.571 173.068 55.3358 172.04C59.2639 169.743 63.4726 167.89 67.8399 166.52C69.8243 165.902 71.9511 166.939 72.6789 168.878C74.5901 173.926 79.4861 177.243 84.8618 177.133C89.9936 177.015 95.0685 173.239 96.6666 168.357C97.3131 166.386 99.387 165.256 101.392 165.784C105.779 166.935 110.069 168.609 114.136 170.751C115.945 171.703 116.722 173.914 115.905 175.788C113.778 180.678 114.921 186.429 118.747 190.096C122.488 193.673 128.022 194.6 132.849 192.454C134.602 191.673 137.278 192.047 138.323 193.823C140.669 197.827 142.552 202.075 143.914 206.453C144.532 208.444 143.467 210.619 141.535 211.294L140.876 211.566C136.241 213.627 133.191 218.415 133.301 223.472C133.414 228.846 136.944 233.589 142.084 235.276C144.056 235.923 145.183 238 144.65 240.004C143.471 244.467 141.779 248.796 139.62 252.873C138.636 254.698 136.468 255.45 134.573 254.629C129.905 252.58 123.736 253.796 120.227 257.454C116.563 261.279 115.677 267.071 118.023 271.864C118.918 273.701 118.235 275.945 116.474 276.973C114.559 278.115 112.558 279.14 110.529 280.042ZM81.8812 271.912C83.4793 271.201 85.1912 270.786 86.9113 270.75C92.7791 270.62 98.1223 274.233 100.212 279.745C100.461 280.406 100.953 280.946 101.587 281.255C102.222 281.565 102.951 281.619 103.624 281.408C107.878 280.083 112.037 278.245 115.888 275.993C117.133 275.27 117.613 273.685 116.982 272.388C114.424 267.161 115.396 260.844 119.394 256.669C123.224 252.678 129.95 251.348 135.037 253.584C136.371 254.161 137.904 253.629 138.599 252.34C140.718 248.345 142.377 244.097 143.532 239.723C143.712 239.042 143.625 238.317 143.289 237.697C142.953 237.078 142.392 236.61 141.722 236.39C136.119 234.549 132.268 229.374 132.142 223.513C132.024 217.997 135.35 212.773 140.417 210.522L141.12 210.229C142.503 209.741 143.243 208.213 142.808 206.81C141.456 202.486 139.616 198.329 137.322 194.421C136.619 193.226 134.594 192.953 133.317 193.523C128.059 195.86 122.029 194.848 117.946 190.941C113.77 186.942 112.521 180.67 114.843 175.337C115.421 174.016 114.872 172.459 113.595 171.784C109.606 169.678 105.397 168.04 101.095 166.91C100.413 166.73 99.6872 166.818 99.0678 167.156C98.4484 167.494 97.982 168.056 97.7645 168.727C96.02 174.056 90.4856 178.17 84.8862 178.3C79.0184 178.418 73.6793 174.8 71.5973 169.296C71.0849 167.926 69.5844 167.195 68.1856 167.634C63.8996 168.975 59.7763 170.796 55.9214 173.048C54.6771 173.776 54.1972 175.357 54.8275 176.654C57.3812 181.885 56.4093 188.206 52.4121 192.38C48.5815 196.372 41.8557 197.697 36.7728 195.461C35.4553 194.884 33.8897 195.429 33.2106 196.701C31.0798 200.721 29.4207 204.965 28.2781 209.322C27.904 210.733 28.701 212.2 30.0876 212.66C35.687 214.497 39.5338 219.676 39.6599 225.545C39.7778 231.134 36.2441 236.349 30.661 238.833C29.2174 239.422 28.5546 240.788 29.0019 242.243C30.3397 246.532 32.1859 250.702 34.4875 254.633C35.1869 255.828 37.2526 256.08 38.562 255.495C43.5799 253.105 49.7242 254.157 53.8597 258.108C58.04 262.104 59.2883 268.376 56.9624 273.713C56.389 275.034 56.938 276.591 58.2107 277.262C62.1633 279.351 66.3638 280.993 70.7027 282.143C72.1178 282.517 73.5817 281.721 74.0412 280.331C75.2489 276.628 78.2784 273.514 81.8812 271.912ZM94.4341 243.463C84.0282 248.089 71.8006 243.39 67.1731 232.992C62.5455 222.59 67.2463 210.367 77.6481 205.741C88.0539 201.116 100.282 205.815 104.909 216.212C109.537 226.61 104.84 238.837 94.4341 243.463ZM78.1198 206.794C68.2994 211.16 63.863 222.7 68.2303 232.516C72.5976 242.333 84.1421 246.767 93.9624 242.402C103.783 238.036 108.219 226.496 103.852 216.68C99.4846 206.863 87.9441 202.429 78.1198 206.794Z" fill="#F7B01A"/>
	<path d="M94.9586 24.4263H314.718V347.201H94.9586V24.4263Z" fill="#DCDADD"/>
	<path d="M107.227 37.9702H302.454V333.657H107.227V37.9702Z" fill="#3B2D41"/>
	<path opacity="0.1" d="M286.189 106.393H123.492C120.809 106.393 118.613 104.198 118.613 101.516V68.2979C118.613 65.6152 120.809 63.4202 123.492 63.4202H286.193C288.876 63.4202 291.072 65.6152 291.072 68.2979V101.516C291.068 104.198 288.872 106.393 286.189 106.393ZM173.33 122.961H121.776C120.036 122.961 118.613 121.539 118.613 119.799C118.613 118.059 120.036 116.637 121.776 116.637H173.33C175.07 116.637 176.494 118.059 176.494 119.799C176.494 121.539 175.07 122.961 173.33 122.961ZM287.905 141.225H121.776C120.036 141.225 118.613 139.802 118.613 138.062C118.613 136.323 120.036 134.9 121.776 134.9H287.905C289.645 134.9 291.068 136.323 291.068 138.062C291.068 139.798 289.645 141.225 287.905 141.225ZM287.905 155.773H121.776C120.036 155.773 118.613 154.35 118.613 152.61C118.613 150.87 120.036 149.448 121.776 149.448H287.905C289.645 149.448 291.068 150.87 291.068 152.61C291.068 154.35 289.645 155.773 287.905 155.773ZM287.905 170.321H121.776C120.036 170.321 118.613 168.898 118.613 167.158C118.613 165.418 120.036 163.996 121.776 163.996H287.905C289.645 163.996 291.068 165.418 291.068 167.158C291.068 168.898 289.645 170.321 287.905 170.321ZM287.905 184.873H121.776C120.036 184.873 118.613 183.45 118.613 181.71C118.613 179.97 120.036 178.548 121.776 178.548H287.905C289.645 178.548 291.068 179.97 291.068 181.71C291.068 183.45 289.645 184.873 287.905 184.873ZM287.905 199.421H121.776C120.036 199.421 118.613 197.998 118.613 196.258C118.613 194.518 120.036 193.096 121.776 193.096H287.905C289.645 193.096 291.068 194.518 291.068 196.258C291.068 197.998 289.645 199.421 287.905 199.421ZM287.905 213.973H121.776C120.036 213.973 118.613 212.55 118.613 210.81C118.613 209.07 120.036 207.648 121.776 207.648H287.905C289.645 207.648 291.068 209.07 291.068 210.81C291.068 212.55 289.645 213.973 287.905 213.973ZM287.905 228.521H121.776C120.036 228.521 118.613 227.098 118.613 225.358C118.613 223.618 120.036 222.196 121.776 222.196H287.905C289.645 222.196 291.068 223.618 291.068 225.358C291.068 227.098 289.645 228.521 287.905 228.521ZM287.905 243.073H121.776C120.036 243.073 118.613 241.65 118.613 239.91C118.613 238.17 120.036 236.748 121.776 236.748H287.905C289.645 236.748 291.068 238.17 291.068 239.91C291.068 241.646 289.645 243.073 287.905 243.073ZM287.905 257.62H121.776C120.036 257.62 118.613 256.198 118.613 254.458C118.613 252.718 120.036 251.296 121.776 251.296H287.905C289.645 251.296 291.068 252.718 291.068 254.458C291.068 256.198 289.645 257.62 287.905 257.62ZM215.767 272.173H121.776C120.036 272.173 118.613 270.75 118.613 269.01C118.613 267.27 120.036 265.848 121.776 265.848H215.767C217.507 265.848 218.931 267.27 218.931 269.01C218.931 270.746 217.507 272.173 215.767 272.173Z" fill="#F7B01A"/>
	<path d="M267.443 324.828C281.539 324.828 292.967 313.405 292.967 299.313C292.967 285.222 281.539 273.798 267.443 273.798C253.346 273.798 241.918 285.222 241.918 299.313C241.918 313.405 253.346 324.828 267.443 324.828Z" fill="#F7B01A"/>
	<path d="M269.577 322.434C283.674 322.434 295.102 311.01 295.102 296.919C295.102 282.827 283.674 271.404 269.577 271.404C255.481 271.404 244.053 282.827 244.053 296.919C244.053 311.01 255.481 322.434 269.577 322.434Z" stroke="#F7B01A" stroke-miterlimit="10"/>
	<path d="M403.719 363.44H10.8414C8.72282 363.44 6.99054 361.708 6.99054 359.59V344.859C6.99054 342.742 8.72282 341.01 10.8414 341.01H403.715C405.834 341.01 407.566 342.742 407.566 344.859V359.59C407.57 361.704 405.838 363.44 403.719 363.44Z" fill="#DCDADD"/>
	<path d="M173.021 212.749L174.025 221.521C174.025 221.521 180.117 221.602 182.459 218.915C182.032 217.298 180.942 216.07 180.942 216.07C180.942 216.07 181.52 216.184 183.581 215.643C182.248 214.631 175.949 211.066 175.949 211.066L173.021 212.749Z" fill="#FCD2B1"/>
	<path d="M183.895 217.728C183.895 217.728 182.65 214.448 181.361 214.781C180.072 215.115 175.123 219.35 176.86 221.045C178.787 222.927 178.466 224.687 178.466 224.687C178.466 224.687 184.529 222.208 183.895 217.728Z" fill="#FCD2B1"/>
	<path d="M281.825 241.731H262.799C261.815 241.731 261.018 240.934 261.018 239.951V228.846C261.018 227.862 261.819 227.065 262.799 227.065H281.825C282.809 227.065 283.606 227.866 283.606 228.846V239.951C283.606 240.934 282.805 241.731 281.825 241.731ZM263.457 239.292H281.167V229.504H263.457V239.292Z" fill="#9ACFF7"/>
	<path d="M291.837 236.211V258.076C291.837 259.071 291.023 259.884 290.027 259.884H254.593C253.596 259.884 252.783 259.071 252.783 258.076V236.211C252.783 235.215 253.596 234.402 254.593 234.402H290.027C291.023 234.402 291.837 235.215 291.837 236.211Z" fill="#CCE9FF"/>
	<path d="M291.837 236.211V247.145H252.783V236.211C252.783 235.215 253.596 234.402 254.593 234.402H290.027C291.023 234.402 291.837 235.215 291.837 236.211Z" fill="#9ACFF7"/>
	<path d="M267.443 245.503H277.177V250.527H267.443V245.503Z" fill="#2A94F4"/>
	<path d="M227.328 215.838L222.871 345.396H232.15C232.15 345.396 245.976 284.871 239.433 274.717C245.512 256.031 255.125 216.513 255.125 216.513L227.328 215.838Z" fill="#0D517F"/>
	<path d="M229.991 216.513L236.546 230.077L263.047 348.005H272.31C272.31 348.005 272.237 288.338 262.233 278.144C261.054 256.149 262.721 227.13 257.968 212.131C238.998 207.867 229.991 216.513 229.991 216.513Z" fill="#0E538C"/>
	<path d="M237.254 155.366C229.568 168.727 217.267 190.827 203.397 197.864C204.231 200.892 206.008 203.607 206.008 203.607C206.008 203.607 227.897 195.786 234.916 184.763C241.934 173.739 237.254 155.366 237.254 155.366Z" fill="#0B3A54"/>
	<path d="M272.074 220.675C270.626 221.521 267.447 232.732 267.447 232.732C267.447 232.732 273.205 233.992 276.592 231.171C278.735 224.513 274.335 217.741 274.335 217.741L272.074 220.675ZM241.1 130.111C240.897 132.371 239.437 140.217 239.437 140.217L255.129 132.241L254.381 130.229L250.307 121.738C250.307 121.738 246.354 121.872 245.956 121.738C245.553 121.604 241.1 130.111 241.1 130.111Z" fill="#FCD2B1"/>
	<path d="M257.87 97.1213C261.823 104.288 266.767 99.5927 263.677 108.361C264.645 109.844 269.98 113.055 259.106 124.047C255.646 129.607 254.377 130.221 254.377 130.221C254.377 130.221 251.876 126.607 250.303 123.656L242.918 101.316L257.87 97.1213Z" fill="#0E538C"/>
	<path d="M234.875 105.202C234.875 105.202 226.815 111.995 231.398 130.798C237.88 131.746 243.886 129.217 243.886 129.217L250.303 123.665C250.303 123.665 248.945 103.621 242.146 102.833C235.351 102.04 234.875 105.202 234.875 105.202Z" fill="#FFE3CA"/>
	<path d="M243.166 106.385C238.221 106.633 225.465 101.442 229.991 95.7637C234.517 90.0852 239.092 97.4913 242.178 96.3816C245.268 95.2678 253.918 89.9592 257.87 97.1214C257.87 97.1214 260.095 105.767 243.166 106.385Z" fill="#0E538C"/>
	<path d="M252.279 116.699C253.61 114.846 253.706 112.639 252.494 111.77C251.282 110.902 249.222 111.7 247.892 113.553C246.562 115.406 246.466 117.613 247.677 118.482C248.889 119.351 250.949 118.553 252.279 116.699Z" fill="#FFE3CA"/>
	<path d="M242.918 104.381C242.215 110.182 242.56 113.438 243.5 114.393C244.122 115.824 244.528 118.445 244.528 118.445H246.907C246.907 118.445 250.254 111.738 250.303 109.592C250.347 107.446 249.29 102.702 249.29 102.702L242.918 104.381Z" fill="#0E538C"/>
	<path d="M257.968 140.216V130.229C257.968 130.229 237.298 137.611 236.131 140.216C234.964 142.822 225.396 169.934 225.396 169.934C225.396 169.934 225.359 230.642 225.429 232.732C229.214 227.858 240.145 217.993 240.145 217.993L265.836 232.732C265.836 232.732 257.492 201.071 257.118 198.912C256.744 196.754 262.229 174.958 262.229 174.958L257.968 140.216Z" fill="#0B4870"/>
	<path d="M256.87 141.343C247.635 142.282 244.057 145.672 244.057 149.44C250.087 162.813 273.827 185.299 270.627 221.521C273.64 221.765 277.787 221.521 277.787 221.521C277.787 221.521 291.349 175.812 256.87 141.343Z" fill="#125D87"/>
	<path d="M206.264 200.428C206.178 200.372 206.097 200.319 206.02 200.262C204.54 199.254 203.97 198.672 203.397 197.86C202.795 197.006 200.298 195.433 199.095 196.591C197.891 197.746 197.781 200.014 198.066 200.867C198.355 201.721 197.985 205.371 198.586 206.066C199.188 206.761 201.408 208.054 203.259 207.867C205.109 207.684 206.264 205.696 206.678 203.985C207.097 202.278 206.264 200.428 206.264 200.428Z" fill="#EDBC9A"/>
	<path d="M222.871 345.624L201.872 354.782H232.829L232.154 345.624H222.871ZM262.762 345.624L241.759 354.782H272.717L272.042 345.624H262.762Z" fill="#0B4870"/>
	<path d="M312.665 52.4288H261.522C255.817 52.4288 251.153 57.0952 251.153 62.794V75.4884C251.153 81.1914 255.821 85.8537 261.522 85.8537H264.34L259.078 94.8573L271.733 85.8537H312.665C318.37 85.8537 323.034 81.1873 323.034 75.4884V62.794C323.034 57.0911 318.37 52.4288 312.665 52.4288ZM251.803 6.90698H227.067C215.076 6.90698 205.267 16.7154 205.267 28.6984C205.267 40.6124 214.958 50.3639 226.848 50.4858C232.411 54.0588 239.437 58.4935 239.437 58.4935L235.2 50.4899H251.807C263.799 50.4899 273.607 40.6815 273.607 28.6984C273.607 16.7154 263.795 6.90698 251.803 6.90698Z" fill="#F7B01A"/>
	<path d="M161.973 108.609C159.053 104.117 155.552 99.2188 150.274 98.3002C147.041 97.7351 143.751 98.8204 140.758 100.166C135.517 102.519 130.385 106.048 128.242 111.377C126.152 116.58 127.29 122.429 128.031 127.985C128.771 133.542 128.897 139.765 125.326 144.086C121.488 148.724 114.807 149.541 109.467 152.326C104.315 155.016 100.282 159.78 98.4923 165.313C97.5936 168.085 97.2643 171.19 98.4191 173.865C99.6797 176.775 102.485 178.718 105.369 180.043C117.641 185.681 132.987 182.117 142.95 172.999C152.913 163.882 157.792 150.082 157.931 136.583C157.979 131.778 157.483 126.892 158.626 122.226C159.264 119.616 160.399 117.149 160.985 114.527L161.973 108.609Z" fill="#0E538C"/>
	<path d="M144.353 161.589C152.953 182.243 163.123 201.664 173.139 214.517C177.039 214.733 179.304 212.529 179.304 212.529C179.304 212.529 157.923 174.983 159.537 163.439C161.155 151.891 144.353 161.589 144.353 161.589Z" fill="#1989DD"/>
	<path d="M170.647 192.868L190.22 204.421L174.259 231.443L154.685 219.89L170.647 192.868Z" fill="#CCE9FF"/>
	<path d="M171.137 194.581L188.488 204.822L174.056 229.253L156.706 219.012L171.137 194.581Z" fill="#DCDADD"/>
	<path d="M176.726 195.185L185.245 200.213C185.357 200.279 185.454 200.366 185.533 200.47C185.611 200.574 185.668 200.692 185.7 200.817C185.733 200.943 185.74 201.074 185.722 201.203C185.704 201.331 185.66 201.455 185.594 201.567L184.224 203.888C184.158 204 184.071 204.097 183.967 204.176C183.863 204.254 183.745 204.311 183.619 204.343C183.494 204.376 183.363 204.383 183.234 204.365C183.105 204.347 182.982 204.303 182.87 204.237L174.351 199.209C174.239 199.143 174.141 199.056 174.063 198.952C173.985 198.849 173.928 198.731 173.895 198.605C173.863 198.479 173.855 198.348 173.873 198.22C173.892 198.091 173.935 197.967 174.001 197.856L175.371 195.535C175.652 195.063 176.258 194.904 176.726 195.185Z" fill="#0E538C"/>
	<path d="M170.122 198.969L185.123 207.823C185.322 207.94 185.387 208.196 185.269 208.396C185.151 208.595 184.895 208.66 184.696 208.542L169.695 199.689C169.495 199.571 169.43 199.315 169.548 199.116C169.662 198.917 169.922 198.851 170.122 198.969ZM168.735 201.319L183.736 210.172C183.935 210.29 184 210.546 183.882 210.745C183.764 210.944 183.508 211.009 183.309 210.891L168.308 202.038C168.109 201.92 168.044 201.664 168.162 201.465C168.276 201.266 168.536 201.201 168.735 201.319ZM167.348 203.664L182.349 212.517C182.549 212.635 182.614 212.891 182.496 213.091C182.378 213.29 182.122 213.355 181.922 213.237L166.921 204.384C166.722 204.266 166.657 204.01 166.775 203.811C166.889 203.611 167.149 203.546 167.348 203.664ZM165.962 206.014L180.963 214.867C181.162 214.985 181.227 215.241 181.109 215.44C180.991 215.639 180.735 215.704 180.536 215.586L165.535 206.733C165.336 206.615 165.27 206.359 165.388 206.16C165.502 205.961 165.763 205.896 165.962 206.014ZM164.575 208.359L179.576 217.212C179.775 217.33 179.84 217.586 179.722 217.785C179.604 217.985 179.348 218.05 179.149 217.932L164.148 209.079C163.949 208.961 163.884 208.705 164.002 208.505C164.116 208.31 164.376 208.241 164.575 208.359ZM163.188 210.709L178.189 219.562C178.389 219.68 178.454 219.936 178.336 220.135C178.218 220.334 177.962 220.399 177.762 220.281L162.762 211.428C162.562 211.31 162.497 211.054 162.615 210.855C162.729 210.656 162.989 210.591 163.188 210.709ZM161.684 212.985L171.834 218.976C171.968 219.058 171.984 219.281 171.866 219.48C171.748 219.68 171.545 219.777 171.407 219.696L161.257 213.704C161.123 213.623 161.106 213.399 161.224 213.2C161.342 213.005 161.55 212.908 161.684 212.985Z" fill="#CCE9FF"/>
	<path d="M172.891 226.98C174.247 226.98 175.347 225.881 175.347 224.525C175.347 223.169 174.247 222.07 172.891 222.07C171.534 222.07 170.435 223.169 170.435 224.525C170.435 225.881 171.534 226.98 172.891 226.98Z" fill="#F7B01A"/>
	<path d="M150.896 339.677L155.869 346.839C156.971 348.424 158.382 349.77 160.017 350.79L166.417 354.782H150.412L145.211 348.676V354.782H142.836V339.677H150.896Z" fill="#F7B01A"/>
	<path d="M158.402 264.116C157.65 266.815 150.896 339.404 150.896 339.404C150.896 339.404 142.637 341.766 142.889 339.404C143.141 337.043 134.382 278.973 145.642 264.116C153.397 258.039 158.402 264.116 158.402 264.116Z" fill="#F7C39F"/>
	<path d="M146.764 339.677L151.738 346.839C152.84 348.424 154.251 349.77 155.885 350.79L162.286 354.782H146.281L141.08 348.676V354.782H138.705V339.677H146.764Z" fill="#F7B01A"/>
	<path d="M154.271 264.116C153.519 266.815 146.764 339.404 146.764 339.404C146.764 339.404 138.506 341.766 138.758 339.404C139.01 337.043 130.251 278.973 141.511 264.116C149.265 258.039 154.271 264.116 154.271 264.116Z" fill="#FCD2B1"/>
	<path d="M142.06 198.335C136.261 204.733 127.88 211.216 134.293 230.744C137.135 239.406 137.473 248.69 135.444 257.576C132.853 268.929 130.552 282.863 130.552 282.863L159.671 283.68C159.671 283.68 168.82 216.151 161.977 198.335C153.482 195.177 142.06 198.335 142.06 198.335Z" fill="#0E538C"/>
	<path d="M153.384 142.359C156.8 147.322 168.394 164.967 167.731 167.426C166.942 170.361 161.969 198.335 161.969 198.335H142.056C142.056 198.335 144.569 191.925 142.47 187.653C140.372 183.381 123.667 153.252 144.845 137.692C148.497 139.083 153.384 142.359 153.384 142.359Z" fill="#2A94F4"/>
	<path d="M154.43 134.822C153.974 138.359 153.405 141.094 154.999 146.228C150.322 144.176 145.187 139.956 144.845 138.359C146.443 134.595 148.155 132.156 146.785 128.928C149.066 129.233 154.43 134.822 154.43 134.822Z" fill="#FCD2B1"/>
	<path d="M162.143 111.832C164.177 118.742 163.672 138.493 158.325 137.668C152.978 136.847 146.606 134.172 144.137 127.392C141.673 120.612 146.427 99.9709 162.143 111.832Z" fill="#FFE3CA"/>
	<path d="M144.051 128.85C144.996 128.304 145.055 126.638 144.182 125.127C143.31 123.616 141.836 122.834 140.891 123.379C139.946 123.925 139.887 125.592 140.759 127.102C141.632 128.613 143.105 129.395 144.051 128.85Z" fill="#FFE3CA"/>
	<path d="M139.229 126.396C151.359 123.108 160.972 116.706 163.25 110.747C165.523 104.788 150.103 101.702 147.021 105.198C143.938 108.694 132.898 119.189 139.229 126.396Z" fill="#0E538C"/>
	<path d="M144.097 130.965C145.222 130.965 146.134 130.053 146.134 128.929C146.134 127.804 145.222 126.892 144.097 126.892C142.972 126.892 142.06 127.804 142.06 128.929C142.06 130.053 142.972 130.965 144.097 130.965Z" fill="#F7B01A"/>
	<path d="M146.134 141.411C141.629 140.448 135.74 149.939 136.31 151.927C136.879 153.915 151.465 208.692 196.224 204.997C196.366 204.428 196.224 200.453 196.224 200.453C196.224 200.453 158.862 205.457 146.134 141.411Z" fill="#34A2F4"/>
	<path d="M111.541 47.5511H83.8086C70.8856 47.5511 60.4066 58.0261 60.4066 70.9441C60.4066 83.8621 70.8856 94.3371 83.8086 94.3371H92.5554C99.4154 99.4465 115.522 111.397 114.892 110.531C114.343 109.775 108.585 100.251 105.023 94.3371H111.541C124.464 94.3371 134.943 83.8621 134.943 70.9441C134.943 58.0261 124.464 47.5511 111.541 47.5511ZM172.688 25.6255C172.688 11.7361 161.424 0.476562 147.529 0.476562C133.634 0.476562 122.37 11.7361 122.37 25.6255C122.37 39.515 133.634 50.7745 147.529 50.7745C149.098 50.7745 150.632 50.6241 152.12 50.3477L149.379 63.4242L165.758 42.9538L165.746 42.9579C170.049 38.4459 172.688 32.3447 172.688 25.6255Z" fill="#F7B01A"/>
	<path d="M195.874 201.258C196.244 201.148 198.196 201.006 198.424 200.689C198.651 200.372 199.473 198.002 200.156 197.868C200.839 197.73 201.433 201.685 200.156 203.758C198.928 205.38 197.789 204.558 197.423 204.603C197.057 204.648 195.236 204.558 195.236 204.558L195.874 201.258Z" fill="#FCD2B1"/>
	<path d="M375.673 362.651C383.749 362.651 387.157 356.204 388.503 349.363C390.02 341.648 388.905 333.433 388.905 333.433H362.445C362.445 333.433 362.405 333.746 362.348 334.307C361.852 339.164 360.258 362.651 375.673 362.651Z" fill="#B6E7FF"/>
	<path d="M362.441 333.437C362.441 334.014 368.366 334.482 375.673 334.482C382.981 334.482 388.905 334.014 388.905 333.437C388.905 332.86 382.981 332.393 375.673 332.393C368.366 332.389 362.441 332.856 362.441 333.437Z" fill="#85DDFF"/>
	<path d="M339.844 260.104C339.844 260.104 353.8 281.326 362.173 294.281C370.546 307.236 372.737 309.922 373.734 314.109C374.73 318.292 375.629 333.738 375.629 333.738H376.247C376.247 333.738 376.031 320.629 375.275 316.219C374.547 311.955 375.328 310.422 375.926 305.939C376.523 301.455 377.32 294.281 372.786 289.298C368.252 284.314 369.448 279.432 367.854 276.148C366.26 272.859 353.898 268.876 352.304 265.486C350.71 262.096 343.732 260.003 339.844 260.104Z" fill="#2A94F4"/>
	<path d="M339.844 260.104C339.844 260.104 344.232 265.087 347.221 266.778C350.21 268.473 351.609 266.978 353.898 271.063C356.191 275.148 356.277 276.94 358.379 279.034C360.477 281.127 362.97 281.225 363.169 285.81C363.369 290.391 362.173 294.277 362.173 294.277C362.173 294.277 340.743 261.202 339.844 260.104Z" fill="#41AAF7"/>
	<path d="M374.523 333.734H373.896C373.896 333.734 373.709 329.49 372.022 327.43C370.936 326.1 366.317 324.592 361.75 322.783C359.237 321.788 356.736 320.702 354.854 319.503C349.543 316.133 344.488 305.272 344.053 303.337C343.899 302.663 343.834 302.256 343.838 301.976V301.968C343.85 301.447 344.106 301.37 344.553 300.846C344.769 300.594 345.415 300.679 346.204 300.919C348.494 301.618 350.425 303.183 351.621 305.256C352.727 307.171 354.496 309.565 356.663 310.146C360.408 311.146 360.099 311.768 361.482 315.577C362.86 319.385 366.345 320.007 370.712 324.503C375.084 328.99 374.523 333.734 374.523 333.734Z" fill="#2A94F4"/>
	<path d="M361.75 322.783C359.237 321.787 356.736 320.702 354.854 319.503C349.543 316.133 344.488 305.272 344.053 303.337C343.899 302.663 343.834 302.256 343.838 301.976C343.854 302.102 344.098 303.821 346.863 304.963C349.734 306.146 350.295 306.146 350.669 307.959C351.043 309.768 351.361 311.703 352.857 312.077C354.357 312.451 355.293 310.768 356.476 313.511C357.663 316.255 358.229 317.194 359.318 317.568C360.408 317.942 361.238 317.381 361.482 319.503C361.628 320.8 361.709 322.027 361.75 322.783Z" fill="#41AAF7"/>
	<path d="M379.11 333.734H379.85C379.85 333.734 381.297 307.459 383.294 305.02C384.579 303.447 388.824 300.622 394.236 298.48C397.213 297.301 400.173 296.012 402.406 294.594C408.692 290.602 414.682 277.737 415.199 275.445C415.382 274.648 415.459 274.164 415.455 273.831V273.823C415.443 273.205 415.134 273.111 414.609 272.494C414.357 272.193 413.588 272.298 412.653 272.583C409.941 273.408 407.656 275.266 406.236 277.717C404.927 279.985 402.829 282.822 400.263 283.505C395.826 284.688 396.192 285.428 394.558 289.936C392.923 294.448 388.8 295.183 383.623 300.504C378.443 305.833 379.11 333.734 379.11 333.734Z" fill="#2A94F4"/>
	<path d="M394.236 298.484C397.213 297.305 400.173 296.017 402.406 294.598C408.692 290.606 414.682 277.741 415.199 275.449C415.382 274.652 415.459 274.168 415.455 273.835C415.439 273.985 415.146 276.022 411.868 277.375C408.469 278.778 407.802 278.778 407.359 280.924C406.915 283.066 406.541 285.359 404.768 285.802C402.995 286.245 401.885 284.249 400.482 287.501C399.075 290.753 398.405 291.862 397.115 292.305C395.822 292.749 394.842 292.082 394.554 294.598C394.383 296.13 394.285 297.586 394.236 298.484Z" fill="#41AAF7"/>
	<path d="M375.673 362.651C383.749 362.651 387.157 356.204 388.503 349.363C380.586 346.363 370.615 341.555 362.344 334.307C361.852 339.165 360.258 362.651 375.673 362.651Z" fill="#CCE9FF"/>
	<path d="M35.3739 359.35C29.6443 359.35 27.2248 354.778 26.2733 349.924C25.1998 344.449 25.9887 338.624 25.9887 338.624H44.7632C44.7632 338.624 44.7916 338.848 44.8323 339.242C45.182 342.689 46.3084 359.35 35.3739 359.35Z" fill="#B6E7FF"/>
	<path d="M44.7591 338.624C44.7591 339.034 40.5545 339.368 35.3698 339.368C30.1852 339.368 25.9805 339.034 25.9805 338.624C25.9805 338.213 30.1852 337.88 35.3698 337.88C40.5585 337.88 44.7591 338.213 44.7591 338.624Z" fill="#85DDFF"/>
	<path d="M12.0003 286.599C12.0003 286.599 21.902 301.655 27.8389 310.845C33.7799 320.036 35.3332 321.942 36.0408 324.913C36.7483 327.881 37.3827 338.839 37.3827 338.839H38.1594C38.1594 338.839 38.6555 329.58 37.7365 326.539C36.8175 323.499 37.1712 322.3 37.5941 319.117C38.017 315.934 38.5823 310.845 35.3658 307.313C32.1493 303.78 32.9951 300.313 31.8646 297.984C30.7341 295.651 21.963 292.826 20.8325 290.419C19.7102 288.013 14.7614 286.529 12.0003 286.599Z" fill="#2A94F4"/>
	<path d="M12.0003 286.598C12.0003 286.598 15.1111 290.135 17.2337 291.334C19.3564 292.537 20.3445 291.476 21.9711 294.374C23.5976 297.273 23.6586 298.545 25.151 300.029C26.6393 301.512 28.4082 301.585 28.5505 304.837C28.6928 308.089 27.8429 310.845 27.8429 310.845C27.8429 310.845 12.6387 287.375 12.0003 286.598Z" fill="#41AAF7"/>
	<path d="M35.0567 338.835H34.3491C34.3491 338.835 34.1377 334.031 32.2265 331.697C30.9944 330.193 25.765 328.482 20.5926 326.433C17.7461 325.303 14.9159 324.076 12.781 322.718C6.77092 318.901 1.04138 306.601 0.549349 304.41C0.374495 303.646 0.297233 303.183 0.3013 302.866V302.858C0.313499 302.268 0.606279 302.179 1.11051 301.585C1.35449 301.297 2.08644 301.398 2.98105 301.671C5.5754 302.459 7.75905 304.236 9.11722 306.581C10.3697 308.752 12.3744 311.463 14.8305 312.117C19.0717 313.251 18.722 313.954 20.2876 318.267C21.8491 322.58 25.7935 323.283 30.7423 328.372C35.691 333.461 35.0567 338.835 35.0567 338.835Z" fill="#2A94F4"/>
	<path d="M20.5926 326.434C17.7461 325.303 14.9159 324.076 12.781 322.718C6.77092 318.901 1.04138 306.601 0.549349 304.41C0.374495 303.646 0.297233 303.183 0.3013 302.866C0.317565 303.012 0.598146 304.955 3.72926 306.252C6.9783 307.593 7.61673 307.593 8.03963 309.646C8.46253 311.695 8.82038 313.885 10.5161 314.312C12.2117 314.735 13.2731 312.829 14.615 315.938C15.9609 319.048 16.5994 320.109 17.8356 320.531C19.0717 320.954 20.007 320.32 20.2835 322.722C20.4502 324.186 20.5438 325.58 20.5926 326.434Z" fill="#41AAF7"/>
	<path d="M35.3739 359.35C29.6443 359.35 27.2248 354.777 26.2733 349.924C31.889 347.794 38.9645 344.384 44.8323 339.242C45.182 342.689 46.3084 359.35 35.3739 359.35Z" fill="#CCE9FF"/>
</svg>