<svg width="1029" height="763" viewBox="0 0 1029 763" fill="none" xmlns="http://www.w3.org/2000/svg">
	<path fill-rule="evenodd" clip-rule="evenodd" d="M202.169 171.659H887.697C896.647 171.659 904.091 178.94 903.933 187.804L897.835 610.409C897.676 619.273 890.549 626.554 881.599 626.554H208.346C199.397 626.554 192.269 619.273 192.111 610.409L186.013 187.804C185.854 178.94 193.22 171.659 202.169 171.659Z" fill="#A3CFFB"/>
	<path fill-rule="evenodd" clip-rule="evenodd" d="M207.475 193.106L213.415 605.107H876.531L882.471 193.106H207.475Z" fill="#F7B01A"/>
	<path fill-rule="evenodd" clip-rule="evenodd" d="M222.047 207.43L227.591 590.782H862.354L867.898 207.43H222.047Z" fill="#4E3A3D"/>
	<path fill-rule="evenodd" clip-rule="evenodd" d="M61.1984 729.356H284.455H805.491H1028.67L901.636 626.554H805.491H284.455H188.309L61.1984 729.356Z" fill="#CCE9FF"/>
	<path fill-rule="evenodd" clip-rule="evenodd" d="M61.1984 729.356H1028.67C1028.67 738.061 1022.49 745.817 1014.25 747.637H75.6914C67.455 745.817 61.1984 738.061 61.1984 729.356Z" fill="#71AEEC"/>
	<path fill-rule="evenodd" clip-rule="evenodd" d="M416.317 691.369H448.867H641.078H673.628L682.102 706.959H641.078H448.867H407.843L416.317 691.369Z" fill="#F7B01A"/>
	<path fill-rule="evenodd" clip-rule="evenodd" d="M510.245 425.618L514.918 408.128C521.016 411.689 530.282 415.172 540.102 415.172C551.348 415.172 556.813 409.078 556.813 401.243C556.813 393.25 551.665 388.106 537.251 381.854C522.045 374.652 511.275 366.58 511.275 350.752C511.275 335.478 521.095 323.607 537.726 319.808V302.081H553.091V318.621C563.069 318.938 570.435 321.549 575.583 324.24L570.91 341.255C566.237 338.881 558.555 335.636 549.527 335.636C539.073 335.636 533.767 342.047 533.767 348.14C533.767 355.342 540.498 359.695 552.853 365.788C571.306 374.098 579.701 382.803 579.701 399.027C579.701 414.934 569.405 427.755 551.744 431.158V450.23H536.459V432.424C526.401 432.187 516.185 429.021 510.245 425.618ZM545.012 475.793C600.054 475.793 644.721 431.158 644.721 376.156C644.721 321.075 600.054 276.519 545.012 276.519C489.891 276.519 445.304 321.154 445.304 376.156C445.224 431.237 489.891 475.793 545.012 475.793ZM454.411 486.714H635.535C638.702 486.714 641.316 489.325 641.316 492.491V511.168C641.316 514.333 638.702 516.945 635.535 516.945H454.411C451.243 516.945 448.63 514.333 448.63 511.168V492.491C448.709 489.246 451.243 486.714 454.411 486.714ZM454.411 522.247H635.535C638.702 522.247 641.316 524.859 641.316 528.025V546.702C641.316 549.867 638.702 552.479 635.535 552.479H454.411C451.243 552.479 448.63 549.867 448.63 546.702V528.025C448.709 524.859 451.243 522.247 454.411 522.247Z" fill="#DCDADD"/>
	<path fill-rule="evenodd" clip-rule="evenodd" d="M376.006 199.279L395.568 243.043L423.762 204.265L451.877 165.407L404.2 160.421L356.524 155.515L376.006 199.279Z" fill="#F7B01A"/>
	<path fill-rule="evenodd" clip-rule="evenodd" d="M710.296 207.638C703.089 259.317 670.064 300.944 626.031 321.52L642.504 356.5C697.942 330.621 739.52 278.073 748.628 213.02C762.883 110.851 691.527 16.4371 589.283 2.19201C488.149 -11.974 394.697 57.5106 378.778 157.86L383.5 162L391 160L397 163.5L404 161L410 166L417.347 161.817C430.89 83.3892 504.464 29.2578 583.898 40.3373C664.996 51.7334 721.542 126.599 710.296 207.638Z" fill="#F7B01A"/>
	<path d="M783.34 448.124C889.413 448.124 975.34 362.135 975.264 256.062C975.187 149.989 889.135 64 783.062 64C676.989 64 591.062 149.989 591.139 256.062C591.216 362.135 677.267 448.124 783.34 448.124Z" fill="#2A94F4"/>
	<path fill-rule="evenodd" clip-rule="evenodd" d="M622.59 283.666C607.305 195.03 666.861 110.746 755.641 95.4721C844.341 80.1981 928.686 139.711 943.971 228.427C959.256 317.063 899.7 401.347 810.92 416.621C722.141 431.815 637.796 372.302 622.59 283.666Z" fill="#A3CFFB"/>
	<path fill-rule="evenodd" clip-rule="evenodd" d="M843.708 104.573C863.982 126.811 878.396 154.827 883.861 186.72C899.146 275.357 839.59 359.64 750.81 374.914C720.002 380.216 689.749 376.497 662.664 365.655C698.857 405.304 753.978 426.197 810.841 416.462C899.542 401.188 959.098 316.984 943.892 228.268C933.913 170.338 894.473 124.912 843.708 104.573Z" fill="#8AB9E8"/>
	<path fill-rule="evenodd" clip-rule="evenodd" d="M653.239 293.558C639.776 215.289 692.363 140.898 770.688 127.444C816.464 119.61 860.894 134.25 892.652 163.453C860.814 125.149 810.049 104.494 757.462 113.516C679.137 126.97 626.55 201.361 640.013 279.63C645.636 312.156 661.713 340.251 684.284 360.985C668.683 342.15 657.674 319.279 653.239 293.558Z" fill="#D1E4F6"/>
	<path fill-rule="evenodd" clip-rule="evenodd" d="M778.608 150.158L782.093 170.576C790.567 170.497 797.694 172.079 803.634 175.245C809.574 178.49 815.593 183.871 821.849 191.548L803.476 206.426C795.398 196.375 786.448 192.181 776.549 193.843C770.451 194.872 765.62 197.562 762.214 201.915C758.809 206.189 757.542 211.095 758.492 216.556C759.363 221.462 761.66 225.34 765.54 228.031C769.263 230.643 776.39 233.333 786.924 236.103C796.031 238.477 803.555 240.852 809.653 243.305C815.751 245.758 820.424 248.291 823.75 250.902C833.095 258.025 838.798 267.601 840.857 279.63C842.916 291.422 841.174 302.501 835.63 312.79C830.165 322.999 821.77 330.675 810.524 335.819L814.247 357.424L795.952 360.59L792.309 339.618C778.291 339.776 767.045 336.848 758.65 330.912C750.255 324.977 743.049 314.847 737.03 300.444L759.205 291.659C764.194 301.71 769.263 308.595 774.569 312.315C780.034 315.797 786.686 316.905 794.606 315.559C802.288 314.214 808.228 310.653 812.583 304.876C816.86 299.098 818.286 292.372 816.939 284.695C815.751 277.81 812.663 272.666 807.673 269.184C805.139 267.522 801.575 265.781 796.902 263.96C792.23 262.14 786.369 260.32 779.321 258.421C764.748 254.701 754.928 250.665 749.78 246.312C741.702 239.902 736.792 231.355 734.97 220.829C734.099 215.844 734.099 211.016 734.97 206.426C735.842 201.836 737.505 197.562 739.881 193.526C742.336 189.49 745.504 185.771 749.543 182.447C753.582 179.123 758.254 176.195 763.64 173.82L760.155 153.402L778.608 150.158Z" fill="#F7B01A"/>
	<path fill-rule="evenodd" clip-rule="evenodd" d="M403.408 311.103C403.408 311.103 400.795 324.24 401.587 335.399C407.447 463.921 343.615 472.785 375.452 317.434C377.273 308.412 381.154 301.21 381.788 298.124C384.48 284.67 398.34 279.684 411.328 282.059C418.693 283.404 427.088 288.231 427.959 302.872C432.79 334.212 436.275 340.226 439.205 345.37C436.433 347.507 435.166 347.032 433.899 344.658C432.79 342.521 431.998 340.068 431.682 339.435C431.682 339.435 433.662 346.874 434.216 347.27C470.726 507.686 396.518 367.371 403.408 311.103Z" fill="#0E538C"/>
	<path fill-rule="evenodd" clip-rule="evenodd" d="M412.516 287.994C426.375 293.692 423.049 299.39 427.326 305.801C427.326 305.801 429.306 292.03 422.336 285.62C412.437 277.39 409.19 286.174 412.516 287.994Z" fill="#0E538C"/>
	<path fill-rule="evenodd" clip-rule="evenodd" d="M417.901 292.268C417.901 292.268 415.605 312.844 402.695 321.074C402.695 321.074 414.733 306.988 414.1 293.692C413.466 280.476 417.901 292.268 417.901 292.268ZM412.199 285.303C414.1 285.462 415.209 284.828 415.446 283.562C414.021 281.109 412.12 279.684 409.665 279.209C410.378 279.763 410.932 280.792 411.486 282.296C411.724 283.166 411.962 284.195 412.199 285.303Z" fill="#0E538C"/>
	<path fill-rule="evenodd" clip-rule="evenodd" d="M414.575 284.908C413.149 285.066 412.278 284.67 412.041 283.72C412.991 281.821 414.417 280.634 416.238 280.159C415.446 280.871 414.892 282.454 414.575 284.908Z" fill="#0E538C"/>
	<path fill-rule="evenodd" clip-rule="evenodd" d="M442.452 639.374C440.789 652.432 437.384 664.066 436.909 665.411C436.671 666.044 434.374 668.577 434.057 669.21C436.117 684.879 446.175 693.743 455.52 699.837C453.144 692.002 448.392 683.138 448.867 681.318C449.659 678.469 452.51 665.411 459.163 648.871C451.718 648.475 448.788 643.885 442.452 639.374Z" fill="#FFE3CA"/>
	<path fill-rule="evenodd" clip-rule="evenodd" d="M420.198 448.489L370.858 482.598C370.858 482.598 392.558 507.448 400.636 516.708C408.794 525.967 450.61 560.155 451.243 562.213C451.402 562.609 448.709 567.12 447.521 572.976C444.353 588.725 439.839 619.431 437.225 645.784C441.819 651.403 452.59 653.461 458.925 655.598C477.299 624.258 487.753 562.292 488.307 554.774C489.099 542.507 420.198 448.489 420.198 448.489Z" fill="#0E538C"/>
	<path fill-rule="evenodd" clip-rule="evenodd" d="M278.436 520.032C280.178 521.298 293.166 540.212 298.472 550.579C303.541 545.989 306.392 541.003 312.332 537.521C306.313 530.794 294.117 514.333 292.77 510.218C289.444 500.405 287.068 499.218 287.068 499.218C287.068 499.218 256.023 515.916 254.281 519.477C252.538 523.118 271.466 514.729 278.436 520.032Z" fill="#FFE3CA"/>
	<path fill-rule="evenodd" clip-rule="evenodd" d="M293.483 512.434C296.017 512.038 291.582 500.563 290.632 497.872C289.523 494.865 287.702 494.232 287.226 494.153C286.038 494.073 251.509 512.592 246.044 518.211C245.648 518.607 245.094 519.715 244.935 519.952C242.48 527.075 272.575 523.513 276.535 519.952C280.019 516.866 282.079 514.254 293.483 512.434Z" fill="#0E538C"/>
	<path fill-rule="evenodd" clip-rule="evenodd" d="M429.464 460.044L389.707 440.101C389.866 440.18 389.311 441.842 389.311 441.921C388.678 443.899 382.5 438.993 381.312 441.129C375.373 451.101 363.018 453.396 354.148 476.505C346.941 495.261 345.357 559.918 345.357 559.918C345.357 559.918 327.3 544.486 308.293 528.104C306.55 526.6 290.949 541.478 290.949 541.478C314.866 589.358 355.811 610.172 361.355 608.43C380.204 602.574 416.634 481.807 416.634 481.807C420.594 474.764 429.464 460.044 429.464 460.044Z" fill="#0E538C"/>
	<path fill-rule="evenodd" clip-rule="evenodd" d="M370.779 351.702C370.779 351.702 321.202 337.852 310.114 335.399C299.027 333.025 260.933 317.592 259.428 316.959C258.003 316.247 253.409 295.433 251.113 296.858C248.816 298.282 253.964 307.383 251.192 308.491C248.42 309.599 225.532 298.203 225.294 300.182C224.819 303.822 238.996 307.7 238.441 309.362C237.887 311.024 224.027 303.901 222.127 306.355C220.305 308.887 235.907 311.815 236.144 313.319C236.382 314.743 221.018 312.527 221.731 315.535C222.127 317.197 235.432 317.197 234.798 319.096C234.164 320.995 223.948 322.657 224.502 324.557C225.136 326.456 232.897 322.024 238.124 323.528C243.272 325.032 247.866 323.37 255.31 328.276C264.814 330.255 299.74 342.601 310.59 357.083C328.409 361.673 362.068 372.674 362.068 372.674L370.779 351.702ZM429.226 350.673C429.226 350.673 451.877 304.455 457.421 294.642C463.044 284.749 476.824 246.05 477.299 244.547C477.774 243.043 465.261 225.79 467.795 224.999C470.33 224.208 473.735 234.179 476.428 232.834C479.121 231.489 485.773 206.876 487.436 207.984C490.525 210.042 483.952 223.258 485.536 223.97C487.119 224.683 491.079 209.567 494.168 209.883C497.257 210.121 489.099 223.812 489.971 224.92C490.921 226.028 499.474 213.128 501.216 215.661C502.167 217.085 493.297 226.978 495.198 227.769C497.019 228.56 505.097 222.071 506.047 223.733C506.998 225.395 498.524 228.323 496.227 233.15C493.93 237.978 488.307 240.352 487.04 249.216C484.11 258.792 480.704 291.002 473.339 306.75C464.865 323.053 450.53 358.27 450.53 358.27L429.226 350.673Z" fill="#FFE3CA"/>
	<path fill-rule="evenodd" clip-rule="evenodd" d="M440.076 408.919C441.344 400.135 444.116 376.393 443.878 373.386C446.254 364.601 477.378 308.095 483.556 274.857L488.545 247.712L477.141 243.755C475.082 243.043 472.468 250.007 470.647 253.014C462.252 266.864 452.59 304.059 438.334 331.283C438.334 331.283 427.484 343.787 419.802 347.349C419.723 347.27 417.109 348.377 416.001 348.219C408.794 347.744 383.847 345.291 379.095 346.399V386.918C380.283 389.372 378.857 435.906 381.392 439.942C383.926 443.899 423.049 464 430.018 459.964C430.335 459.964 437.463 426.726 440.076 408.919Z" fill="#2A94F4"/>
	<path fill-rule="evenodd" clip-rule="evenodd" d="M391.212 346.478C388.757 346.399 388.203 346.557 384.322 346.241C368.245 347.824 330.31 340.622 316.133 334.766C310.906 332.55 264.259 313.952 260.854 317.513C259.587 318.859 253.172 324.952 255.389 328.118C268.378 346.399 350.901 373.702 350.98 373.702C350.98 373.702 380.52 380.271 379.57 382.803L391.212 346.478Z" fill="#2A94F4"/>
	<path fill-rule="evenodd" clip-rule="evenodd" d="M400.716 332.471C400.716 332.471 402.379 346.637 401.508 352.177C400.636 357.716 401.904 375.681 413.15 376.472C424.316 377.264 416.793 353.918 416.08 348.457C415.367 342.996 416.238 326.219 416.238 326.219L400.716 332.471Z" fill="#FFE3CA"/>
	<path fill-rule="evenodd" clip-rule="evenodd" d="M415.921 334.528C416.001 329.938 416.238 326.14 416.238 326.14L400.716 332.471C400.716 332.471 401.032 335.32 401.349 339.039C407.843 340.86 412.754 338.644 415.921 334.528Z" fill="#FCD2B1"/>
	<path fill-rule="evenodd" clip-rule="evenodd" d="M397.785 293.376C397.785 293.376 391.766 296.383 389.153 303.506C386.539 310.628 387.727 329.543 402.379 335.083C417.03 340.622 424.475 326.14 422.178 314.348C419.881 302.477 414.1 287.361 397.785 293.376Z" fill="#FFE3CA"/>
	<path fill-rule="evenodd" clip-rule="evenodd" d="M424.316 309.916C423.841 313.002 422.02 315.297 420.277 314.981C418.535 314.743 417.585 311.974 418.06 308.887C418.535 305.801 420.356 303.506 422.099 303.822C423.841 304.06 424.871 306.829 424.316 309.916Z" fill="#FFE3CA"/>
	<path fill-rule="evenodd" clip-rule="evenodd" d="M436.829 665.807C435.8 663.353 426.613 671.821 424.395 673.563C421.94 675.541 421.861 677.599 421.94 677.994C422.178 679.181 447.917 709.017 455.282 712.895C455.995 713.291 457.421 713.211 457.817 713.053C461.697 711.233 454.015 686.067 448.63 681.239C445.145 678.311 441.66 676.728 436.829 665.807Z" fill="#0E538C"/>
	<path fill-rule="evenodd" clip-rule="evenodd" d="M392.4 319.887C393.984 322.736 393.746 325.981 391.925 327.089C390.103 328.197 387.331 326.772 385.747 323.923C384.163 321.074 384.401 317.83 386.223 316.722C388.044 315.693 390.816 317.038 392.4 319.887Z" fill="#FFE3CA"/>
	<path fill-rule="evenodd" clip-rule="evenodd" d="M414.575 288.707C414.575 288.707 408.002 304.614 398.656 306.671C389.311 308.729 385.351 306.117 385.351 306.117C385.351 306.117 392.638 300.736 394.459 290.923C394.459 290.923 410.298 280.872 414.575 288.707Z" fill="#0E538C" stroke="#0E538C" stroke-width="0.0594" stroke-miterlimit="2.613"/>
	<path fill-rule="evenodd" clip-rule="evenodd" d="M414.971 293.613C413.149 293.059 411.962 293.376 411.486 294.563C412.278 297.174 413.862 298.995 416.08 300.023C415.209 298.995 414.892 296.858 414.971 293.613Z" fill="#0E538C"/>
	<path fill-rule="evenodd" clip-rule="evenodd" d="M416.001 348.378C417.347 356.134 419.089 362.227 419.089 366.738C419.089 370.854 418.297 373.544 416.713 374.89C413.07 376.552 410.061 376.235 407.843 373.94C405.388 371.328 403.646 366.343 402.696 359.062C402.379 355.659 402.22 352.968 402.141 351.148C402.062 349.644 401.666 347.27 401.745 347.191L399.448 347.033C398.973 347.507 399.528 349.011 399.607 351.227C399.686 353.126 399.844 355.817 400.161 359.299V359.378C401.191 367.292 403.171 372.753 406.022 375.681C409.11 378.926 413.07 379.401 417.901 377.106L418.139 376.947C420.515 375.127 421.624 371.645 421.624 366.659C421.544 361.911 420.515 355.659 418.377 347.903L416.001 348.378ZM329.122 338.96C327.062 347.033 325.32 352.968 323.815 356.846C322.548 360.17 321.123 362.86 320.806 362.781L322.469 363.494C324.132 363.81 324.449 362.306 326.191 357.716C327.696 353.68 329.518 347.666 331.577 339.514L329.122 338.96ZM325.003 337.773C322.944 345.845 321.202 351.781 319.697 355.659C318.43 358.983 317.242 361.357 317.004 361.278L318.668 362.148C320.331 362.465 320.331 361.199 322.073 356.529C323.657 352.493 325.399 346.479 327.458 338.327L325.003 337.773ZM474.923 303.427C469.459 302.081 464.469 300.736 461.064 299.391C457.737 298.124 454.966 296.7 453.619 295.513L452.669 297.966C454.253 299.311 456.47 300.419 460.113 301.765C463.677 303.11 468.271 304.535 473.894 305.88L474.923 303.427ZM473.498 307.225C468.033 305.88 463.202 304.376 459.717 303.11C456.391 301.844 453.619 300.419 452.273 299.232L451.322 301.686C452.906 303.031 455.124 304.139 458.767 305.484C462.331 306.83 466.924 308.175 472.547 309.52L473.498 307.225ZM382.738 383.041C379.57 396.337 381.233 428.151 384.401 441.129C384.48 441.683 384.48 442.237 384.559 442.712C383.371 441.921 382.5 441.209 381.946 440.734C381.708 440.496 381.55 440.338 381.471 440.18C380.916 439.309 380.6 436.619 380.362 432.899C379.332 416.913 379.174 398.394 379.174 382.171C379.253 382.171 379.253 382.25 379.332 382.25C380.996 382.645 379.728 382.487 382.738 383.041Z" fill="#2A94F4"/>
	<path fill-rule="evenodd" clip-rule="evenodd" d="M413.15 380.666C414.971 380.666 416.555 379.084 416.555 377.184C416.555 375.285 415.05 373.702 413.15 373.702C411.328 373.702 409.744 375.285 409.744 377.184C409.744 379.084 411.249 380.666 413.15 380.666ZM413.466 384.307C414.338 384.307 415.05 383.595 415.05 382.645C415.05 381.695 414.338 380.983 413.466 380.983C412.595 380.983 411.882 381.695 411.882 382.645C411.882 383.595 412.595 384.307 413.466 384.307ZM413.466 388.106C414.021 388.106 414.496 387.631 414.496 386.998C414.496 386.365 414.021 385.89 413.466 385.89C412.912 385.89 412.437 386.365 412.437 386.998C412.358 387.631 412.833 388.106 413.466 388.106Z" fill="#4F8DCB"/>
	<path fill-rule="evenodd" clip-rule="evenodd" d="M125.427 672.85C92.0852 672.85 64.9998 678.944 64.9998 686.462C64.9998 693.98 92.006 700.074 125.427 700.074C158.769 700.074 185.854 693.98 185.854 686.462C185.854 678.944 158.769 672.85 125.427 672.85ZM126.694 633.597C160.036 633.597 187.121 639.69 187.121 647.209C187.121 654.727 160.115 660.821 126.694 660.821C93.3523 660.821 66.2669 654.727 66.2669 647.209C66.3461 639.69 93.3523 633.597 126.694 633.597Z" fill="#D0A485"/>
	<path fill-rule="evenodd" clip-rule="evenodd" d="M123.368 596.955C156.71 596.955 183.795 603.049 183.795 610.567C183.795 618.085 156.789 624.179 123.368 624.179C90.026 624.179 62.9407 618.085 62.9407 610.567C62.9407 603.049 90.026 596.955 123.368 596.955Z" fill="#CCE9FF"/>
	<path fill-rule="evenodd" clip-rule="evenodd" d="M137.227 654.569C103.886 654.569 76.8002 660.663 76.8002 668.181C76.8002 675.699 103.806 681.793 137.227 681.793C170.569 681.793 197.655 675.699 197.655 668.181C197.655 660.663 170.569 654.569 137.227 654.569Z" fill="#D0A485"/>
	<path fill-rule="evenodd" clip-rule="evenodd" d="M114.973 615.315C148.315 615.315 175.4 621.409 175.4 628.927C175.4 636.446 148.394 642.539 114.973 642.539C81.6312 642.539 54.5458 636.446 54.5458 628.927C54.5458 621.409 81.6312 615.315 114.973 615.315ZM111.568 578.674C144.91 578.674 171.995 584.768 171.995 592.286C171.995 599.804 144.989 605.898 111.568 605.898C78.2257 605.898 51.1404 599.804 51.1404 592.286C51.2196 584.768 78.2257 578.674 111.568 578.674Z" fill="#CCE9FF"/>
	<path fill-rule="evenodd" clip-rule="evenodd" d="M125.427 715.427C92.0852 715.427 64.9998 709.334 64.9998 701.815V686.462C64.9998 693.98 92.006 700.074 125.427 700.074C158.769 700.074 185.854 693.98 185.854 686.462V701.815C185.854 709.334 158.769 715.427 125.427 715.427ZM126.694 676.174C160.036 676.174 187.121 670.08 187.121 662.562V647.209C187.121 654.727 160.115 660.821 126.694 660.821C93.3523 660.821 66.2669 654.727 66.2669 647.209V662.562C66.3461 670.08 93.3523 676.174 126.694 676.174Z" fill="#86644E"/>
	<path fill-rule="evenodd" clip-rule="evenodd" d="M123.368 639.532C156.71 639.532 183.795 633.439 183.795 625.92V610.567C183.795 618.086 156.789 624.179 123.368 624.179C90.026 624.179 62.9407 618.086 62.9407 610.567V625.92C62.9407 633.439 90.026 639.532 123.368 639.532Z" fill="#2A94F4"/>
	<path fill-rule="evenodd" clip-rule="evenodd" d="M137.227 697.146C103.886 697.146 76.8002 691.052 76.8002 683.534V668.181C76.8002 675.699 103.806 681.793 137.227 681.793C170.569 681.793 197.655 675.699 197.655 668.181V683.534C197.575 691.052 170.569 697.146 137.227 697.146Z" fill="#86644E"/>
	<path fill-rule="evenodd" clip-rule="evenodd" d="M114.973 657.893C148.315 657.893 175.4 651.799 175.4 644.281V628.928C175.4 636.446 148.394 642.54 114.973 642.54C81.6312 642.54 54.5458 636.446 54.5458 628.928V644.281C54.5458 651.799 81.6312 657.893 114.973 657.893ZM111.568 621.172C144.91 621.172 171.995 615.078 171.995 607.56V592.207C171.995 599.725 144.989 605.819 111.568 605.819C78.1465 605.819 51.1404 599.725 51.1404 592.207V607.56C51.2196 615.078 78.2257 621.172 111.568 621.172Z" fill="#2A94F4"/>
	<path fill-rule="evenodd" clip-rule="evenodd" d="M86.6206 585.718C85.1158 586.984 83.6111 588.725 83.1359 591.02L74.8994 591.178L74.4243 594.739L83.2943 594.581C84.6406 598.459 90.2636 600.596 97.9457 600.438C105.786 600.279 110.221 597.668 114.26 594.027C117.824 590.624 120.596 589.358 124.556 589.279C128.437 589.2 131.288 590.387 130.971 593.077C130.654 595.373 128.674 597.588 126.694 599.013L135.247 599.963C137.148 598.538 139.049 596.164 139.524 593.79L148.394 593.632L148.869 590.07L139.366 590.228C138.178 586.113 132.159 583.818 124.16 583.976C116.082 584.135 111.409 586.192 106.737 590.624C103.331 593.552 100.955 595.214 97.3122 595.293C94.3027 595.373 91.214 594.185 91.5308 591.732C91.8476 589.595 93.6691 587.775 95.0155 586.667L86.6206 585.718Z" fill="#F7B01A"/>
	<path fill-rule="evenodd" clip-rule="evenodd" d="M124.398 559.918C91.0556 559.918 63.9703 566.012 63.9703 573.53C63.9703 581.048 90.9764 587.142 124.398 587.142C157.739 587.142 184.825 581.048 184.825 573.53C184.825 566.012 157.819 559.918 124.398 559.918ZM125.744 520.665C159.086 520.665 186.171 526.758 186.171 534.277C186.171 541.795 159.165 547.889 125.744 547.889C92.402 547.889 65.3166 541.795 65.3166 534.277C65.3166 526.758 92.3228 520.665 125.744 520.665ZM122.338 483.944C155.68 483.944 182.766 490.038 182.766 497.556C182.766 505.074 155.76 511.168 122.338 511.168C88.9965 511.168 61.9111 505.074 61.9111 497.556C61.9111 490.038 88.9965 483.944 122.338 483.944Z" fill="#CCE9FF"/>
	<path fill-rule="evenodd" clip-rule="evenodd" d="M136.198 541.557C102.856 541.557 75.7706 547.651 75.7706 555.17C75.7706 562.688 102.777 568.782 136.198 568.782C169.54 568.782 196.625 562.688 196.625 555.17C196.546 547.651 169.54 541.557 136.198 541.557ZM113.944 502.383C147.285 502.383 174.371 508.477 174.371 515.995C174.371 523.514 147.365 529.607 113.944 529.607C80.6016 529.607 53.5163 523.514 53.5163 515.995C53.5955 508.477 80.6016 502.383 113.944 502.383ZM110.538 465.663C143.88 465.663 170.965 471.756 170.965 479.275C170.965 486.793 143.959 492.887 110.538 492.887C77.1962 492.887 50.1108 486.793 50.1108 479.275C50.19 471.756 77.1962 465.663 110.538 465.663Z" fill="#CCE9FF"/>
	<path fill-rule="evenodd" clip-rule="evenodd" d="M124.398 602.416C91.0556 602.416 63.9703 596.322 63.9703 588.804V573.451C63.9703 580.969 90.9764 587.063 124.398 587.063C157.739 587.063 184.825 580.969 184.825 573.451V588.804C184.825 596.322 157.819 602.416 124.398 602.416ZM125.744 563.242C159.086 563.242 186.171 557.148 186.171 549.63V534.277C186.171 541.795 159.165 547.889 125.744 547.889C92.402 547.889 65.3166 541.795 65.3166 534.277V549.63C65.3166 557.148 92.3228 563.242 125.744 563.242ZM122.338 526.521C155.68 526.521 182.766 520.428 182.766 512.909V497.556C182.766 505.074 155.76 511.168 122.338 511.168C88.9965 511.168 61.9111 505.074 61.9111 497.556V512.909C61.9111 520.428 88.9965 526.521 122.338 526.521Z" fill="#2A94F4"/>
	<path fill-rule="evenodd" clip-rule="evenodd" d="M136.198 584.134C102.856 584.134 75.7706 578.041 75.7706 570.522V555.169C75.7706 562.688 102.777 568.781 136.198 568.781C169.54 568.781 196.625 562.688 196.625 555.169V570.522C196.546 578.041 169.54 584.134 136.198 584.134ZM113.944 544.96C147.285 544.96 174.371 538.866 174.371 531.348V515.995C174.371 523.513 147.365 529.607 113.944 529.607C80.6016 529.607 53.5163 523.513 53.5163 515.995V531.348C53.5955 538.866 80.6016 544.96 113.944 544.96ZM110.538 508.239C143.88 508.239 170.965 502.146 170.965 494.628V479.274C170.965 486.793 143.959 492.886 110.538 492.886C77.1962 492.886 50.1108 486.793 50.1108 479.274V494.628C50.19 502.146 77.1962 508.239 110.538 508.239Z" fill="#2A94F4"/>
	<path fill-rule="evenodd" clip-rule="evenodd" d="M85.591 472.785C84.0863 474.052 82.5815 475.793 82.1063 478.088L73.8699 478.246L73.3947 481.807L82.2647 481.649C83.6111 485.527 89.2341 487.664 96.837 487.505C104.677 487.347 109.113 484.735 113.152 481.095C116.715 477.692 119.487 476.426 123.447 476.347C127.328 476.267 130.179 477.455 129.862 480.145C129.545 482.44 127.565 484.656 125.585 486.081L134.139 487.03C136.039 485.606 137.94 483.232 138.415 480.858L147.285 480.699L147.761 477.138L138.257 477.296C137.069 473.181 131.05 470.886 123.051 471.044C114.973 471.203 110.3 473.26 105.628 477.692C102.222 480.62 99.8465 482.282 96.2034 482.361C93.1939 482.44 90.1052 481.253 90.422 478.8C90.7388 476.663 92.5604 474.843 93.9067 473.735L85.591 472.785Z" fill="#F7B01A"/>
	<path fill-rule="evenodd" clip-rule="evenodd" d="M49.7148 686.146C22.3127 686.146 0.137543 691.131 0.137543 697.304C0.137543 703.477 22.3127 708.463 49.7148 708.463C77.117 708.463 99.2921 703.477 99.2921 697.304C99.2921 691.131 77.117 686.146 49.7148 686.146ZM56.605 651.324C29.2028 651.324 7.02767 656.31 7.02767 662.483C7.02767 668.656 29.2028 673.642 56.605 673.642C84.0071 673.642 106.182 668.656 106.182 662.483C106.261 656.31 84.0071 651.324 56.605 651.324Z" fill="#CCE9FF"/>
	<path fill-rule="evenodd" clip-rule="evenodd" d="M59.3769 671.109C31.9747 671.109 9.79957 676.095 9.79957 682.268C9.79957 688.441 31.9747 693.426 59.3769 693.426C86.779 693.426 108.954 688.441 108.954 682.268C108.954 676.095 86.779 671.109 59.3769 671.109ZM66.267 636.288C38.8648 636.288 16.6897 641.273 16.6897 647.446C16.6897 653.619 38.8648 658.605 66.267 658.605C93.6691 658.605 115.844 653.619 115.844 647.446C115.923 641.273 93.6691 636.288 66.267 636.288Z" fill="#CCE9FF"/>
	<path fill-rule="evenodd" clip-rule="evenodd" d="M49.7148 721.125C22.3127 721.125 0.137543 716.14 0.137543 709.967V697.383C0.137543 703.556 22.3127 708.542 49.7148 708.542C77.117 708.542 99.2921 703.556 99.2921 697.383V709.967C99.2921 716.06 77.117 721.125 49.7148 721.125ZM56.605 686.225C29.2028 686.225 7.02767 681.239 7.02767 675.066V662.483C7.02767 668.656 29.2028 673.642 56.605 673.642C84.0071 673.642 106.182 668.656 106.182 662.483V675.066C106.261 681.239 84.0071 686.225 56.605 686.225Z" fill="#2A94F4"/>
	<path fill-rule="evenodd" clip-rule="evenodd" d="M59.3769 706.089C31.9747 706.089 9.79957 701.103 9.79957 694.93V682.347C9.79957 688.52 31.9747 693.505 59.3769 693.505C86.779 693.505 108.954 688.52 108.954 682.347V694.93C108.954 701.103 86.779 706.089 59.3769 706.089ZM66.267 671.188C38.8648 671.188 16.6897 666.202 16.6897 660.03V647.446C16.6897 653.619 38.8648 658.605 66.267 658.605C93.6691 658.605 115.844 653.619 115.844 647.446V660.03C115.923 666.202 93.6691 671.188 66.267 671.188Z" fill="#2A94F4"/>
	<path fill-rule="evenodd" clip-rule="evenodd" d="M43.5375 641.827C42.3495 642.856 41.0032 644.281 40.6864 646.18L33.8754 646.338L33.4794 649.266L40.7656 649.108C41.8743 652.274 46.4677 654.094 52.8035 653.936C59.2976 653.777 62.8615 651.641 66.1878 648.713C69.1181 645.863 71.3356 644.835 74.6618 644.756C77.8297 644.676 80.2056 645.705 79.9681 647.842C79.7305 649.741 78.0673 651.562 76.4042 652.749L83.4527 653.54C85.0367 652.353 86.5414 650.374 86.9374 648.475L94.2235 648.317L94.6195 645.389L86.779 645.547C85.8286 642.144 80.8392 640.324 74.2659 640.403C67.6133 640.561 63.8119 642.223 59.9312 645.864C57.0801 648.317 55.1794 649.583 52.1699 649.662C49.6356 649.741 47.1805 648.713 47.4181 646.734C47.6557 644.993 49.1604 643.489 50.2692 642.54L43.5375 641.827Z" fill="#F7B01A"/>
	<path fill-rule="evenodd" clip-rule="evenodd" d="M96.5994 679.577C96.5994 649.029 121.388 624.258 151.958 624.258C182.528 624.258 207.317 649.029 207.317 679.577C207.317 710.125 182.528 734.895 151.958 734.895C121.388 734.895 96.5994 710.125 96.5994 679.577Z" fill="#2A94F4"/>
	<path fill-rule="evenodd" clip-rule="evenodd" d="M104.994 679.577C104.994 653.619 126.061 632.647 151.958 632.647C177.935 632.647 198.922 653.698 198.922 679.577C198.922 705.535 177.855 726.507 151.958 726.507C125.981 726.507 104.994 705.455 104.994 679.577Z" fill="#CCE9FF"/>
	<path fill-rule="evenodd" clip-rule="evenodd" d="M176.509 639.453C181.182 646.734 183.874 655.439 183.874 664.778C183.874 690.736 162.808 711.708 136.911 711.708C127.882 711.708 119.487 709.175 112.36 704.743C120.675 717.801 135.327 726.427 151.958 726.427C177.935 726.427 198.922 705.376 198.922 679.498C198.922 662.562 189.973 647.763 176.509 639.453Z" fill="#98C4F1"/>
	<path fill-rule="evenodd" clip-rule="evenodd" d="M113.231 683.85C113.231 660.979 131.763 642.381 154.73 642.381C168.114 642.381 179.994 648.712 187.597 658.526C180.469 646.101 167.005 637.712 151.641 637.712C128.753 637.712 110.142 656.231 110.142 679.181C110.142 688.678 113.389 697.462 118.775 704.427C115.211 698.412 113.231 691.369 113.231 683.85Z" fill="#A7D1FB"/>
	<path fill-rule="evenodd" clip-rule="evenodd" d="M155.839 649.267V655.281C158.215 655.677 160.195 656.468 161.699 657.655C163.204 658.843 164.709 660.663 166.055 663.195L160.115 666.519C158.294 663.274 155.997 661.612 153.067 661.612C151.245 661.612 149.82 662.166 148.632 663.195C147.444 664.224 146.889 665.569 146.889 667.152C146.889 668.577 147.365 669.764 148.315 670.714C149.265 671.663 151.166 672.771 154.017 674.037C156.472 675.145 158.531 676.174 160.115 677.203C161.699 678.153 162.966 679.102 163.758 680.052C166.055 682.505 167.243 685.513 167.243 689.074C167.243 692.556 166.213 695.563 164.154 698.254C162.095 700.866 159.323 702.686 155.918 703.556V709.888H150.612V703.715C146.652 703.082 143.563 701.657 141.504 699.599C139.445 697.542 137.861 694.297 136.831 689.865L143.563 688.441C144.514 691.527 145.622 693.743 146.889 695.088C148.236 696.355 150.137 696.988 152.433 696.988C154.651 696.988 156.551 696.276 158.056 694.851C159.561 693.427 160.274 691.606 160.274 689.311C160.274 687.333 159.64 685.671 158.373 684.484C157.739 683.93 156.789 683.218 155.601 682.505C154.334 681.793 152.829 680.922 150.849 680.052C146.889 678.311 144.276 676.649 143.088 675.145C141.108 672.929 140.158 670.239 140.158 667.152C140.158 665.649 140.395 664.303 140.87 663.037C141.346 661.771 141.979 660.663 142.93 659.634C143.801 658.605 144.91 657.735 146.177 656.943C147.444 656.152 148.949 655.598 150.612 655.202V649.188H155.839V649.267Z" fill="#F7B01A"/>
	<path fill-rule="evenodd" clip-rule="evenodd" d="M72.6819 705.139C102.302 705.139 126.298 710.521 126.298 717.247C126.298 723.895 102.302 729.356 72.6819 729.356C43.0623 729.356 19.0656 723.974 19.0656 717.247C19.0656 710.521 43.0623 705.139 72.6819 705.139Z" fill="#CCE9FF"/>
	<path fill-rule="evenodd" clip-rule="evenodd" d="M72.6819 742.889C102.302 742.889 126.298 737.507 126.298 730.78V717.168C126.298 723.816 102.302 729.277 72.6819 729.277C43.0623 729.277 19.0656 723.895 19.0656 717.168V730.78C19.0656 737.507 43.0623 742.889 72.6819 742.889Z" fill="#2A94F4"/>
	<path fill-rule="evenodd" clip-rule="evenodd" d="M50.586 711.391C49.2396 712.499 47.8933 714.003 47.4973 716.139L40.132 716.298L39.736 719.463L47.6557 719.305C48.8436 722.708 53.8331 724.687 60.644 724.528C67.6133 724.37 71.5732 722.075 75.137 718.83C78.3049 715.823 80.76 714.636 84.2447 714.557C87.7293 714.478 90.2637 715.586 89.9469 717.881C89.7093 719.938 87.8877 721.917 86.1454 723.183L93.7483 723.974C95.4114 722.708 97.0746 720.571 97.5498 718.514L105.469 718.355L105.865 715.19L97.3914 715.348C96.3618 711.708 90.9764 709.65 83.9279 709.808C76.721 709.967 72.6027 711.787 68.4053 715.665C65.3958 718.276 63.2575 719.701 60.0896 719.78C57.3969 719.859 54.7042 718.751 55.021 716.614C55.2586 714.715 56.9217 713.132 58.1097 712.103L50.586 711.391Z" fill="#F7B01A"/>
	<path fill-rule="evenodd" clip-rule="evenodd" d="M225.611 674.591C190.844 674.591 162.729 680.922 162.729 688.757C162.729 696.592 190.923 702.923 225.611 702.923C260.379 702.923 288.494 696.592 288.494 688.757C288.494 680.922 260.299 674.591 225.611 674.591Z" fill="#D0A485"/>
	<path fill-rule="evenodd" clip-rule="evenodd" d="M237.808 655.519C203.04 655.519 174.925 661.85 174.925 669.685C174.925 677.519 203.119 683.851 237.808 683.851C272.575 683.851 300.69 677.519 300.69 669.685C300.769 661.85 272.575 655.519 237.808 655.519Z" fill="#D0A485"/>
	<path fill-rule="evenodd" clip-rule="evenodd" d="M225.611 718.909C190.844 718.909 162.729 712.578 162.729 704.743V688.757C162.729 696.592 190.923 702.923 225.611 702.923C260.379 702.923 288.494 696.592 288.494 688.757V704.743C288.494 712.578 260.299 718.909 225.611 718.909ZM226.958 678.073C261.725 678.073 289.84 671.742 289.84 663.907V647.921C289.84 655.756 261.646 662.087 226.958 662.087C192.19 662.087 164.075 655.756 164.075 647.921V663.907C163.996 671.663 192.19 678.073 226.958 678.073Z" fill="#86644E"/>
	<path fill-rule="evenodd" clip-rule="evenodd" d="M237.808 699.837C203.04 699.837 174.925 693.506 174.925 685.671V669.685C174.925 677.519 203.119 683.851 237.808 683.851C272.575 683.851 300.69 677.519 300.69 669.685V685.671C300.769 693.506 272.575 699.837 237.808 699.837Z" fill="#86644E"/>
	<path fill-rule="evenodd" clip-rule="evenodd" d="M146.652 688.44C118.141 688.44 94.9362 693.664 94.9362 700.074C94.9362 706.484 118.062 711.707 146.652 711.707C175.163 711.707 198.367 706.484 198.367 700.074C198.367 693.664 175.242 688.44 146.652 688.44Z" fill="#CCE9FF"/>
	<path d="M153.938 675.383C182.5 675.383 205.654 670.174 205.654 663.749C205.654 657.324 182.5 652.116 153.938 652.116C125.376 652.116 102.222 657.324 102.222 663.749C102.222 670.174 125.376 675.383 153.938 675.383Z" fill="#CCE9FF"/>
	<path fill-rule="evenodd" clip-rule="evenodd" d="M156.71 672.771C128.199 672.771 104.994 677.994 104.994 684.404C104.994 690.815 128.12 696.038 156.71 696.038C185.221 696.038 208.425 690.815 208.425 684.404C208.425 677.994 185.3 672.771 156.71 672.771ZM163.996 636.446C135.485 636.446 112.28 641.669 112.28 648.079C112.28 654.49 135.406 659.713 163.996 659.713C192.507 659.713 215.712 654.49 215.712 648.079C215.632 641.669 192.507 636.446 163.996 636.446Z" fill="#CCE9FF"/>
	<path fill-rule="evenodd" clip-rule="evenodd" d="M146.652 724.845C118.141 724.845 94.9362 719.622 94.9362 713.211V700.074C94.9362 706.484 118.062 711.708 146.652 711.708C175.163 711.708 198.367 706.484 198.367 700.074V713.211C198.367 719.622 175.242 724.845 146.652 724.845ZM153.938 688.52C125.427 688.52 102.222 683.296 102.222 676.886V663.749C102.222 670.159 125.348 675.383 153.938 675.383C182.449 675.383 205.654 670.159 205.654 663.749V676.886C205.574 683.296 182.449 688.52 153.938 688.52Z" fill="#2A94F4"/>
	<path fill-rule="evenodd" clip-rule="evenodd" d="M156.71 709.175C128.199 709.175 104.994 703.952 104.994 697.542V684.405C104.994 690.815 128.12 696.038 156.71 696.038C185.221 696.038 208.425 690.815 208.425 684.405V697.542C208.425 703.952 185.3 709.175 156.71 709.175ZM163.996 672.85C135.485 672.85 112.28 667.627 112.28 661.217V648.08C112.28 654.49 135.406 659.713 163.996 659.713C192.507 659.713 215.712 654.49 215.712 648.08V661.217C215.632 667.627 192.507 672.85 163.996 672.85Z" fill="#2A94F4"/>
	<path fill-rule="evenodd" clip-rule="evenodd" d="M140.237 642.223C138.97 643.252 137.623 644.755 137.227 646.813L130.179 646.971L129.783 650.058L137.386 649.899C138.574 653.223 143.326 655.044 149.899 654.885C156.631 654.727 160.353 652.511 163.838 649.425C166.926 646.496 169.223 645.388 172.628 645.309C175.955 645.23 178.41 646.259 178.093 648.554C177.855 650.533 176.113 652.432 174.45 653.619L181.815 654.41C183.478 653.223 185.062 651.166 185.458 649.108L193.061 648.95L193.457 645.863L185.3 646.022C184.27 642.539 179.123 640.561 172.312 640.719C165.342 640.878 161.382 642.619 157.423 646.417C154.492 648.95 152.433 650.295 149.345 650.374C146.731 650.453 144.118 649.425 144.434 647.288C144.672 645.468 146.256 643.885 147.444 642.935L140.237 642.223Z" fill="#F7B01A"/>
	<path d="M294.003 722.26C316.518 699.76 316.518 663.281 294.002 640.782C271.485 618.283 234.98 618.284 212.465 640.784C189.949 663.284 189.95 699.763 212.466 722.262C234.982 744.761 271.488 744.76 294.003 722.26Z" fill="#2A94F4"/>
	<path fill-rule="evenodd" clip-rule="evenodd" d="M204.228 681.555C204.228 654.569 226.166 632.647 253.172 632.647C280.178 632.647 302.115 654.569 302.115 681.555C302.115 708.542 280.178 730.464 253.172 730.464C226.166 730.464 204.228 708.542 204.228 681.555Z" fill="#CCE9FF"/>
	<path fill-rule="evenodd" clip-rule="evenodd" d="M278.832 639.77C283.742 647.367 286.514 656.389 286.514 666.123C286.514 693.11 264.576 715.031 237.57 715.031C228.146 715.031 219.434 712.42 211.989 707.83C220.701 721.442 235.907 730.384 253.251 730.384C280.257 730.384 302.195 708.463 302.195 681.476C302.195 663.828 292.849 648.396 278.832 639.77Z" fill="#A3CFFB"/>
	<path fill-rule="evenodd" clip-rule="evenodd" d="M212.861 685.987C212.861 662.166 232.185 642.777 256.102 642.777C270.041 642.777 282.475 649.346 290.394 659.634C282.95 646.655 268.932 637.95 252.934 637.95C229.096 637.95 209.693 657.26 209.693 681.16C209.693 691.052 213.019 700.233 218.642 707.513C214.92 701.182 212.861 693.901 212.861 685.987Z" fill="#A7D1FB"/>
	<path fill-rule="evenodd" clip-rule="evenodd" d="M257.29 649.979V656.231C259.824 656.626 261.804 657.497 263.467 658.684C265.051 659.95 266.556 661.849 267.982 664.461L261.804 667.943C259.903 664.54 257.528 662.878 254.518 662.878C252.617 662.878 251.113 663.432 249.845 664.54C248.578 665.648 248.024 666.994 248.024 668.655C248.024 670.159 248.499 671.425 249.529 672.375C250.479 673.325 252.459 674.512 255.468 675.857C258.003 677.044 260.141 678.152 261.804 679.181C263.467 680.21 264.734 681.239 265.606 682.188C267.982 684.8 269.17 687.886 269.17 691.606C269.17 695.246 268.061 698.412 265.922 701.182C263.784 703.952 260.933 705.772 257.369 706.722V713.29H251.825V706.88C247.628 706.168 244.46 704.743 242.322 702.606C240.104 700.39 238.52 697.067 237.491 692.477L244.46 691.052C245.41 694.297 246.598 696.592 247.945 697.937C249.37 699.282 251.271 699.916 253.726 699.916C256.023 699.916 258.003 699.124 259.587 697.621C261.171 696.117 261.883 694.218 261.883 691.843C261.883 689.707 261.25 688.045 259.903 686.778C259.27 686.145 258.24 685.433 256.973 684.721C255.706 683.929 254.043 683.138 252.063 682.188C247.945 680.368 245.252 678.627 243.985 677.123C241.926 674.828 240.896 672.059 240.896 668.814C240.896 667.31 241.134 665.886 241.609 664.54C242.084 663.195 242.797 662.008 243.747 660.979C244.698 659.871 245.806 659 247.153 658.209C248.499 657.418 250.083 656.785 251.746 656.389V650.137H257.29V649.979Z" fill="#F7B01A"/>
	<path fill-rule="evenodd" clip-rule="evenodd" d="M170.649 708.146C201.535 708.146 226.562 713.765 226.562 720.73C226.562 727.694 201.535 733.313 170.649 733.313C139.762 733.313 114.735 727.694 114.735 720.73C114.735 713.845 139.762 708.146 170.649 708.146Z" fill="#CCE9FF"/>
	<path fill-rule="evenodd" clip-rule="evenodd" d="M170.649 747.558C201.535 747.558 226.562 741.939 226.562 734.975V720.809C226.562 727.773 201.535 733.392 170.649 733.392C139.762 733.392 114.735 727.773 114.735 720.809V734.975C114.735 741.939 139.762 747.558 170.649 747.558Z" fill="#2A94F4"/>
	<path fill-rule="evenodd" clip-rule="evenodd" d="M147.523 714.715C146.177 715.823 144.672 717.485 144.276 719.622L136.594 719.78L136.119 723.104L144.355 722.946C145.622 726.507 150.77 728.485 157.898 728.406C165.184 728.248 169.223 725.874 173.024 722.471C176.351 719.305 178.885 718.118 182.528 718.039C186.171 717.96 188.785 719.068 188.468 721.521C188.151 723.658 186.33 725.715 184.508 727.061L192.428 727.931C194.17 726.586 195.912 724.37 196.388 722.233L204.624 722.075L205.099 718.751L196.308 718.909C195.2 715.111 189.577 712.974 182.29 713.132C174.767 713.291 170.49 715.19 166.134 719.305C162.966 722.075 160.749 723.499 157.423 723.579C154.572 723.658 151.8 722.55 152.116 720.255C152.354 718.276 154.096 716.614 155.364 715.586L147.523 714.715Z" fill="#F7B01A"/>
</svg>