<svg width="171" height="171" viewBox="0 0 171 171" fill="none" xmlns="http://www.w3.org/2000/svg">
	<g clip-path="url(#clip0_999_161)">
		<path d="M85.5 171C132.72 171 171 132.72 171 85.5C171 38.2797 132.72 0 85.5 0C38.2797 0 0 38.2797 0 85.5C0 132.72 38.2797 171 85.5 171Z" fill="#F7B01A"/>
		<path d="M138.26 125.378C138.48 124.82 138.61 124.216 138.61 123.579C138.61 120.864 136.409 118.663 133.694 118.663H94.4298C91.7146 118.663 89.5135 120.864 89.5135 123.579C89.5135 124.216 89.6439 124.82 89.8641 125.378H138.26Z" fill="#D7534A"/>
		<path d="M137.173 111.392L134.761 116.758C133.044 120.578 129.246 123.035 125.058 123.035C125.058 123.035 116.931 121.897 114.201 121.894C111.403 121.89 103.066 123.035 103.066 123.035C98.8778 123.035 95.0794 120.578 93.3625 116.758L90.9506 111.392H137.173Z" fill="#3B2D41"/>
		<path d="M119.598 130.6H136.694L136.809 125.461C136.942 117.625 132.921 111.27 127.901 111.27C122.318 111.27 118.122 119.049 119.191 127.417L119.598 130.6ZM109.018 130.6L109.425 127.417C110.494 119.049 106.298 111.27 100.715 111.27C95.6944 111.27 91.6735 117.625 91.8463 125.288L91.9661 130.6H109.018Z" fill="#3B2D41"/>
		<path d="M136.547 118.689H130.773V144.565H136.547V118.689Z" fill="#4E6A80"/>
		<path opacity="0.15" d="M136.547 118.689H130.773V120.806H136.547V118.689Z" fill="#3B2D41"/>
		<path d="M40.8893 118.689H35.1152V144.565H40.8893V118.689Z" fill="#4E6A80"/>
		<path opacity="0.15" d="M40.8893 118.689H35.1152V120.806H40.8893V118.689Z" fill="#3B2D41"/>
		<path d="M143.986 110.85V117.481C143.986 118.146 143.444 135.052 142.779 135.052H28.8836C28.2188 135.052 27.6765 134.509 27.6765 133.844V110.85C27.6765 110.185 28.2188 109.643 28.8836 109.643H142.779C143.444 109.643 143.986 110.185 143.986 110.85Z" fill="#B9CCDB"/>
		<path opacity="0.15" d="M143.986 109.643H27.6758V115.12H143.986V109.643Z" fill="#3B2D41"/>
		<path d="M146.303 113.257H25.359C24.2117 113.257 23.2817 112.327 23.2817 111.179V106.291C23.2817 105.144 24.2117 104.214 25.359 104.214H146.303C147.45 104.214 148.38 105.144 148.38 106.291V111.179C148.38 112.327 147.45 113.257 146.303 113.257Z" fill="#CEDEED"/>
		<path d="M129.709 62.5557H90.9913V104.464H129.709V62.5557Z" fill="#7B8BB7"/>
		<path d="M121.605 62.5342L112.577 76.3713L110.348 79.7861L108.12 76.3713L99.0992 62.5342H121.605Z" fill="#E8F2FB"/>
		<path d="M112.577 76.3715L110.348 79.7863L108.12 76.3715L108.849 69.2722L108.939 68.3828H111.758L111.838 69.153L112.577 76.3715Z" fill="#F46658"/>
		<path d="M113.188 67.6081L111.492 69.5441C110.853 70.2737 109.718 70.2737 109.079 69.5441L107.384 67.6081C106.475 66.5711 107.212 64.9473 108.59 64.9473H111.981C113.36 64.9473 114.096 66.5712 113.188 67.6081Z" fill="#F46658"/>
		<path d="M115.372 55.2598V62.5507L110.356 64.9471L105.325 62.5507V55.2598H115.372Z" fill="#F7CAA6"/>
		<path d="M115.372 55.2588V59.0968C113.962 59.8901 112.344 60.3388 110.621 60.3388C108.666 60.3388 106.847 59.7619 105.324 58.7683V55.2588H115.372Z" fill="#E29A81"/>
		<path d="M118.333 62.5563L114.398 67.8671L110.352 64.9488L115.378 60.5703L118.259 62.5465L118.333 62.5563Z" fill="#B8CDE3"/>
		<path d="M102.371 62.5563L106.306 67.8671L110.35 64.9488L105.327 60.5703L102.446 62.5465L102.371 62.5563Z" fill="#B8CDE3"/>
		<path d="M120.137 49.9468C121.453 49.9468 122.52 48.7023 122.52 47.1672C122.52 45.6321 121.453 44.3877 120.137 44.3877C118.821 44.3877 117.755 45.6321 117.755 47.1672C117.755 48.7023 118.821 49.9468 120.137 49.9468Z" fill="#F7CAA6"/>
		<path d="M121.09 48.4205C121.035 48.4205 120.98 48.3978 120.94 48.3532C120.867 48.2702 120.874 48.1433 120.957 48.0697C121.243 47.8168 121.4 47.4965 121.4 47.1677C121.4 46.838 121.243 46.5177 120.958 46.2656C120.875 46.192 120.867 46.0659 120.94 45.9829C121.013 45.8999 121.141 45.892 121.223 45.9649C121.596 46.2945 121.801 46.7213 121.801 47.1677C121.801 47.6132 121.596 48.04 121.223 48.3704C121.185 48.4041 121.137 48.4205 121.09 48.4205Z" fill="#E29A81"/>
		<path d="M101.238 49.9468C102.554 49.9468 103.62 48.7023 103.62 47.1672C103.62 45.6321 102.554 44.3877 101.238 44.3877C99.9216 44.3877 98.8549 45.6321 98.8549 47.1672C98.8549 48.7023 99.9216 49.9468 101.238 49.9468Z" fill="#F7CAA6"/>
		<path d="M100.284 48.4205C100.339 48.4205 100.394 48.3978 100.434 48.3532C100.507 48.2702 100.5 48.1433 100.417 48.0697C100.131 47.8168 99.9736 47.4965 99.9736 47.1677C99.9736 46.838 100.131 46.5177 100.416 46.2656C100.499 46.192 100.507 46.0659 100.434 45.9829C100.36 45.8999 100.233 45.892 100.151 45.9649C99.7779 46.2945 99.5727 46.7213 99.5727 47.1677C99.5727 47.6132 99.7779 48.04 100.151 48.3704C100.189 48.4041 100.237 48.4205 100.284 48.4205Z" fill="#E29A81"/>
		<path d="M120.457 44.1379V49.2541C120.457 54.693 116.046 59.0942 110.617 59.0942C105.179 59.0942 100.777 54.693 100.777 49.2541V44.1379C100.777 38.699 105.179 34.2979 110.617 34.2979C113.337 34.2979 115.794 35.3955 117.577 37.1782C119.36 38.9609 120.457 41.4183 120.457 44.1379Z" fill="#F7CAA6"/>
		<path d="M107.622 46.5069C107.622 47.19 107.247 47.7398 106.78 47.7398C106.314 47.7398 105.93 47.19 105.93 46.5069C105.93 45.8238 106.314 45.2656 106.78 45.2656C107.247 45.2656 107.622 45.8238 107.622 46.5069ZM115.303 46.5069C115.303 47.19 114.928 47.7398 114.461 47.7398C113.995 47.7398 113.611 47.19 113.611 46.5069C113.611 45.8238 113.995 45.2656 114.461 45.2656C114.928 45.2656 115.303 45.8238 115.303 46.5069Z" fill="#333333"/>
		<path d="M107.183 51.8174C107.181 51.8675 107.168 51.9146 107.168 51.9652C107.168 53.8701 108.713 55.4143 110.617 55.4143C112.522 55.4143 114.066 53.8701 114.066 51.9652C114.066 51.9146 114.054 51.8675 114.051 51.8174H107.183Z" fill="white"/>
		<path d="M120.6 45.9129L120.463 46.0324C120.463 46.0324 119.269 46.169 119.269 46.0324C119.269 45.896 118.962 43.7638 118.962 43.7638C118.962 43.7638 116.83 40.7956 118.365 38.0666C118.365 38.0666 111.903 41.6461 103.426 38.3028C103.426 38.3028 102.272 39.2564 102.641 41.8508C102.822 43.1226 102.245 44.9748 101.699 46.9024H100.778L100.028 44.7702C100.028 44.7702 96.3947 38.0836 100.488 34.6721C100.488 34.6721 99.0385 29.2135 105.145 27.2689L106.152 30.4928C106.152 30.4928 108.557 26.706 113.35 26.5013C118.16 26.2796 117.12 30.6463 117.12 30.6463C117.12 30.6463 120.173 29.2135 121.35 30.817C122.51 32.4203 120.6 34.0578 120.6 34.0578C120.6 34.0578 122.135 35.1666 122.715 37.7424C123.312 40.3181 120.6 45.9129 120.6 45.9129Z" fill="#3B2D41"/>
		<path d="M144.201 103.755C141.523 104.999 138.506 103.245 137.463 99.8352L124.801 73.2797C123.721 70.1125 126.551 63.9457 129.586 62.5352C132.549 62.7189 135.181 65.1071 136.283 68.6124L147.143 95.2708C148.218 98.6907 146.896 102.502 144.201 103.755Z" fill="#7B8BB7"/>
		<path d="M126.768 78.7466C126.273 77.8223 125.841 76.8725 125.419 75.9186C125.005 74.9477 124.572 74.0424 124.258 72.9854C123.704 70.8727 124.37 68.4802 125.928 67.0576C124.768 68.7983 124.359 70.9035 124.861 72.8328C125.124 73.7749 125.567 74.7686 125.866 75.7514C126.194 76.7387 126.513 77.7297 126.768 78.7466Z" fill="#5D72A0"/>
		<path d="M126.769 94.2482L124.699 96.1992L123.51 94.7142C123.116 94.2192 123.061 93.4427 123.376 92.87C123.604 92.443 123.982 92.2197 124.368 92.2197C124.652 92.2197 124.943 92.3458 125.171 92.6079L126.769 94.2482Z" fill="#F7CAA6"/>
		<path d="M147.491 97.2946C147.205 93.7621 144.636 91.1951 141.772 91.5803L126.761 94.2479L126.605 104.284H142.849C145.697 103.934 147.775 100.804 147.491 97.2946Z" fill="#7B8BB7"/>
		<path d="M126.768 94.249L126.605 104.286L120.58 104.169C119.02 104.14 117.713 102.713 117.492 100.82C117.469 100.636 117.461 100.461 117.461 100.287C117.461 98.219 118.792 96.4621 120.509 96.3845L124.699 96.2L126.768 94.249Z" fill="#F7CAA6"/>
		<path d="M129.709 93.4619V94.2594L126.818 94.6328L126.705 93.8607L129.709 93.4619Z" fill="#5D72A0"/>
		<path d="M76.3404 103.755C79.0183 104.999 82.035 103.245 83.0784 99.8352L95.7408 73.2797C96.8202 70.1125 93.99 63.9457 90.9557 62.5352C87.992 62.7189 85.3602 65.1071 84.2586 68.6124L73.3984 95.2708C72.3236 98.6907 73.6451 102.502 76.3404 103.755Z" fill="#7B8BB7"/>
		<path d="M93.7728 78.7466C94.268 77.8223 94.7 76.8725 95.1224 75.9186C95.5361 74.9477 95.9692 74.0424 96.2835 72.9854C96.8373 70.8727 96.1715 68.4802 94.6132 67.0576C95.7732 68.7983 96.1824 70.9035 95.6798 72.8328C95.4171 73.7749 94.9738 74.7686 94.6755 75.7514C94.3471 76.7387 94.0283 77.7297 93.7728 78.7466Z" fill="#5D72A0"/>
		<path d="M93.7728 94.2482L95.8425 96.1992L97.0317 94.7142C97.4255 94.2192 97.4807 93.4427 97.1656 92.87C96.9372 92.443 96.5592 92.2197 96.1733 92.2197C95.8898 92.2197 95.5984 92.3458 95.37 92.6079L93.7728 94.2482Z" fill="#F7CAA6"/>
		<path d="M73.0505 97.2946C73.3368 93.7621 75.9056 91.1951 78.7692 91.5803L93.7799 94.2479L93.9367 104.284H77.692C74.8441 103.934 72.766 100.804 73.0505 97.2946Z" fill="#7B8BB7"/>
		<path d="M93.7728 94.249L93.9366 104.286L99.9615 104.169C101.521 104.14 102.828 102.713 103.049 100.82C103.072 100.636 103.08 100.461 103.08 100.287C103.08 98.219 101.749 96.4621 100.032 96.3845L95.8425 96.2L93.7728 94.249Z" fill="#F7CAA6"/>
		<path d="M90.8329 93.4619V94.2594L93.7238 94.6328L93.8353 93.8607L90.8329 93.4619Z" fill="#5D72A0"/>
		<path d="M76.087 134.019L73.3913 94.5045C72.6993 91.279 69.8483 88.9749 66.5493 88.9749H66.2969L65.0345 109.375L68.5754 134.019H76.087ZM31.2292 134.019L34.1532 112.449L34.7701 109.372L33.5065 88.9746H33.2537C31.6035 88.9746 30.0649 89.5544 28.8532 90.5281C27.649 91.5093 26.757 92.8919 26.4151 94.505L23.7173 134.019H31.2292Z" fill="#3B2D41"/>
		<path d="M30.2051 134.019H31.2293L34.1535 112.449L30.555 106.948L30.2285 106.681L30.25 106.948L30.2051 134.019Z" fill="#FCA235"/>
		<path d="M69.5837 134.019L69.5388 106.948L69.5603 106.681L69.2339 106.948L65.6373 112.449L68.5595 134.019H69.5837Z" fill="#FCA235"/>
		<path d="M32.2672 134.019H67.4374L70.4573 93.4559C70.6431 91.0327 68.7254 88.9736 66.3021 88.9736H33.4099C30.9792 88.9736 29.0688 91.0327 29.2472 93.4559L32.2672 134.019Z" fill="#3B2D41"/>
		<path d="M60.9426 88.974C60.4372 91.2114 55.665 92.9657 49.8522 92.9657C44.0394 92.9657 39.2672 91.2114 38.7618 88.974C41.7668 88.974 44.2029 86.5379 44.2029 83.5329V79.333H55.5015V83.5329C55.5015 86.5379 57.9376 88.974 60.9426 88.974Z" fill="#F7CAA6"/>
		<path d="M49.9875 47.7168C55.1926 47.7168 59.8813 50.8506 61.8768 55.6579C65.2235 63.7203 69.2457 75.5688 65.9582 79.5629C60.8407 85.7804 38.8647 85.7804 33.7472 79.5629C30.4597 75.5688 34.4819 63.7203 37.8286 55.6579C39.8241 50.8506 44.5129 47.7168 49.7179 47.7168" fill="#3B2D41"/>
		<path d="M57.4267 50.084C59.3668 51.4591 60.9204 53.362 61.8792 55.6589C65.2242 63.724 69.2456 75.5727 65.9601 79.5643C60.8386 85.7786 38.8658 85.7786 33.7443 79.5643C33.5659 79.3488 33.4172 79.1184 33.2908 78.8582C40.7167 83.2513 58.7796 82.6641 63.351 77.1039C66.6365 73.1048 62.6151 61.2562 59.2701 53.1985C58.8018 52.0612 58.1775 51.0131 57.4267 50.084Z" fill="#3B2D41"/>
		<path d="M70.3089 144.679H29.5509C26.0885 144.679 23.2817 141.872 23.2817 138.41V107.124C23.2817 103.661 26.0885 100.854 29.5509 100.854H70.3089C73.7713 100.854 76.5781 103.661 76.5781 107.124V138.41C76.5781 141.872 73.7713 144.679 70.3089 144.679Z" fill="#F46658"/>
		<path d="M52.8538 123.855H47.0054V144.563H52.8538V123.855Z" fill="#CEDEED"/>
		<path d="M55.1538 129.17H44.7061C43.7145 129.17 42.9106 128.366 42.9106 127.374V124.224C42.9106 123.233 43.7145 122.429 44.7061 122.429H55.1538C56.1454 122.429 56.9492 123.233 56.9492 124.224V127.374C56.9492 128.366 56.1454 129.17 55.1538 129.17Z" fill="#CEDEED"/>
		<path d="M93.6075 43.5701C93.6075 47.9552 90.0423 51.5204 85.6324 51.5204H71.0735C67.4636 51.5204 64.165 49.0742 63.322 45.3589C63.1854 44.7875 63.1108 44.1788 63.1108 43.5701C63.1108 39.1726 66.676 35.6074 71.0735 35.6074H85.6324C90.0552 35.6074 93.6075 39.181 93.6075 43.5701Z" fill="#DCDADD"/>
		<path d="M80.2934 51.5234L85.7919 54.7369V51.5234H80.2934Z" fill="#DCDADD"/>
		<path d="M88.8119 40.5225H67.9028V41.2535H88.8119V40.5225Z" fill="#3B2D41"/>
		<path d="M88.8119 43.2021H67.9028V43.9332H88.8119V43.2021Z" fill="#3B2D41"/>
		<path d="M88.8118 45.876H77.424V46.607H88.8118V45.876Z" fill="#3B2D41"/>
		<path opacity="0.1" d="M81.6573 37.4087C81.6573 39.6074 80.7628 41.595 79.3343 43.0359C77.8933 44.4645 75.9058 45.3589 73.707 45.3589H63.322C63.1854 44.7875 63.1108 44.1788 63.1108 43.5701C63.1108 39.1726 66.676 35.6074 71.0735 35.6074H81.4461C81.5828 36.1788 81.6573 36.7876 81.6573 37.4087Z" fill="#3B2D41"/>
		<path d="M80.7284 36.1561C80.7284 38.3536 79.8311 40.3431 78.4008 41.7865C76.9575 43.2168 74.968 44.114 72.7705 44.114H58.207C53.7991 44.114 50.2361 40.5512 50.2361 36.1561C50.2361 31.7542 53.7851 28.1982 58.207 28.1982H72.7705C77.1655 28.1982 80.7284 31.7611 80.7284 36.1561Z" fill="#DCDADD"/>
		<path d="M63.5458 44.1133L58.0493 47.3287V44.1133H63.5458Z" fill="#DCDADD"/>
		<path d="M75.9365 33.1123H55.0274V33.8434H75.9365V33.1123Z" fill="#3B2D41"/>
		<path d="M75.9365 35.79H55.0274V36.5211H75.9365V35.79Z" fill="#3B2D41"/>
		<path d="M66.4153 38.4688H55.0274V39.1998H66.4153V38.4688Z" fill="#3B2D41"/>
	</g>
</svg>
