<svg width="171" height="171" viewBox="0 0 171 171" fill="none" xmlns="http://www.w3.org/2000/svg">
	<g clip-path="url(#clip0_999_231)">
		<path d="M85.5 170.581C132.489 170.581 170.581 132.489 170.581 85.5C170.581 38.511 132.489 0.418945 85.5 0.418945C38.511 0.418945 0.418938 38.511 0.418938 85.5C0.418938 132.489 38.511 170.581 85.5 170.581Z" fill="#F7B01A"/>
		<path d="M72.6112 58.1338H51.9703V62.9413H72.6112V58.1338Z" fill="#3B2D41"/>
		<path d="M80.2796 86.0337V93.5261C80.2796 94.921 79.1491 96.0483 77.7574 96.0483H46.8248C45.4323 96.0483 44.3027 94.921 44.3027 93.5261V86.0337C44.3027 80.4612 48.8205 75.9434 54.393 75.9434H70.1892C75.7617 75.9434 80.2796 80.4612 80.2796 86.0337Z" fill="#DCDADD"/>
		<path d="M70.1893 75.9434H65.1441C70.7166 75.9434 75.2344 80.4612 75.2344 86.0337V93.5261C75.2344 94.921 74.104 96.0483 72.7122 96.0483H77.7574C79.1499 96.0483 80.2796 94.921 80.2796 93.5261V86.0337C80.2796 80.4612 75.7618 75.9434 70.1893 75.9434Z" fill="#CDCBCE"/>
		<path d="M72.2701 84.79C71.8983 84.79 71.596 85.0916 71.596 85.4642V96.0479H72.9435V85.4642C72.9435 85.0916 72.642 84.79 72.2701 84.79ZM52.3121 84.79C51.9403 84.79 51.6379 85.0916 51.6379 85.4642V96.0479H52.9855V85.4642C52.9855 85.0916 52.6839 84.79 52.3121 84.79Z" fill="#CDCBCE"/>
		<path d="M59.3916 70.3418V77.5168C59.3916 78.0718 59.5511 78.6157 59.851 79.0822C60.9918 80.86 63.5905 80.86 64.7312 79.0822C65.0312 78.6149 65.1907 78.0718 65.1907 77.5168V70.3418H59.3916Z" fill="#FFD0A5"/>
		<path d="M62.6677 70.3418V77.5168C62.6677 78.0718 62.5082 78.6157 62.2082 79.0822C61.9019 79.5598 61.4898 79.9095 61.0296 80.1298C62.2824 80.7313 63.8968 80.3824 64.7312 79.0822C65.0312 78.6149 65.1906 78.0718 65.1906 77.5168V70.3418H62.6677Z" fill="#E8C197"/>
		<path d="M53.1607 65.8837C54.7852 65.8837 56.1021 64.5668 56.1021 62.9424C56.1021 61.3179 54.7852 60.001 53.1607 60.001C51.5363 60.001 50.2194 61.3179 50.2194 62.9424C50.2194 64.5668 51.5363 65.8837 53.1607 65.8837Z" fill="#FFD0A5"/>
		<path d="M53.1607 64.6328C54.0946 64.6328 54.8517 63.8758 54.8517 62.9419C54.8517 62.008 54.0946 61.251 53.1607 61.251C52.2268 61.251 51.4698 62.008 51.4698 62.9419C51.4698 63.8758 52.2268 64.6328 53.1607 64.6328Z" fill="#D1AB86"/>
		<path d="M71.4207 65.8837C73.0452 65.8837 74.3621 64.5668 74.3621 62.9424C74.3621 61.3179 73.0452 60.001 71.4207 60.001C69.7962 60.001 68.4794 61.3179 68.4794 62.9424C68.4794 64.5668 69.7962 65.8837 71.4207 65.8837Z" fill="#FFD0A5"/>
		<path d="M71.4207 64.6328C72.3546 64.6328 73.1117 63.8758 73.1117 62.9419C73.1117 62.008 72.3546 61.251 71.4207 61.251C70.4869 61.251 69.7298 62.008 69.7298 62.9419C69.7298 63.8758 70.4869 64.6328 71.4207 64.6328Z" fill="#D1AB86"/>
		<path d="M71.4279 58.1113V62.8534C71.4586 67.9317 67.2021 72.0335 62.2911 71.9901C57.3802 72.0327 53.1236 67.9317 53.1544 62.8534V58.1113C53.1544 53.0662 57.246 48.9746 62.2911 48.9746C67.3371 48.973 71.4263 53.0669 71.4279 58.1113Z" fill="#FFD0A5"/>
		<path d="M63.9157 66.2402C64.1668 66.2402 64.3578 66.4747 64.2994 66.7194C64.0831 67.628 63.2661 68.3046 62.2911 68.3046C61.3162 68.3046 60.4991 67.6288 60.2828 66.7194C60.2244 66.4747 60.4155 66.2402 60.6665 66.2402H63.9157Z" fill="#D1AB86"/>
		<path d="M62.2911 48.9746C61.8633 48.9746 61.4433 49.0038 61.0312 49.0607C65.4796 49.6748 68.9041 53.4948 68.9057 58.1113V62.8534C68.9333 67.4912 65.3864 71.3135 61.0304 71.9096C61.4441 71.9664 61.8656 71.994 62.2911 71.9901C67.2021 72.0335 71.4586 67.9317 71.4278 62.8534V58.1113C71.4263 53.0669 67.3371 48.973 62.2911 48.9746Z" fill="#E8C197"/>
		<path d="M57.9975 62.7633C58.6087 62.7633 59.1043 62.2678 59.1043 61.6566C59.1043 61.0453 58.6087 60.5498 57.9975 60.5498C57.3862 60.5498 56.8907 61.0453 56.8907 61.6566C56.8907 62.2678 57.3862 62.7633 57.9975 62.7633Z" fill="#725246"/>
		<path d="M66.5848 62.7633C67.196 62.7633 67.6916 62.2678 67.6916 61.6566C67.6916 61.0453 67.196 60.5498 66.5848 60.5498C65.9735 60.5498 65.478 61.0453 65.478 61.6566C65.478 62.2678 65.9735 62.7633 66.5848 62.7633Z" fill="#725246"/>
		<path d="M53.1544 58.1114C53.1544 53.0663 57.2452 52.9739 62.2911 52.9739V52.9628C67.3363 52.9628 71.4279 53.0655 71.4279 58.1114V58.1343H72.612C72.612 52.4347 67.9915 47.8135 62.2911 47.8135C56.5915 47.8135 51.9703 52.4339 51.9703 58.1343H53.1544V58.1114Z" fill="#3B2D41"/>
		<path d="M113.784 72.5913C117.402 72.5913 120.402 69.6965 120.424 66.0786C120.424 66.0541 120.424 66.0296 120.424 66.0052V57.4013C120.424 50.9312 115.179 45.6855 108.708 45.6855C102.238 45.6855 96.9923 50.9304 96.9923 57.4013V66.0052C96.9923 66.0296 96.9923 66.0541 96.9923 66.0786C97.0144 69.6965 100.014 72.5913 103.632 72.5913H113.784Z" fill="#3B2D41"/>
		<path d="M126.697 86.0337V93.5261C126.697 94.921 125.567 96.0483 124.175 96.0483H93.2434C91.8509 96.0483 90.7212 94.921 90.7212 93.5261V86.0337C90.7212 80.4612 95.239 75.9434 100.812 75.9434H116.608C122.179 75.9434 126.697 80.4612 126.697 86.0337Z" fill="#3B2D41"/>
		<path d="M116.607 75.9434H111.562C117.134 75.9434 121.652 80.4612 121.652 86.0337V93.5261C121.652 94.921 120.522 96.0483 119.13 96.0483H124.175C125.568 96.0483 126.697 94.921 126.697 93.5261V86.0337C126.697 80.4612 122.179 75.9434 116.607 75.9434Z" fill="#312735"/>
		<path d="M118.688 84.79C118.316 84.79 118.014 85.0916 118.014 85.4642V96.0479H119.361V85.4642C119.362 85.0916 119.06 84.79 118.688 84.79ZM98.7298 84.79C98.358 84.79 98.0557 85.0916 98.0557 85.4642V96.0479H99.4032V85.4642C99.404 85.0916 99.1024 84.79 98.7298 84.79Z" fill="#312735"/>
		<path d="M105.81 70.3418V77.5168C105.81 78.0718 105.97 78.6157 106.27 79.0822C107.41 80.86 110.009 80.86 111.15 79.0822C111.45 78.6149 111.609 78.0718 111.609 77.5168V70.3418H105.81Z" fill="#FFD0A5"/>
		<path d="M109.085 70.3418V77.5168C109.085 78.0718 108.926 78.6157 108.626 79.0822C108.32 79.5598 107.908 79.9095 107.447 80.1298C108.7 80.7313 110.315 80.3824 111.149 79.0822C111.449 78.6149 111.608 78.0718 111.608 77.5168V70.3418H109.085Z" fill="#E8C197"/>
		<path d="M117.846 58.1113V62.8534C117.876 67.9317 113.62 72.0335 108.709 71.9901C103.798 72.0327 99.5414 67.9317 99.5722 62.8534V58.1113C99.5722 53.0662 103.664 48.9746 108.709 48.9746C113.756 48.973 117.845 53.0669 117.846 58.1113Z" fill="#FFD0A5"/>
		<path d="M110.334 66.2402C110.585 66.2402 110.776 66.4747 110.717 66.7194C110.501 67.628 109.684 68.3046 108.709 68.3046C107.734 68.3046 106.917 67.6288 106.701 66.7194C106.642 66.4747 106.833 66.2402 107.084 66.2402H110.334Z" fill="#D1AB86"/>
		<path d="M108.709 48.9746C108.281 48.9746 107.861 49.0038 107.449 49.0607C111.897 49.6748 115.322 53.4948 115.323 58.1113V62.8534C115.351 67.4912 111.804 71.3135 107.448 71.9096C107.862 71.9664 108.283 71.994 108.709 71.9901C113.62 72.0335 117.876 67.9317 117.846 62.8534V58.1113C117.845 53.0669 113.756 48.973 108.709 48.9746Z" fill="#E8C197"/>
		<path d="M104.415 62.7633C105.026 62.7633 105.522 62.2678 105.522 61.6566C105.522 61.0453 105.026 60.5498 104.415 60.5498C103.804 60.5498 103.308 61.0453 103.308 61.6566C103.308 62.2678 103.804 62.7633 104.415 62.7633Z" fill="#725246"/>
		<path d="M113.003 62.7633C113.614 62.7633 114.109 62.2678 114.109 61.6566C114.109 61.0453 113.614 60.5498 113.003 60.5498C112.391 60.5498 111.896 61.0453 111.896 61.6566C111.896 62.2678 112.391 62.7633 113.003 62.7633Z" fill="#725246"/>
		<path d="M120.425 58.812V57.4013C120.425 50.9312 115.18 45.6855 108.709 45.6855C102.238 45.6855 96.9932 50.9304 96.9932 57.4013V58.812H120.425Z" fill="#3B2D41"/>
		<path d="M90.8546 97.0086C94.6715 97.0086 97.837 93.9543 97.8599 90.1367C97.8599 90.1106 97.8599 90.0854 97.8599 90.0593V80.9818C97.8599 74.1549 92.3261 68.6211 85.4992 68.6211C78.6723 68.6211 73.1385 74.1549 73.1385 80.9818V90.0593C73.1385 90.0854 73.1385 90.1106 73.1385 90.1367C73.1622 93.9535 76.327 97.0086 80.1438 97.0086H90.8546Z" fill="#3B2D41"/>
		<path d="M104.479 111.192V119.096C104.479 120.568 103.287 121.758 101.818 121.758H69.1828C67.7136 121.758 66.5216 120.568 66.5216 119.096V111.192C66.5216 105.312 71.2881 100.546 77.1677 100.546H93.8339C99.7127 100.546 104.479 105.313 104.479 111.192Z" fill="#F46658"/>
		<path d="M93.8331 100.546H88.5101C94.3896 100.546 99.1561 105.312 99.1561 111.192V119.096C99.1561 120.568 97.9641 121.758 96.495 121.758H101.818C103.287 121.758 104.479 120.568 104.479 119.096V111.192C104.479 105.313 99.7127 100.546 93.8331 100.546Z" fill="#D45E52"/>
		<path d="M96.0285 109.881C95.6361 109.881 95.3172 110.199 95.3172 110.592V121.759H96.7389V110.592C96.7397 110.199 96.4216 109.881 96.0285 109.881ZM74.9716 109.881C74.5792 109.881 74.2603 110.199 74.2603 110.592V121.759H75.682V110.592C75.6828 110.199 75.3639 109.881 74.9716 109.881Z" fill="#D45E52"/>
		<path d="M82.4418 94.6348V102.204C82.4418 102.79 82.6099 103.363 82.9265 103.857C84.1304 105.732 86.8712 105.732 88.0751 103.857C88.3916 103.364 88.5598 102.79 88.5598 102.204V94.6348H82.4418Z" fill="#FFD0A5"/>
		<path d="M85.8971 94.6348V102.204C85.8971 102.79 85.7289 103.363 85.4124 103.857C85.0887 104.36 84.6545 104.729 84.1691 104.963C85.4913 105.597 87.1941 105.229 88.0743 103.857C88.3909 103.364 88.559 102.79 88.559 102.204V94.6348H85.8971Z" fill="#E8C197"/>
		<path d="M95.1404 81.7314V86.7347C95.1727 92.0925 90.6817 96.4201 85.5008 96.3743C80.3191 96.4193 75.8288 92.0925 75.8612 86.7347V81.7314C75.8612 76.4083 80.1785 72.0918 85.5008 72.0918C90.8238 72.0902 95.1388 76.4099 95.1404 81.7314Z" fill="#FFD0A5"/>
		<path d="M87.2146 90.3086C87.4799 90.3086 87.6804 90.5565 87.6196 90.8138C87.3914 91.773 86.5294 92.4858 85.5008 92.4858C84.4722 92.4858 83.6101 91.7722 83.382 90.8138C83.3204 90.5557 83.5217 90.3086 83.787 90.3086H87.2146Z" fill="#D1AB86"/>
		<path d="M85.5 72.0918C85.0493 72.0918 84.6048 72.1226 84.1706 72.1826C88.8637 72.8307 92.4769 76.8615 92.4785 81.7314V86.7347C92.5077 91.6275 88.7658 95.6614 84.1698 96.2898C84.6064 96.3498 85.0508 96.3782 85.5 96.3743C90.6817 96.4201 95.172 92.0925 95.1404 86.7347V81.7314C95.1388 76.4099 90.8238 72.0902 85.5 72.0918Z" fill="#E8C197"/>
		<path d="M80.9703 86.6408C81.6152 86.6408 82.1379 86.118 82.1379 85.4732C82.1379 84.8284 81.6152 84.3057 80.9703 84.3057C80.3255 84.3057 79.8028 84.8284 79.8028 85.4732C79.8028 86.118 80.3255 86.6408 80.9703 86.6408Z" fill="#725246"/>
		<path d="M90.0305 86.6408C90.6753 86.6408 91.198 86.118 91.198 85.4732C91.198 84.8284 90.6753 84.3057 90.0305 84.3057C89.3856 84.3057 88.8629 84.8284 88.8629 85.4732C88.8629 86.118 89.3856 86.6408 90.0305 86.6408Z" fill="#725246"/>
		<path d="M97.8607 82.4706V80.9818C97.8607 74.1549 92.3269 68.6211 85.5 68.6211C78.6731 68.6211 73.1393 74.1549 73.1393 80.9818V82.4706H97.8607Z" fill="#3B2D41"/>
		<path d="M47.4138 81.7559H25.6361V86.8279H47.4138V81.7559Z" fill="#3B2D41"/>
		<path d="M55.5045 111.192V119.096C55.5045 120.568 54.3125 121.758 52.8434 121.758H20.2081C18.739 121.758 17.5469 120.568 17.5469 119.096V111.192C17.5469 105.312 22.3134 100.546 28.193 100.546H44.8592C50.738 100.546 55.5045 105.313 55.5045 111.192Z" fill="#3B2D41"/>
		<path d="M44.8584 100.546H39.5354C45.415 100.546 50.1815 105.312 50.1815 111.192V119.096C50.1815 120.568 48.9894 121.758 47.5203 121.758H52.8434C54.3125 121.758 55.5045 120.568 55.5045 119.096V111.192C55.5045 105.313 50.738 100.546 44.8584 100.546Z" fill="#312735"/>
		<path d="M47.0538 109.881C46.6614 109.881 46.3425 110.199 46.3425 110.592V121.759H47.7643V110.592C47.7651 110.199 47.4469 109.881 47.0538 109.881ZM25.9969 109.881C25.6045 109.881 25.2856 110.199 25.2856 110.592V121.759H26.7073V110.592C26.7073 110.199 26.3892 109.881 25.9969 109.881Z" fill="#312735"/>
		<path d="M33.4663 94.6348V102.204C33.4663 102.79 33.6345 103.363 33.951 103.857C35.1549 105.732 37.8958 105.732 39.0996 103.857C39.4162 103.364 39.5843 102.79 39.5843 102.204V94.6348H33.4663Z" fill="#FFD0A5"/>
		<path d="M36.9224 94.6348V102.204C36.9224 102.79 36.7543 103.363 36.4377 103.857C36.114 104.36 35.6799 104.729 35.1944 104.963C36.5166 105.597 38.2194 105.229 39.0996 103.857C39.4162 103.364 39.5843 102.79 39.5843 102.204V94.6348H36.9224Z" fill="#E8C197"/>
		<path d="M26.8929 89.931C28.6067 89.931 29.9961 88.5417 29.9961 86.8278C29.9961 85.114 28.6067 83.7246 26.8929 83.7246C25.179 83.7246 23.7897 85.114 23.7897 86.8278C23.7897 88.5417 25.179 89.931 26.8929 89.931Z" fill="#FFD0A5"/>
		<path d="M26.8928 88.6121C27.8782 88.6121 28.6769 87.8134 28.6769 86.828C28.6769 85.8427 27.8782 85.0439 26.8928 85.0439C25.9075 85.0439 25.1088 85.8427 25.1088 86.828C25.1088 87.8134 25.9075 88.6121 26.8928 88.6121Z" fill="#D1AB86"/>
		<path d="M46.1578 89.931C47.8716 89.931 49.261 88.5417 49.261 86.8278C49.261 85.114 47.8716 83.7246 46.1578 83.7246C44.4439 83.7246 43.0546 85.114 43.0546 86.8278C43.0546 88.5417 44.4439 89.931 46.1578 89.931Z" fill="#FFD0A5"/>
		<path d="M46.1578 88.6121C47.1431 88.6121 47.9419 87.8134 47.9419 86.828C47.9419 85.8427 47.1431 85.0439 46.1578 85.0439C45.1725 85.0439 44.3737 85.8427 44.3737 86.828C44.3737 87.8134 45.1725 88.6121 46.1578 88.6121Z" fill="#D1AB86"/>
		<path d="M46.1649 81.7314V86.7347C46.1973 92.0925 41.7063 96.4201 36.5253 96.3743C31.3436 96.4193 26.8534 92.0925 26.8857 86.7347V81.7314C26.8857 76.4083 31.2031 72.0918 36.5253 72.0918C41.8492 72.0902 46.1641 76.4099 46.1649 81.7314Z" fill="#FFD0A5"/>
		<path d="M38.2392 90.3086C38.5044 90.3086 38.7049 90.5565 38.6441 90.8138C38.416 91.773 37.5539 92.4858 36.5253 92.4858C35.4967 92.4858 34.6347 91.7722 34.4065 90.8138C34.345 90.5557 34.5463 90.3086 34.8115 90.3086H38.2392Z" fill="#D1AB86"/>
		<path d="M36.5253 72.0918C36.0746 72.0918 35.6301 72.1226 35.1959 72.1826C39.889 72.8307 43.5022 76.8615 43.5038 81.7314V86.7347C43.533 91.6275 39.7911 95.6614 35.1952 96.2898C35.6317 96.3498 36.0761 96.3782 36.5253 96.3743C41.7071 96.4201 46.1973 92.0925 46.1649 86.7347V81.7314C46.1641 76.4099 41.8492 72.0902 36.5253 72.0918Z" fill="#E8C197"/>
		<path d="M31.9949 86.6408C32.6397 86.6408 33.1624 86.118 33.1624 85.4732C33.1624 84.8284 32.6397 84.3057 31.9949 84.3057C31.35 84.3057 30.8273 84.8284 30.8273 85.4732C30.8273 86.118 31.35 86.6408 31.9949 86.6408Z" fill="#725246"/>
		<path d="M41.0558 86.6408C41.7006 86.6408 42.2233 86.118 42.2233 85.4732C42.2233 84.8284 41.7006 84.3057 41.0558 84.3057C40.411 84.3057 39.8882 84.8284 39.8882 85.4732C39.8882 86.118 40.411 86.6408 41.0558 86.6408Z" fill="#725246"/>
		<path d="M26.8858 81.7319C26.8858 76.4089 31.2015 76.3118 36.5253 76.3118V76.3C41.8484 76.3 46.1649 76.4081 46.1649 81.7319V81.7564H47.4146C47.4146 75.7426 42.5391 70.8672 36.5253 70.8672C30.5116 70.8672 25.6361 75.7426 25.6361 81.7564H26.8858V81.7319Z" fill="#3B2D41"/>
		<path d="M145.363 81.7568H123.585V86.8288H145.363V81.7568Z" fill="#3B2D41"/>
		<path d="M153.454 111.192V119.096C153.454 120.568 152.262 121.758 150.793 121.758H118.157C116.688 121.758 115.496 120.568 115.496 119.096V111.192C115.496 105.312 120.263 100.546 126.142 100.546H142.809C148.687 100.546 153.454 105.313 153.454 111.192Z" fill="#DCDADD"/>
		<path d="M142.808 100.546H137.485C143.364 100.546 148.131 105.312 148.131 111.192V119.096C148.131 120.568 146.939 121.758 145.47 121.758H150.793C152.262 121.758 153.454 120.568 153.454 119.096V111.192C153.454 105.313 148.687 100.546 142.808 100.546Z" fill="#CDCBCE"/>
		<path d="M145.003 109.881C144.611 109.881 144.292 110.199 144.292 110.592V121.759H145.714V110.592C145.714 110.199 145.396 109.881 145.003 109.881ZM123.946 109.881C123.554 109.881 123.235 110.199 123.235 110.592V121.759H124.657V110.592C124.657 110.199 124.339 109.881 123.946 109.881Z" fill="#CDCBCE"/>
		<path d="M131.416 94.6348V102.204C131.416 102.79 131.584 103.363 131.9 103.857C133.104 105.732 135.845 105.732 137.049 103.857C137.366 103.364 137.534 102.79 137.534 102.204V94.6348H131.416Z" fill="#FFD0A5"/>
		<path d="M134.872 94.6348V102.204C134.872 102.79 134.704 103.363 134.387 103.857C134.063 104.36 133.629 104.729 133.144 104.963C134.466 105.597 136.169 105.229 137.049 103.857C137.366 103.364 137.534 102.79 137.534 102.204V94.6348H134.872Z" fill="#E8C197"/>
		<path d="M124.842 89.932C126.556 89.932 127.945 88.5426 127.945 86.8288C127.945 85.1149 126.556 83.7256 124.842 83.7256C123.128 83.7256 121.739 85.1149 121.739 86.8288C121.739 88.5426 123.128 89.932 124.842 89.932Z" fill="#FFD0A5"/>
		<path d="M124.842 88.6121C125.828 88.6121 126.626 87.8134 126.626 86.828C126.626 85.8427 125.828 85.0439 124.842 85.0439C123.857 85.0439 123.058 85.8427 123.058 86.828C123.058 87.8134 123.857 88.6121 124.842 88.6121Z" fill="#D1AB86"/>
		<path d="M144.107 89.932C145.821 89.932 147.21 88.5426 147.21 86.8288C147.21 85.1149 145.821 83.7256 144.107 83.7256C142.393 83.7256 141.004 85.1149 141.004 86.8288C141.004 88.5426 142.393 89.932 144.107 89.932Z" fill="#FFD0A5"/>
		<path d="M144.107 88.6121C145.092 88.6121 145.891 87.8134 145.891 86.828C145.891 85.8427 145.092 85.0439 144.107 85.0439C143.122 85.0439 142.323 85.8427 142.323 86.828C142.323 87.8134 143.122 88.6121 144.107 88.6121Z" fill="#D1AB86"/>
		<path d="M144.114 81.7324V86.7357C144.147 92.0935 139.656 96.421 134.475 96.3753C129.293 96.4203 124.803 92.0935 124.835 86.7357V81.7324C124.835 76.4093 129.152 72.0928 134.475 72.0928C139.799 72.0912 144.113 76.4109 144.114 81.7324Z" fill="#FFD0A5"/>
		<path d="M136.189 90.3086C136.454 90.3086 136.654 90.5565 136.594 90.8138C136.365 91.773 135.503 92.4858 134.475 92.4858C133.446 92.4858 132.584 91.7722 132.356 90.8138C132.294 90.5557 132.496 90.3086 132.761 90.3086H136.189Z" fill="#D1AB86"/>
		<path d="M134.475 72.0928C134.024 72.0928 133.579 72.1236 133.145 72.1836C137.838 72.8317 141.452 76.8624 141.453 81.7324V86.7357C141.482 91.6285 137.741 95.6624 133.145 96.2908C133.581 96.3508 134.026 96.3792 134.475 96.3753C139.656 96.421 144.147 92.0935 144.114 86.7357V81.7324C144.113 76.4109 139.799 72.0912 134.475 72.0928Z" fill="#E8C197"/>
		<path d="M129.944 86.6408C130.589 86.6408 131.112 86.118 131.112 85.4732C131.112 84.8284 130.589 84.3057 129.944 84.3057C129.299 84.3057 128.777 84.8284 128.777 85.4732C128.777 86.118 129.299 86.6408 129.944 86.6408Z" fill="#725246"/>
		<path d="M139.005 86.6408C139.65 86.6408 140.173 86.118 140.173 85.4732C140.173 84.8284 139.65 84.3057 139.005 84.3057C138.36 84.3057 137.838 84.8284 137.838 85.4732C137.838 86.118 138.36 86.6408 139.005 86.6408Z" fill="#725246"/>
		<path d="M124.835 81.7319C124.835 76.4089 129.151 76.3118 134.475 76.3118V76.3C139.798 76.3 144.114 76.4081 144.114 81.7319V81.7564H145.364C145.364 75.7426 140.488 70.8672 134.475 70.8672C128.461 70.8672 123.585 75.7426 123.585 81.7564H124.835V81.7319Z" fill="#3B2D41"/>
		<path d="M70.1308 105.344H45.516V111.077H70.1308V105.344Z" fill="#3B2D41"/>
		<path d="M79.2747 138.614V147.549C79.2747 149.212 77.9271 150.557 76.2662 150.557H39.3799C37.7197 150.557 36.3714 149.213 36.3714 147.549V138.614C36.3714 131.969 41.7592 126.582 48.4037 126.582H67.2408C73.8869 126.582 79.2747 131.969 79.2747 138.614Z" fill="#DCDADD"/>
		<path d="M67.2416 126.582H61.2254C67.8707 126.582 73.2577 131.97 73.2577 138.614V147.549C73.2577 149.212 71.9102 150.557 70.2493 150.557H76.2654C77.9255 150.557 79.2739 149.213 79.2739 147.549V138.614C79.2747 131.969 73.8869 126.582 67.2416 126.582Z" fill="#CDCBCE"/>
		<path d="M69.7227 137.132C69.2791 137.132 68.9191 137.492 68.9191 137.935V150.557H70.5263V137.935C70.5263 137.492 70.1672 137.132 69.7227 137.132ZM45.9233 137.132C45.4797 137.132 45.1197 137.492 45.1197 137.935V150.557H46.727V137.935C46.727 137.492 46.367 137.132 45.9233 137.132Z" fill="#CDCBCE"/>
		<path d="M54.3662 119.9V128.456C54.3662 129.118 54.5564 129.766 54.914 130.323C56.2742 132.443 59.3727 132.443 60.7336 130.323C61.0912 129.766 61.2815 129.118 61.2815 128.456V119.9H54.3662Z" fill="#FFD0A5"/>
		<path d="M58.2722 119.9V128.456C58.2722 129.118 58.082 129.766 57.7244 130.323C57.3589 130.893 56.8678 131.309 56.3184 131.573C57.8128 132.29 59.7374 131.873 60.732 130.323C61.0896 129.766 61.2799 129.118 61.2799 128.456V119.9H58.2722Z" fill="#E8C197"/>
		<path d="M46.9354 114.584C48.8725 114.584 50.4428 113.014 50.4428 111.077C50.4428 109.14 48.8725 107.569 46.9354 107.569C44.9983 107.569 43.428 109.14 43.428 111.077C43.428 113.014 44.9983 114.584 46.9354 114.584Z" fill="#FFD0A5"/>
		<path d="M46.9354 113.093C48.0493 113.093 48.9524 112.19 48.9524 111.077C48.9524 109.963 48.0493 109.06 46.9354 109.06C45.8215 109.06 44.9184 109.963 44.9184 111.077C44.9184 112.19 45.8215 113.093 46.9354 113.093Z" fill="#D1AB86"/>
		<path d="M68.7107 114.584C70.6478 114.584 72.2181 113.014 72.2181 111.077C72.2181 109.14 70.6478 107.569 68.7107 107.569C66.7736 107.569 65.2033 109.14 65.2033 111.077C65.2033 113.014 66.7736 114.584 68.7107 114.584Z" fill="#FFD0A5"/>
		<path d="M68.7107 113.093C69.8246 113.093 70.7277 112.19 70.7277 111.077C70.7277 109.963 69.8246 109.06 68.7107 109.06C67.5968 109.06 66.6937 109.963 66.6937 111.077C66.6937 112.19 67.5968 113.093 68.7107 113.093Z" fill="#D1AB86"/>
		<path d="M68.7186 105.316V110.972C68.7549 117.027 63.6797 121.919 57.823 121.867C51.9671 121.919 46.8912 117.028 46.9275 110.972V105.316C46.9275 99.3003 51.8069 94.4209 57.823 94.4209C63.8408 94.4193 68.717 99.3019 68.7186 105.316Z" fill="#FFD0A5"/>
		<path d="M59.7603 115.011C60.0602 115.011 60.2868 115.29 60.2173 115.582C59.96 116.666 58.9851 117.472 57.8222 117.472C56.6594 117.472 55.6853 116.666 55.4271 115.582C55.3577 115.291 55.585 115.011 55.8842 115.011H59.7603Z" fill="#D1AB86"/>
		<path d="M57.823 94.4209C57.3131 94.4209 56.8118 94.4564 56.32 94.5235C61.6249 95.2561 65.7085 99.8118 65.7101 105.316V110.972C65.7433 116.502 61.5136 121.061 56.3192 121.772C56.8126 121.839 57.3147 121.872 57.823 121.867C63.6797 121.919 68.7549 117.028 68.7186 110.972V105.316C68.717 99.3019 63.8408 94.4193 57.823 94.4209Z" fill="#E8C197"/>
		<path d="M52.7029 110.864C53.4318 110.864 54.0228 110.273 54.0228 109.545C54.0228 108.816 53.4318 108.225 52.7029 108.225C51.9739 108.225 51.383 108.816 51.383 109.545C51.383 110.273 51.9739 110.864 52.7029 110.864Z" fill="#725246"/>
		<path d="M62.9432 110.864C63.6722 110.864 64.2631 110.273 64.2631 109.545C64.2631 108.816 63.6722 108.225 62.9432 108.225C62.2142 108.225 61.6233 108.816 61.6233 109.545C61.6233 110.273 62.2142 110.864 62.9432 110.864Z" fill="#725246"/>
		<path d="M46.9275 105.317C46.9275 99.3004 51.8053 99.1906 57.823 99.1906V99.1772C63.8392 99.1772 68.7186 99.2996 68.7186 105.317V105.344H70.1308C70.1308 98.5472 64.6207 93.0371 57.8238 93.0371C51.0269 93.0371 45.5168 98.5472 45.5168 105.344H46.9291V105.317H46.9275Z" fill="#3B2D41"/>
		<path d="M119.229 122.583C123.543 122.583 127.12 119.131 127.146 114.817C127.146 114.788 127.146 114.759 127.146 114.729V104.469C127.146 96.7536 120.892 90.499 113.176 90.499C105.46 90.499 99.2058 96.7536 99.2058 104.469V114.729C99.2058 114.759 99.2058 114.788 99.2058 114.817C99.2319 119.131 102.81 122.583 107.124 122.583H119.229Z" fill="#3B2D41"/>
		<path d="M134.628 138.614V147.549C134.628 149.212 133.28 150.557 131.619 150.557H94.733C93.0729 150.557 91.7245 149.213 91.7245 147.549V138.614C91.7245 131.969 97.1123 126.582 103.757 126.582H122.594C129.241 126.582 134.628 131.969 134.628 138.614Z" fill="#3B2D41"/>
		<path d="M122.595 126.582H116.579C123.225 126.582 128.612 131.97 128.612 138.614V147.549C128.612 149.212 127.264 150.557 125.603 150.557H131.619C133.279 150.557 134.628 149.213 134.628 147.549V138.614C134.628 131.969 129.241 126.582 122.595 126.582Z" fill="#312735"/>
		<path d="M125.077 137.132C124.633 137.132 124.273 137.492 124.273 137.935V150.557H125.88V137.935C125.88 137.492 125.52 137.132 125.077 137.132ZM101.277 137.132C100.834 137.132 100.474 137.492 100.474 137.935V150.557H102.081V137.935C102.08 137.492 101.721 137.132 101.277 137.132Z" fill="#312735"/>
		<path d="M109.72 119.9V128.456C109.72 129.118 109.91 129.766 110.268 130.323C111.628 132.443 114.727 132.443 116.088 130.323C116.445 129.766 116.635 129.118 116.635 128.456V119.9H109.72Z" fill="#FFD0A5"/>
		<path d="M113.626 119.9V128.456C113.626 129.118 113.436 129.766 113.078 130.323C112.713 130.893 112.222 131.309 111.672 131.573C113.167 132.29 115.091 131.873 116.086 130.323C116.444 129.766 116.634 129.118 116.634 128.456V119.9H113.626Z" fill="#E8C197"/>
		<path d="M124.073 105.316V110.972C124.109 117.027 119.034 121.919 113.177 121.867C107.321 121.919 102.245 117.028 102.281 110.972V105.316C102.281 99.3003 107.161 94.4209 113.177 94.4209C119.195 94.4193 124.071 99.3019 124.073 105.316Z" fill="#FFD0A5"/>
		<path d="M115.114 115.011C115.414 115.011 115.641 115.29 115.571 115.582C115.314 116.666 114.339 117.472 113.176 117.472C112.013 117.472 111.039 116.666 110.781 115.582C110.712 115.291 110.939 115.011 111.238 115.011H115.114Z" fill="#D1AB86"/>
		<path d="M113.177 94.4209C112.667 94.4209 112.166 94.4564 111.674 94.5235C116.979 95.2561 121.062 99.8118 121.064 105.316V110.972C121.097 116.502 116.867 121.061 111.673 121.772C112.167 121.839 112.669 121.872 113.177 121.867C119.034 121.919 124.109 117.028 124.073 110.972V105.316C124.071 99.3019 119.195 94.4193 113.177 94.4209Z" fill="#E8C197"/>
		<path d="M108.057 110.864C108.786 110.864 109.377 110.273 109.377 109.545C109.377 108.816 108.786 108.225 108.057 108.225C107.328 108.225 106.737 108.816 106.737 109.545C106.737 110.273 107.328 110.864 108.057 110.864Z" fill="#725246"/>
		<path d="M118.297 110.864C119.026 110.864 119.617 110.273 119.617 109.545C119.617 108.816 119.026 108.225 118.297 108.225C117.568 108.225 116.977 108.816 116.977 109.545C116.977 110.273 117.568 110.864 118.297 110.864Z" fill="#725246"/>
		<path d="M127.147 106.152V104.469C127.147 96.7536 120.893 90.499 113.177 90.499C105.461 90.499 99.2066 96.7536 99.2066 104.469V106.152H127.147Z" fill="#3B2D41"/>
		<path d="M42.5067 37.9063L46.1223 34.2908C46.5959 33.8171 47.3632 33.8171 47.8361 34.2908L53.9304 40.3851C54.4041 40.8587 54.4041 41.6261 53.9304 42.0989L50.3149 45.7144C49.8412 46.1881 49.0739 46.1881 48.6011 45.7144L42.5067 39.6201C42.0339 39.1473 42.0339 38.38 42.5067 37.9063Z" fill="#DCDADD"/>
		<path d="M24.7488 48.8043L21.1333 45.1888C20.6596 44.7151 20.6596 43.9478 21.1333 43.4749L27.2276 37.3806C27.7012 36.907 28.4685 36.907 28.9414 37.3806L32.5569 40.9962C33.0306 41.4698 33.0306 42.2371 32.5569 42.71L26.4626 48.8043C25.9898 49.2779 25.2225 49.2779 24.7488 48.8043Z" fill="#3B2D41"/>
		<path d="M40.5387 29.9635L36.9232 26.3479C36.4495 25.8743 36.4495 25.107 36.9232 24.6341L43.0175 18.5398C43.4912 18.0662 44.2585 18.0662 44.7313 18.5398L48.3469 22.1553C48.8205 22.629 48.8205 23.3963 48.3469 23.8692L42.2526 29.9635C41.7789 30.4363 41.0116 30.4363 40.5387 29.9635Z" fill="#3B2D41"/>
		<path d="M33.6313 53.4947L37.2469 49.8792C37.7205 49.4055 38.4878 49.4055 38.9607 49.8792L45.055 55.9735C45.5286 56.4471 45.5286 57.2144 45.055 57.6873L41.4395 61.3028C40.9658 61.7765 40.1985 61.7765 39.7256 61.3028L33.6313 55.2085C33.1577 54.7357 33.1577 53.9683 33.6313 53.4947ZM66.8919 20.2815L63.2763 23.8971C62.8027 24.3707 62.0354 24.3707 61.5625 23.8971L55.4682 17.8028C54.9946 17.3291 54.9946 16.5618 55.4682 16.0889L59.0837 12.4734C59.5574 11.9998 60.3247 11.9998 60.7976 12.4734L66.8919 18.5677C67.3655 19.0414 67.3655 19.8087 66.8919 20.2815Z" fill="#DCDADD"/>
		<path d="M64.9815 40.2389L61.3659 36.6233C60.8923 36.1497 60.8923 35.3824 61.3659 34.9095L67.4602 28.8152C67.9339 28.3415 68.7012 28.3415 69.1741 28.8152L72.7896 32.4307C73.2632 32.9044 73.2632 33.6717 72.7896 34.1446L66.6953 40.2389C66.2216 40.7125 65.4543 40.7125 64.9815 40.2389Z" fill="#3B2D41"/>
		<path d="M128.493 37.9063L124.878 34.2908C124.404 33.8171 123.637 33.8171 123.164 34.2908L117.07 40.3851C116.596 40.8587 116.596 41.6261 117.07 42.0989L120.685 45.7144C121.159 46.1881 121.926 46.1881 122.399 45.7144L128.493 39.6201C128.966 39.1473 128.966 38.38 128.493 37.9063Z" fill="#DCDADD"/>
		<path d="M146.251 48.8043L149.867 45.1888C150.34 44.7151 150.34 43.9478 149.867 43.4749L143.772 37.3806C143.299 36.907 142.531 36.907 142.059 37.3806L138.443 40.9962C137.969 41.4698 137.969 42.2371 138.443 42.71L144.537 48.8043C145.01 49.2779 145.778 49.2779 146.251 48.8043Z" fill="#3B2D41"/>
		<path d="M130.461 29.9635L134.077 26.3479C134.55 25.8743 134.55 25.107 134.077 24.6341L127.983 18.5398C127.509 18.0662 126.742 18.0662 126.269 18.5398L122.653 22.1553C122.179 22.629 122.179 23.3963 122.653 23.8692L128.747 29.9635C129.221 30.4363 129.988 30.4363 130.461 29.9635Z" fill="#3B2D41"/>
		<path d="M137.369 53.4947L133.753 49.8792C133.28 49.4055 132.512 49.4055 132.039 49.8792L125.945 55.9735C125.471 56.4471 125.471 57.2144 125.945 57.6873L129.561 61.3028C130.034 61.7765 130.802 61.7765 131.274 61.3028L137.369 55.2085C137.842 54.7357 137.842 53.9683 137.369 53.4947ZM104.108 20.2815L107.724 23.8971C108.197 24.3707 108.965 24.3707 109.438 23.8971L115.532 17.8028C116.005 17.3291 116.005 16.5618 115.532 16.0889L111.916 12.4734C111.443 11.9998 110.675 11.9998 110.202 12.4734L104.108 18.5677C103.635 19.0414 103.635 19.8087 104.108 20.2815Z" fill="#DCDADD"/>
		<path d="M106.019 40.2389L109.634 36.6233C110.108 36.1497 110.108 35.3824 109.634 34.9095L103.54 28.8152C103.066 28.3415 102.299 28.3415 101.826 28.8152L98.2104 32.4307C97.7368 32.9044 97.7368 33.6717 98.2104 34.1446L104.305 40.2389C104.778 40.7125 105.546 40.7125 106.019 40.2389Z" fill="#3B2D41"/>
		<path d="M83.3504 15.2061L79.7349 11.5906C79.2612 11.1169 78.4939 11.1169 78.0211 11.5906L71.9268 17.6849C71.4531 18.1585 71.4531 18.9259 71.9268 19.3987L75.5423 23.0143C76.016 23.4879 76.7833 23.4879 77.2561 23.0143L83.3504 16.9199C83.8241 16.4463 83.8241 15.679 83.3504 15.2061Z" fill="#DCDADD"/>
		<path d="M91.2644 11.591L87.6488 15.2065C87.1752 15.6802 87.1752 16.4475 87.6488 16.9203L93.7431 23.0146C94.2168 23.4883 94.9841 23.4883 95.457 23.0146L99.0725 19.3991C99.5461 18.9255 99.5461 18.1581 99.0725 17.6853L92.9782 11.591C92.5053 11.1181 91.738 11.1181 91.2644 11.591Z" fill="#DCDADD"/>
		<path d="M83.4043 28.8156L79.7888 32.4311C79.3152 32.9048 79.3152 33.6721 79.7888 34.1449L85.8831 40.2392C86.3568 40.7129 87.1241 40.7129 87.5969 40.2392L91.2125 36.6237C91.6861 36.1501 91.6861 35.3827 91.2125 34.9099L85.1182 28.8156C84.6445 28.3427 83.8772 28.3427 83.4043 28.8156Z" fill="#3B2D41"/>
		<path d="M91.2115 51.7178L87.5959 48.1023C87.1223 47.6287 86.355 47.6287 85.8821 48.1023L79.7878 54.1966C79.3141 54.6703 79.3141 55.4376 79.7878 55.9104L83.4033 59.526C83.877 59.9996 84.6443 59.9996 85.1172 59.526L91.2115 53.4317C91.6851 52.9588 91.6851 52.1915 91.2115 51.7178Z" fill="#DCDADD"/>
	</g>
</svg>
