<?xml version="1.0" standalone="no"?>
<!DOCTYPE svg PUBLIC "-//W3C//DTD SVG 20010904//EN"
 "http://www.w3.org/TR/2001/REC-SVG-20010904/DTD/svg10.dtd">
<svg version="1.0" xmlns="http://www.w3.org/2000/svg"
 width="810.000000pt" height="810.000000pt" viewBox="0 0 810.000000 810.000000"
 preserveAspectRatio="xMidYMid meet">
<metadata>
Created by potrace 1.14, written by Peter Selinger 2001-2017
</metadata>
<g transform="translate(0.000000,810.000000) scale(0.100000,-0.100000)"
fill="#000000" stroke="none">
<path d="M3667 7123 c-2 -1 -18 -5 -37 -8 -19 -3 -44 -9 -55 -12 -11 -4 -27
-8 -35 -9 -8 -1 -31 -7 -50 -12 -19 -6 -61 -17 -92 -26 -132 -36 -329 -124
-473 -211 -97 -59 -247 -171 -295 -219 -34 -36 -34 -36 -15 -55 34 -31 323
-135 411 -148 38 -5 44 -3 60 23 10 16 21 31 24 34 3 3 17 21 30 40 13 19 27
37 30 40 4 3 11 12 16 22 20 35 174 208 254 283 88 84 124 115 205 180 28 21
60 50 73 63 l24 23 -37 -3 c-20 -1 -37 -3 -38 -5z"/>
<path d="M4385 7102 c17 -15 66 -56 110 -92 142 -114 273 -243 365 -359 19
-24 40 -49 45 -55 6 -6 28 -37 50 -70 68 -99 79 -108 126 -101 57 9 290 88
358 122 42 21 55 33 53 46 -5 28 -103 110 -247 207 -89 61 -339 190 -366 190
-9 0 -19 4 -21 8 -2 7 -143 56 -193 68 -5 2 -19 5 -30 8 -76 20 -109 28 -175
41 -104 21 -110 20 -75 -13z"/>
<path d="M3910 7042 c0 -5 -15 -16 -32 -25 -36 -18 -70 -39 -78 -47 -3 -3 -34
-27 -70 -55 -195 -149 -480 -459 -480 -522 0 -29 47 -42 255 -67 28 -4 61 -9
75 -11 38 -7 174 -17 273 -19 66 -2 92 1 103 11 12 12 14 78 14 379 l0 364
-30 0 c-16 0 -30 -4 -30 -8z"/>
<path d="M4128 7032 c-3 -10 -5 -175 -4 -365 1 -250 5 -350 13 -358 19 -19
223 -14 393 8 25 3 56 7 70 8 32 3 99 14 130 21 14 2 40 7 59 9 39 6 61 21 61
42 0 13 -50 94 -75 119 -5 6 -21 26 -35 45 -32 43 -231 243 -290 291 -89 73
-145 114 -162 121 -10 3 -18 11 -18 17 0 5 -5 10 -10 10 -6 0 -28 11 -50 25
-47 30 -76 32 -82 7z"/>
<path d="M2410 6398 c-23 -29 -47 -60 -53 -68 -102 -131 -230 -398 -277 -578
-24 -92 -24 -91 -40 -202 -16 -113 -13 -133 25 -140 51 -11 673 -6 684 5 5 6
12 33 16 60 3 28 8 64 10 80 3 17 7 48 11 70 12 83 45 231 65 294 11 36 22 73
24 81 2 8 14 41 28 73 14 31 23 57 19 57 -4 0 -2 4 3 8 19 13 50 121 39 132
-6 6 -76 33 -155 60 -79 26 -177 62 -217 79 -40 17 -88 33 -107 37 -31 5 -36
2 -75 -48z"/>
<path d="M5565 6435 c-92 -41 -126 -55 -138 -55 -7 0 -17 -4 -22 -8 -6 -5 -62
-26 -125 -47 -63 -21 -123 -42 -132 -47 -19 -9 -25 -57 -9 -73 22 -24 123
-310 134 -380 3 -16 8 -37 11 -45 3 -8 7 -31 10 -50 3 -19 11 -62 17 -95 6
-33 12 -79 15 -103 9 -94 18 -119 47 -124 42 -8 676 -3 684 5 13 14 6 155 -12
232 -41 179 -72 268 -146 420 -33 66 -65 129 -72 139 -117 181 -173 246 -209
245 -13 0 -36 -6 -53 -14z"/>
<path d="M3136 6205 c-39 -42 -150 -329 -172 -445 -2 -14 -11 -59 -20 -101
-12 -61 -20 -122 -26 -199 -3 -34 5 -46 30 -49 59 -8 1001 -5 1009 2 10 11 20
422 13 584 -3 67 -10 127 -15 132 -6 6 -64 13 -130 17 -189 10 -310 21 -390
38 -11 2 -42 7 -70 11 -27 4 -59 9 -70 10 -11 2 -42 6 -70 10 -27 4 -53 9 -57
12 -5 2 -19 -8 -32 -22z"/>
<path d="M4874 6220 c-10 -4 -37 -10 -59 -14 -22 -3 -51 -8 -65 -10 -58 -11
-148 -23 -220 -31 -127 -13 -150 -14 -260 -20 -81 -4 -119 -10 -129 -20 -13
-12 -15 -71 -15 -355 0 -257 3 -343 13 -353 9 -9 128 -12 517 -12 437 0 506 2
515 15 9 14 6 119 -6 180 -3 13 -7 41 -10 62 -3 20 -13 63 -21 95 -9 32 -18
69 -20 81 -16 81 -131 363 -154 377 -15 9 -66 12 -86 5z"/>
<path d="M432 5298 c-10 -13 -82 -154 -83 -163 0 -2 -15 -37 -33 -77 -58 -127
-167 -464 -192 -592 -2 -12 -7 -37 -11 -56 -11 -54 -10 -61 13 -125 25 -67
136 -288 154 -305 3 -3 26 -34 52 -70 81 -115 213 -256 313 -335 27 -22 59
-48 70 -58 11 -10 32 -26 48 -35 15 -9 27 -20 27 -24 0 -4 6 -8 13 -8 15 -1
84 -57 77 -63 -18 -18 -290 111 -412 195 -109 74 -262 224 -338 331 -30 42
-61 77 -68 77 -18 0 -31 -39 -38 -118 -9 -97 -11 -585 -2 -619 12 -46 159
-179 308 -278 115 -76 348 -188 435 -209 6 -1 37 -10 70 -20 94 -28 362 -82
450 -91 11 -1 40 -5 64 -10 39 -6 42 -9 25 -19 -33 -19 -443 -13 -524 9 -8 2
-35 7 -60 10 -180 23 -487 121 -655 209 -76 40 -82 19 -46 -149 6 -27 14 -61
17 -75 2 -14 7 -33 10 -42 3 -9 6 -25 8 -35 17 -85 70 -262 90 -301 32 -61
244 -132 476 -158 65 -7 485 -2 485 6 0 1 17 3 39 5 21 2 59 6 85 10 25 3 62
9 81 11 45 7 78 12 110 19 14 2 36 6 50 9 14 2 43 9 65 14 37 10 98 21 135 26
9 1 20 5 26 8 5 4 16 3 24 -2 10 -6 2 -14 -31 -29 -259 -117 -605 -219 -839
-247 -170 -19 -370 -8 -545 31 -55 12 -52 -19 16 -164 36 -77 47 -92 71 -99
16 -4 361 -7 767 -7 l738 0 59 30 c32 17 61 32 64 35 10 10 246 128 270 135
18 4 -1 -18 -62 -77 -49 -46 -88 -91 -88 -100 0 -10 11 -17 28 -20 15 -2 841
-4 1835 -3 1596 0 1809 2 1817 15 7 12 -11 35 -83 103 -64 62 -84 87 -67 82
25 -7 269 -131 345 -175 l40 -23 754 -1 c572 -1 758 2 771 11 22 15 108 192
112 229 4 36 4 36 -147 8 -140 -27 -339 -26 -505 0 -65 11 -190 37 -235 50
-27 8 -61 17 -75 20 -14 2 -72 21 -130 41 -58 20 -115 39 -128 42 -12 3 -25 9
-28 14 -3 5 -12 9 -19 9 -14 0 -84 29 -170 70 -55 26 -1 24 135 -4 82 -18 181
-36 217 -41 12 -2 34 -6 50 -9 33 -6 93 -15 154 -21 24 -3 60 -7 79 -10 42 -6
408 -6 465 0 22 2 56 7 75 11 19 3 46 8 60 10 134 24 298 91 323 133 13 23 59
164 72 221 2 8 13 52 24 98 12 46 19 87 16 92 -4 6 -2 10 3 10 5 0 9 6 9 13 0
6 5 39 12 71 6 33 11 73 11 89 0 27 -2 29 -30 23 -17 -3 -67 -23 -113 -44 -45
-22 -107 -49 -137 -60 -30 -11 -74 -27 -98 -36 -23 -9 -59 -20 -80 -25 -154
-39 -208 -51 -257 -56 -11 -1 -39 -5 -62 -9 -23 -4 -61 -10 -85 -13 -59 -7
-398 -7 -423 0 -11 3 -26 6 -34 6 -28 2 0 15 37 18 37 2 93 10 102 13 3 2 8 2
11 2 6 -1 138 20 208 33 19 3 37 8 41 10 3 2 17 6 31 8 13 3 42 10 64 16 22 6
45 11 50 12 28 4 232 82 310 119 155 74 328 194 449 310 47 45 60 65 66 101
14 70 2 594 -15 686 -10 60 -34 48 -103 -57 -83 -124 -328 -337 -451 -391 -17
-8 -31 -17 -31 -21 0 -5 -9 -8 -19 -8 -11 0 -21 -3 -23 -7 -3 -9 -151 -74
-168 -75 -3 0 -15 -4 -27 -9 -42 -16 -24 9 38 53 182 130 352 286 440 404 24
32 47 61 50 64 10 9 102 164 139 235 60 116 92 200 86 226 -3 13 -8 35 -10 49
-12 76 -113 416 -154 520 -37 93 -50 124 -84 198 -21 46 -38 86 -38 88 0 3
-12 23 -26 45 -35 57 -44 44 -83 -120 -18 -74 -44 -171 -59 -215 -14 -45 -26
-83 -27 -86 -1 -3 -7 -18 -13 -33 -7 -16 -12 -31 -12 -33 0 -8 -112 -238 -119
-244 -3 -3 -15 -21 -26 -40 -49 -90 -150 -216 -265 -332 -69 -70 -129 -128
-133 -128 -4 0 -20 -12 -35 -26 -15 -14 -39 -32 -54 -40 -16 -8 -28 -19 -28
-24 0 -6 -6 -10 -14 -10 -8 0 -16 -4 -18 -8 -1 -4 -43 -33 -93 -63 -49 -30
-99 -60 -110 -67 -21 -13 -298 -153 -302 -153 -2 0 -24 -9 -50 -20 -78 -34
-98 -42 -103 -44 -3 0 -27 -11 -54 -23 -27 -12 -50 -22 -52 -22 -1 0 -15 -5
-31 -12 -15 -6 -32 -12 -38 -14 -5 -2 -59 -23 -120 -47 -60 -24 -182 -72 -270
-107 -452 -176 -773 -339 -971 -491 -99 -76 -262 -245 -332 -344 -71 -100
-158 -282 -177 -369 -12 -53 -36 -126 -44 -131 -5 -3 -16 21 -25 52 -38 142
-80 246 -150 369 -78 139 -249 324 -411 444 -33 25 -61 48 -63 53 -2 4 -8 7
-14 7 -5 0 -28 13 -51 29 -107 73 -348 192 -607 297 -74 31 -144 60 -155 64
-11 5 -150 61 -310 124 -405 159 -605 249 -791 354 -37 21 -237 153 -244 161
-3 4 -21 18 -40 32 -86 64 -240 218 -310 309 -19 25 -37 47 -40 50 -24 22
-122 187 -170 285 -55 112 -132 317 -144 381 -3 16 -12 53 -20 82 -8 29 -14
55 -14 57 -1 3 -6 30 -13 60 -13 61 -30 83 -47 63z"/>
<path d="M2125 5252 c-38 -2 -75 -8 -83 -14 -17 -14 -10 -126 14 -228 3 -14 8
-36 10 -50 22 -122 115 -351 196 -485 10 -16 21 -37 25 -45 3 -8 10 -17 14
-20 3 -3 15 -19 26 -37 40 -67 129 -172 150 -177 13 -4 67 12 139 40 65 25
164 60 220 79 56 18 111 38 123 44 26 14 24 29 -22 136 -87 203 -148 432 -162
609 -4 44 -9 89 -11 100 -9 47 -16 48 -301 50 -147 0 -299 0 -338 -2z"/>
<path d="M3070 5252 c-112 -2 -127 -4 -142 -23 -9 -11 -15 -25 -13 -32 2 -7 7
-37 9 -67 9 -97 45 -280 64 -330 5 -14 10 -29 11 -35 5 -39 79 -221 122 -300
25 -45 31 -50 61 -49 33 1 100 9 148 19 13 2 42 7 65 10 22 4 51 8 65 10 14 2
52 7 85 10 33 4 74 9 90 11 17 2 77 6 135 10 156 9 169 11 185 24 11 9 14 64
15 303 2 437 3 419 -12 428 -7 5 -40 9 -73 9 -262 3 -713 5 -815 2z"/>
<path d="M4163 5252 c-15 -2 -25 -13 -31 -35 -7 -25 -9 -457 -3 -669 1 -49 14
-53 196 -63 61 -3 121 -7 135 -10 14 -2 52 -6 85 -9 62 -5 101 -10 195 -26 30
-5 71 -12 90 -15 19 -3 47 -8 62 -11 51 -10 66 3 112 100 39 82 108 272 120
329 3 12 7 32 10 45 11 42 22 99 32 152 3 19 7 72 9 117 l3 82 -31 6 c-33 6
-945 12 -984 7z"/>
<path d="M5423 5250 c-39 -3 -74 -8 -78 -12 -4 -4 -9 -22 -10 -40 -10 -101
-15 -145 -19 -163 -5 -26 -18 -119 -17 -122 0 -2 -6 -20 -14 -42 -7 -22 -11
-42 -8 -44 3 -3 1 -12 -3 -19 -5 -7 -9 -17 -10 -23 -8 -51 -69 -222 -114 -320
-26 -58 -30 -94 -10 -106 8 -5 69 -27 135 -49 66 -23 166 -59 222 -81 56 -21
108 -39 117 -39 34 0 188 210 270 369 71 138 147 352 161 451 1 14 6 45 11 70
12 65 10 148 -2 160 -12 12 -496 19 -631 10z"/>
<path d="M3857 4344 c-1 -1 -46 -5 -100 -9 -54 -3 -106 -8 -115 -10 -9 -1 -44
-6 -77 -9 -33 -4 -71 -9 -85 -11 -14 -2 -45 -6 -70 -9 -25 -3 -60 -10 -77 -15
-18 -5 -33 -8 -33 -5 0 3 -9 0 -21 -6 -16 -9 -19 -18 -14 -37 3 -13 10 -30 15
-36 159 -200 271 -316 401 -417 18 -14 37 -30 43 -35 44 -41 224 -151 232
-142 12 12 14 77 13 372 0 176 -1 328 -1 337 1 9 -9 20 -21 24 -21 7 -85 13
-90 8z"/>
<path d="M4154 4339 c-12 -4 -23 -18 -26 -31 -2 -14 -4 -174 -3 -357 2 -262 5
-335 15 -341 8 -5 31 1 59 17 46 25 61 35 161 108 133 97 263 222 390 374 68
82 94 126 86 146 -4 12 -53 26 -146 40 -19 3 -48 8 -65 10 -16 3 -52 8 -80 11
-27 3 -66 7 -85 9 -19 3 -78 7 -130 10 -52 3 -109 7 -125 9 -17 2 -40 0 -51
-5z"/>
<path d="M3025 4213 c-11 -2 -42 -11 -68 -20 -26 -8 -56 -16 -65 -18 -9 -2
-17 -4 -17 -5 0 -1 -7 -3 -15 -5 -37 -9 -184 -66 -211 -82 -47 -28 -39 -43 71
-129 209 -165 475 -296 752 -373 117 -32 238 -49 238 -33 0 13 -24 34 -129
118 -153 123 -340 322 -447 476 -31 46 -75 84 -87 77 -1 -1 -11 -3 -22 -6z"/>
<path d="M5009 4198 c-10 -13 -48 -63 -84 -111 -36 -48 -78 -102 -93 -119 -45
-53 -226 -231 -273 -268 -24 -19 -50 -42 -59 -50 -9 -8 -34 -28 -55 -44 -74
-55 -73 -70 3 -63 31 3 64 8 72 11 8 3 26 8 40 10 45 9 164 43 210 60 25 9 50
18 55 20 48 14 325 148 325 157 0 4 8 10 18 13 45 17 246 160 286 205 32 36
28 49 -27 75 -47 22 -227 86 -252 90 -5 1 -16 5 -22 9 -7 5 -13 6 -13 2 0 -3
-8 -1 -17 4 -10 5 -35 12 -56 15 -32 5 -42 2 -58 -16z"/>
<path d="M17 1475 c-15 -11 -18 -26 -16 -89 1 -55 6 -80 18 -90 16 -15 198
-17 966 -15 121 0 229 0 240 0 11 -1 561 -2 1222 -4 661 -2 1204 -5 1207 -8 2
-2 16 -28 31 -58 32 -63 115 -150 171 -179 60 -31 163 -62 204 -62 40 0 140
36 198 72 60 37 121 105 161 178 13 25 26 47 28 49 2 3 587 6 1301 8 1134 3
2284 9 2333 12 14 1 17 15 18 89 0 48 -3 93 -7 100 -7 10 -378 12 -1915 10
-1254 -2 -1909 -6 -1915 -13 -6 -5 -13 -35 -16 -65 -11 -96 -17 -115 -44 -145
-42 -47 -81 -67 -135 -70 -119 -7 -202 68 -213 194 -7 82 -10 88 -51 95 -21 3
-877 6 -1903 5 -1540 0 -1868 -3 -1883 -14z"/>
</g>
</svg>
